<svg width="48" height="48" viewBox="0 0 48 48" fill="none" xmlns="http://www.w3.org/2000/svg">
<rect width="48" height="48" rx="24" fill="#766A65"/>
<path d="M29.6408 32.4705H18.3629C16.8044 32.4705 15.5312 31.1973 15.5312 29.6388V18.3609C15.5312 16.8025 16.8044 15.5293 18.3629 15.5293H29.6408C31.1992 15.5293 32.4724 16.8025 32.4724 18.3609V29.6388C32.4724 31.2042 31.2062 32.4705 29.6408 32.4705Z" stroke="white" stroke-width="1.12941"/>
<path d="M20.9294 27.081C21.7504 27.9019 22.8427 28.3542 24.0046 28.3542C25.1665 28.3542 26.2518 27.9019 27.0798 27.081C27.9007 26.26 28.353 25.1677 28.353 24.0058C28.353 22.8439 27.9007 21.7516 27.0798 20.9307C26.2588 20.1097 25.1665 19.6575 24.0046 19.6575C22.8427 19.6575 21.7504 20.1097 20.9294 20.9307C20.1085 21.7516 19.6562 22.8439 19.6562 24.0058C19.6562 25.1677 20.1085 26.26 20.9294 27.081Z" stroke="white" stroke-width="1.12941"/>
<path d="M29.2021 19.516C29.6632 19.516 30.037 19.1422 30.037 18.6811C30.037 18.22 29.6632 17.8462 29.2021 17.8462C28.741 17.8462 28.3672 18.22 28.3672 18.6811C28.3672 19.1422 28.741 19.516 29.2021 19.516Z" stroke="white" stroke-width="1.12941"/>
</svg>
