<svg width="48" height="48" viewBox="0 0 48 48" fill="none" xmlns="http://www.w3.org/2000/svg">
<rect width="48" height="48" rx="24" fill="#766A65"/>
<path d="M33.2096 19.5216C32.7074 18.4119 31.9864 17.4155 31.0711 16.5569C30.1558 15.7064 29.0946 15.034 27.912 14.5642C26.6889 14.0782 25.3928 13.8352 24.0563 13.8352C22.7197 13.8352 21.4237 14.0782 20.2005 14.5642C19.0179 15.034 17.9567 15.6983 17.0414 16.5569C16.1261 17.4155 15.4051 18.4119 14.9029 19.5216C14.3845 20.6718 14.1172 21.9031 14.1172 23.1667C14.1172 25.3781 14.9434 27.5004 16.4582 29.1853L15.6481 33.5999L19.9575 31.6801C21.2454 32.231 22.6144 32.5064 24.0481 32.5064C25.3847 32.5064 26.6808 32.2634 27.9039 31.7773C29.0865 31.3075 30.1477 30.6433 31.063 29.7847C31.9783 28.926 32.6993 27.9297 33.2015 26.82C33.7199 25.6697 33.9872 24.4385 33.9872 23.1748C33.9953 21.9031 33.728 20.6799 33.2096 19.5216Z" stroke="white" stroke-width="1.12941"/>
<path d="M28.1096 25.03C27.6883 24.8194 27.3806 24.6898 27.1618 24.6088C27.0241 24.5602 26.7001 24.4144 26.5867 24.5035C26.2303 24.7951 25.8496 25.6213 25.4446 25.7753C24.4401 25.5808 23.5086 24.8923 22.7796 24.1876C22.4556 23.8798 21.8562 23.005 21.7265 22.77C21.7022 22.527 22.1396 22.203 22.2368 22.0167C22.7391 21.4497 22.3584 21.0933 22.2936 20.8584C22.1802 20.6154 21.9858 20.178 21.8157 19.8215C21.6699 19.5866 21.6374 19.2383 21.3782 19.1087C20.2766 18.5417 19.6448 19.6757 19.3856 20.2671C17.8222 24.0337 27.2185 31.2024 29.1302 26.2613C29.2274 25.832 29.1869 25.6699 29.0411 25.4755C28.7495 25.273 28.4093 25.1839 28.1096 25.03Z" stroke="white" stroke-width="1.12941"/>
</svg>
