<svg width="45" height="45" viewBox="0 0 45 45" fill="none" xmlns="http://www.w3.org/2000/svg">
<g clip-path="url(#clip0_980_8620)">
<path d="M20.3173 0.0469777C25.0852 -0.407158 32.7721 2.51391 36.6574 5.24035C50.2889 14.808 45.7839 33.2816 33.436 41.6815C25.174 47.3014 12.3807 45.6033 5.99393 37.9365C-2.19745 28.1061 -2.71516 12.4935 8.97366 5.13979C11.9665 3.25675 16.8166 0.381092 20.3173 0.0469777ZM40.0348 33.4308C42.4919 27.9698 44.8471 22.358 43.2118 16.2742C41.7901 10.9771 36.7395 6.07725 31.7531 3.88118C29.1809 2.74909 23.6258 0.963359 20.909 1.24233C20.0807 1.32829 19.2737 1.70944 18.493 1.95759C18.4601 2.16195 18.7856 2.08248 18.9253 2.08086C20.7825 2.06139 22.4293 1.85055 24.3391 2.07924C27.802 2.49445 34.3219 5.69286 36.9664 7.97165C42.3276 12.5941 42.3982 20.8496 41.3825 27.2854C41.0653 29.2933 40.4375 31.3759 39.4251 33.1405C39.3314 33.387 39.9576 33.4827 40.0316 33.4308H40.0348ZM8.56278 9.29189C4.61665 13.045 3.43823 15.2622 2.87122 20.7523C2.2138 27.1167 3.05365 32.036 7.47147 36.845C11.4307 41.1528 16.6243 43.1818 22.4917 43.4121C24.086 43.4753 25.7459 42.726 27.1972 42.0902C34.8593 38.7377 40.0135 33.1292 40.7826 24.6255C41.2511 19.4483 40.6068 12.1935 36.1643 8.76639C34.3564 7.37154 31.0644 5.7918 28.9245 4.85109C20.4192 1.11258 14.9216 3.24215 8.56113 9.29351L8.56278 9.29189ZM10.6123 5.96859C8.00562 6.99364 5.87067 9.23512 4.40299 11.5691C1.89824 15.5525 0.829944 20.3988 1.62213 25.0504C1.83743 25.078 1.73718 24.7747 1.74375 24.6271C1.82428 22.6629 1.68294 20.9291 2.02644 18.9488C2.9649 13.5267 6.31278 9.25945 10.6106 5.96859H10.6123Z" fill="white"/>
<path d="M18.4094 15.121C18.5294 15.0204 19.0011 14.8598 19.1572 14.8728L30.3284 22.3077C30.6012 22.8591 30.5026 23.4771 29.9125 23.7366C26.3329 25.4428 22.9226 27.5124 19.3627 29.2462C17.4414 30.1821 17.3329 29.2997 17.3839 27.5367C17.466 24.6335 17.8128 21.6897 18.0035 18.7897C18.0511 18.0712 17.9262 15.52 18.4094 15.1193V15.121Z" fill="white"/>
</g>
<defs>
<clipPath id="clip0_980_8620">
<rect width="45" height="45" fill="white"/>
</clipPath>
</defs>
</svg>
