<svg width="45" height="45" viewBox="0 0 45 45" fill="none" xmlns="http://www.w3.org/2000/svg">
<g clip-path="url(#clip0_11323_43019)">
<path d="M35.7703 40.1242C27.3189 47.3466 13.656 46.4391 6.30151 38.1011C-1.84726 28.8587 -2.82742 13.8349 7.73063 5.99282C9.91789 4.36813 13.651 1.89614 16.1392 0.902467C23.9673 -2.22167 37.1517 3.24435 41.7812 9.95451C48.3775 19.5172 44.0688 33.0302 35.7687 40.1226L35.7703 40.1242ZM40.7352 32.3586C40.7681 32.3309 40.8701 31.7048 40.9359 31.5226C42.4702 27.3024 43.9487 24.079 43.7086 19.3839C43.156 8.59654 32.0421 1.95469 22.0745 1.17081C20.5828 1.05371 18.7557 1.23911 17.5782 2.14334C19.6454 1.88964 21.7127 1.64406 23.7996 1.90265C27.2811 2.33199 34.4925 5.43987 37.0498 7.81103C42.0262 12.4232 42.4308 20.8801 41.592 27.1771C41.3684 28.8604 40.8109 30.6932 40.0083 32.1894C40.0182 32.3602 40.6267 32.448 40.7336 32.3602L40.7352 32.3586ZM20.6338 2.91096C14.4782 2.96951 9.06601 8.0501 5.57462 12.6363C2.70487 16.4045 2.46476 22.1242 2.91702 26.7022C3.73107 34.9444 11.2171 42.175 19.4909 43.0955C22.0745 43.3833 24.3374 43.5996 26.7022 42.5506C33.6702 39.4607 40.2468 33.4888 40.875 25.489C41.2648 20.5223 40.6201 12.3972 36.6156 8.85024C33.8577 6.40915 25.3932 2.96788 21.7077 2.87681L20.6355 2.91096H20.6338ZM9.93927 6.41078C7.52835 7.49065 5.69467 9.46661 4.34285 11.6605C1.72307 15.9117 0.63766 21.1289 1.80694 26.0322C2.01251 26.0647 1.94179 25.7346 1.93357 25.6029C1.76583 22.817 1.70333 20.7223 2.33649 17.9657C3.42025 13.251 6.24889 9.47475 9.93763 6.41078H9.93927Z" fill="white"/>
<path d="M19.8447 15.0048C20.5338 14.9479 20.815 15.4033 20.8693 16.0099C21.2442 20.1992 20.5749 24.9334 20.866 29.1813C20.6571 30.2352 19.7789 30.2531 18.9747 29.7083C17.8794 28.9683 16.799 27.8689 15.6577 27.1387C14.7926 26.789 12.8126 27.233 11.8094 27.0444C11.367 26.9614 11.1598 26.5305 11.122 26.1402C10.9526 24.4309 10.9657 20.7798 11.1236 19.0576C11.2897 17.2426 14.3601 18.3534 15.6001 18.0005C16.2119 17.8265 18.4008 15.7594 19.1441 15.2894C19.3151 15.1821 19.6556 15.0211 19.8463 15.0048H19.8447Z" fill="#F1D0D8"/>
<g clip-path="url(#clip1_11323_43019)">
<path d="M24.7754 18.478C24.901 18.4922 25.0289 18.5551 25.1299 18.6606C25.5235 19.0719 25.9061 19.4933 26.2852 19.9165C26.9687 20.6792 27.6478 21.4472 28.3281 22.2114C28.8266 21.7271 29.3219 21.2437 29.8203 20.7642C30.4365 20.1716 31.0552 19.5815 31.6758 18.9937L31.7695 18.9106C31.8644 18.8351 31.9619 18.7819 32.0605 18.7593C32.2028 18.7267 32.3346 18.7626 32.4414 18.8589L32.5137 18.9409C32.5739 19.0292 32.5991 19.1356 32.583 19.2495C32.5625 19.3946 32.4772 19.5382 32.3457 19.6714C31.7062 20.3195 31.0519 20.9522 30.3994 21.5835C29.9355 22.0325 29.463 22.4739 28.9736 22.938C29.3689 23.3556 29.7462 23.7648 30.1416 24.1587C30.555 24.5704 30.9829 24.9503 31.4111 25.3599C31.4962 25.4382 31.5787 25.5199 31.6582 25.604L31.8887 25.8647L31.8906 25.8667C31.9641 25.9597 32.0132 26.0726 32.0146 26.1938C32.0157 26.2872 31.9883 26.3777 31.9336 26.4585L31.8701 26.5356C31.7697 26.6375 31.649 26.678 31.5264 26.6646C31.4138 26.652 31.3146 26.5956 31.2363 26.5337C30.9742 26.3358 30.7227 26.1238 30.4834 25.8979L30.4805 25.895C29.7591 25.1774 29.0495 24.4465 28.3379 23.7222C28.3083 23.6921 28.2798 23.6597 28.248 23.6255C27.5897 24.2237 26.9465 24.8045 26.3086 25.3921C26.1148 25.5706 25.9241 25.7531 25.7324 25.937C25.5412 26.1205 25.3491 26.3056 25.1533 26.4868C25.0377 26.5963 24.9045 26.6855 24.7598 26.7505L24.7578 26.7515C24.6847 26.7827 24.5978 26.7764 24.5391 26.7642C24.5062 26.7573 24.4708 26.747 24.4385 26.731C24.4092 26.7163 24.3668 26.6897 24.3379 26.644V26.6431C24.2946 26.574 24.2863 26.4937 24.2871 26.4341C24.288 26.3706 24.3 26.307 24.3135 26.2554C24.3311 26.1877 24.3722 26.1367 24.4023 26.104C24.428 26.0761 24.4732 26.0342 24.4863 26.021L27.3691 23.1401C27.4465 23.063 27.526 22.9865 27.6094 22.9067C27.223 22.474 26.8331 22.0474 26.4609 21.6089C25.8192 20.8523 25.1893 20.084 24.5566 19.3228C24.542 19.3051 24.5288 19.2867 24.5186 19.2729C24.5076 19.2582 24.4994 19.2475 24.4912 19.2378V19.2368C24.4329 19.1668 24.366 19.0759 24.3398 18.9683C24.3109 18.8489 24.3352 18.7257 24.4248 18.6108C24.5128 18.4983 24.6513 18.464 24.7754 18.478Z" fill="#F1D0D8" stroke="#F1D0D8" stroke-width="0.3"/>
</g>
</g>
<defs>
<clipPath id="clip0_11323_43019">
<rect width="45" height="45" fill="white"/>
</clipPath>
<clipPath id="clip1_11323_43019">
<rect width="10" height="9" fill="white" transform="translate(22.9844 18.031)"/>
</clipPath>
</defs>
</svg>
