<svg width="45" height="45" viewBox="0 0 45 45" fill="none" xmlns="http://www.w3.org/2000/svg">
<g clip-path="url(#clip0_980_8613)">
<path d="M35.7703 40.1242C27.3189 47.3466 13.656 46.4391 6.30151 38.1011C-1.84726 28.8587 -2.82742 13.8349 7.73063 5.99282C9.91789 4.36813 13.651 1.89614 16.1392 0.902467C23.9673 -2.22167 37.1517 3.24435 41.7812 9.95451C48.3775 19.5172 44.0688 33.0302 35.7687 40.1226L35.7703 40.1242ZM40.7352 32.3586C40.7681 32.3309 40.8701 31.7048 40.9359 31.5226C42.4702 27.3024 43.9487 24.079 43.7086 19.3839C43.156 8.59654 32.0421 1.95469 22.0745 1.17081C20.5828 1.05371 18.7557 1.23911 17.5782 2.14334C19.6454 1.88964 21.7127 1.64406 23.7996 1.90265C27.2811 2.33199 34.4925 5.43987 37.0498 7.81103C42.0262 12.4232 42.4308 20.8801 41.592 27.1771C41.3684 28.8604 40.8109 30.6932 40.0083 32.1894C40.0182 32.3602 40.6267 32.448 40.7336 32.3602L40.7352 32.3586ZM20.6338 2.91096C14.4782 2.96951 9.06601 8.0501 5.57462 12.6363C2.70487 16.4045 2.46476 22.1242 2.91702 26.7022C3.73107 34.9444 11.2171 42.175 19.4909 43.0955C22.0745 43.3833 24.3374 43.5996 26.7022 42.5506C33.6702 39.4607 40.2468 33.4888 40.875 25.489C41.2648 20.5223 40.6201 12.3972 36.6156 8.85024C33.8577 6.40915 25.3932 2.96788 21.7077 2.87681L20.6355 2.91096H20.6338ZM9.93927 6.41078C7.52835 7.49065 5.69467 9.46661 4.34285 11.6605C1.72307 15.9117 0.63766 21.1289 1.80694 26.0322C2.01251 26.0647 1.94179 25.7346 1.93357 25.6029C1.76583 22.817 1.70333 20.7223 2.33649 17.9657C3.42025 13.251 6.24889 9.47475 9.93763 6.41078H9.93927Z" fill="white"/>
<path d="M21.4931 15.5768C22.1822 15.5199 22.4634 15.9753 22.5177 16.5819C22.8926 20.7713 22.2233 25.5054 22.5144 29.7534C22.3055 30.8072 21.4273 30.8251 20.6232 30.2803C19.5279 29.5403 18.4474 28.4409 17.3061 27.7107C16.4411 27.3611 14.461 27.8051 13.4578 27.6164C13.0154 27.5335 12.8082 27.1025 12.7704 26.7122C12.601 25.0029 12.6142 21.3519 12.772 19.6296C12.9381 17.8146 16.0085 18.9254 17.2485 18.5725C17.8603 18.3985 20.0492 16.3314 20.7925 15.8614C20.9636 15.7541 21.304 15.5931 21.4948 15.5768H21.4931Z" fill="white"/>
<path d="M27.7795 14.4839C28.6347 14.2611 29.2185 14.9799 29.7102 15.5605C33.1029 19.5726 33.2756 25.5331 30.3532 29.8265C29.7678 30.6852 28.3831 32.6612 27.2664 31.3845C26.3751 30.3665 27.4374 29.8103 27.9341 29.1402C30.4009 25.8144 30.8795 21.8966 28.7251 18.2407C28.3666 17.6325 27.0724 16.2631 26.972 15.8273C26.8487 15.2857 27.2483 14.6222 27.7795 14.4823V14.4839Z" fill="white"/>
<path d="M24.2712 28.802C23.3305 27.8718 24.6396 26.8911 25.077 26.1934C26.3861 24.1101 26.2036 21.8398 24.9027 19.828C24.439 19.1108 23.3387 18.3481 24.3551 17.4357C25.526 16.3851 26.72 18.1985 27.2462 19.0962C28.8381 21.8138 28.6424 25.5104 26.6295 27.9742C26.1032 28.6182 25.1461 29.6688 24.2712 28.8036V28.802Z" fill="white"/>
</g>
<defs>
<clipPath id="clip0_980_8613">
<rect width="45" height="45" fill="white"/>
</clipPath>
</defs>
</svg>
