<svg width="18" height="19" viewBox="0 0 18 19" fill="none" xmlns="http://www.w3.org/2000/svg">
<ellipse cx="9.9523" cy="10.8107" rx="7.71421" ry="7.78823" transform="rotate(-90 9.9523 10.8107)" fill="#BB133E"/>
<path d="M0.0176846 9.22454C-0.153273 7.47309 0.946349 4.64939 1.9727 3.22214C5.57441 -1.7853 12.5287 -0.130438 15.6908 4.40548C17.8064 7.44049 17.1671 12.14 14.281 14.4862C10.5804 17.4952 4.70314 17.6854 1.93485 13.3916C1.22599 12.2922 0.14346 10.5105 0.0176846 9.22454ZM12.5849 1.98145C10.5291 1.07886 8.41657 0.213694 6.12635 0.814418C4.13226 1.33665 2.28775 3.19195 1.46105 5.02371C1.03488 5.96856 0.362652 8.00921 0.467669 9.0072C0.500028 9.31148 0.64351 9.60792 0.736926 9.8947C0.813857 9.90677 0.78394 9.78723 0.783329 9.73591C0.776002 9.05369 0.696629 8.44874 0.782718 7.74719C0.939022 6.4751 2.14305 4.08006 3.00089 3.10864C4.74099 1.13923 7.84875 1.11327 10.2715 1.48638C11.0273 1.60291 11.8113 1.83353 12.4756 2.20544C12.5684 2.23985 12.6044 2.00983 12.5849 1.98266L12.5849 1.98145ZM3.49789 13.5425C4.91073 14.9921 5.74536 15.425 7.81212 15.6333C10.208 15.8748 12.0598 15.5663 13.8701 13.9434C15.4918 12.489 16.2556 10.5812 16.3423 8.42579C16.3661 7.84016 16.084 7.23039 15.8447 6.69728C14.5826 3.88264 12.4713 1.9893 9.27014 1.70675C7.32122 1.53468 4.59018 1.77135 3.30006 3.40326C2.77498 4.06738 2.18029 5.27668 1.82617 6.06275C0.418824 9.18711 1.22049 11.2066 3.4985 13.5431L3.49789 13.5425ZM2.24685 12.7896C2.63272 13.7472 3.47652 14.5314 4.35511 15.0706C5.85465 15.9907 7.67901 16.3831 9.4301 16.0921C9.44048 16.013 9.32631 16.0498 9.27075 16.0474C8.53136 16.0178 7.87867 16.0698 7.13317 15.9436C5.09206 15.5989 3.48568 14.369 2.24685 12.7902L2.24685 12.7896Z" fill="#1A1A1A"/>
<g clip-path="url(#clip0_11264_35590)">
<path d="M9.02892 6.25961C9.00866 6.27813 9.00221 6.3176 8.98529 6.33194C8.95902 6.35421 8.86864 6.37956 8.81521 6.41947C7.96014 7.05849 7.42942 8.07323 6.7048 8.83991C6.54452 9.00948 6.36442 9.18103 6.1959 9.34376C6.08593 9.44982 5.6398 9.81144 5.61086 9.92103C5.59951 9.96381 5.60908 10.0035 5.59907 10.0416C5.58905 10.0798 5.54675 10.1146 5.53785 10.1792C5.51136 10.372 5.63669 10.5653 5.84305 10.5644C6.00556 10.5638 6.35863 10.424 6.52003 10.3592C7.3219 10.0377 8.23084 9.43108 8.81476 8.79846C8.91895 8.68578 9.2019 8.29065 9.31142 8.24941C9.36084 8.23067 9.38222 8.23067 9.42986 8.25514C9.51289 8.29792 9.66761 8.56142 9.74864 8.64962C10.2607 9.20793 11.1462 9.78829 11.8257 10.1285C11.9494 10.1905 12.2731 10.3673 12.394 10.36C12.7032 10.3413 12.9797 10.0897 12.7431 9.79821C12.524 9.52832 12.118 9.20594 11.8588 8.93892C11.3501 8.41479 10.8595 7.86265 10.3916 7.30236C10.1249 6.98308 9.85683 6.58331 9.58212 6.28651C9.41961 6.11077 9.20946 6.0938 9.0287 6.25917L9.02892 6.25961Z" fill="white"/>
</g>
<defs>
<clipPath id="clip0_11264_35590">
<rect width="4.41972" height="7.29782" fill="white" transform="matrix(1.19249e-08 -1 -1 -2.38498e-08 12.832 10.5645)"/>
</clipPath>
</defs>
</svg>
