<svg width="18" height="19" viewBox="0 0 18 19" fill="none" xmlns="http://www.w3.org/2000/svg">
<ellipse cx="7.78989" cy="7.71421" rx="7.71421" ry="7.78823" transform="rotate(90 7.78989 7.71421)" fill="#BB133E"/>
<path d="M17.7245 9.30011C17.8955 11.0516 16.7958 13.8753 15.7695 15.3025C12.1678 20.31 5.21348 18.6551 2.05138 14.1192C-0.0642128 11.0842 0.575045 6.38464 3.46117 4.0385C7.16179 1.02945 13.0391 0.839273 15.8073 5.13309C16.5162 6.2325 17.5987 8.01414 17.7245 9.30011ZM5.15731 16.5432C7.21307 17.4458 9.32562 18.311 11.6158 17.7102C13.6099 17.188 15.4544 15.3327 16.2811 13.501C16.7073 12.5561 17.3795 10.5154 17.2745 9.51746C17.2422 9.21317 17.0987 8.91674 17.0053 8.62996C16.9283 8.61788 16.9582 8.73743 16.9589 8.78874C16.9662 9.47097 17.0456 10.0759 16.9595 10.7775C16.8032 12.0496 15.5991 14.4446 14.7413 15.416C13.0012 17.3854 9.89344 17.4114 7.47073 17.0383C6.71485 16.9218 5.93089 16.6911 5.2666 16.3192C5.1738 16.2848 5.13777 16.5148 5.15731 16.542V16.5432ZM14.2443 4.98215C12.8315 3.53257 11.9968 3.09968 9.93007 2.89139C7.53423 2.6499 5.68239 2.95841 3.87208 4.58127C2.25043 6.03568 1.48661 7.94351 1.39991 10.0989C1.3761 10.6845 1.65818 11.2943 1.89752 11.8274C3.15955 14.642 5.27087 16.5354 8.47205 16.8179C10.421 16.99 13.152 16.7533 14.4421 15.1214C14.9672 14.4573 15.5619 13.248 15.916 12.4619C17.3234 9.33755 16.5217 7.31803 14.2437 4.98155L14.2443 4.98215ZM15.4953 5.73502C15.1095 4.77748 14.2657 3.99322 13.3871 3.45408C11.8875 2.53398 10.0632 2.14154 8.31208 2.43255C8.3017 2.51164 8.41588 2.47481 8.47144 2.47722C9.21083 2.50681 9.86352 2.45489 10.609 2.58107C12.6501 2.92581 14.2565 4.15563 15.4953 5.73441V5.73502Z" fill="#1A1A1A"/>
<g clip-path="url(#clip0_1612_28357)">
<path d="M8.71327 12.265C8.73352 12.2465 8.73998 12.2071 8.7569 12.1927C8.78317 12.1705 8.87355 12.1451 8.92698 12.1052C9.78205 11.4662 10.3128 10.4514 11.0374 9.68475C11.1977 9.51518 11.3778 9.34363 11.5463 9.1809C11.6563 9.07484 12.1024 8.71322 12.1313 8.60363C12.1427 8.56085 12.1331 8.52116 12.1431 8.48302C12.1531 8.44487 12.1954 8.41003 12.2043 8.34542C12.2308 8.15271 12.1055 7.95933 11.8991 7.96021C11.7366 7.96087 11.3836 8.10067 11.2222 8.16549C10.4203 8.48698 9.51135 9.09358 8.92742 9.7262C8.82324 9.83888 8.54029 10.234 8.43076 10.2752C8.38134 10.294 8.35997 10.294 8.31233 10.2695C8.2293 10.2267 8.07458 9.96324 7.99355 9.87504C7.48153 9.31673 6.59596 8.73637 5.91653 8.39614C5.79276 8.33418 5.46907 8.15734 5.34819 8.16461C5.03898 8.18335 4.76249 8.43495 4.99913 8.72645C5.21818 8.99634 5.62424 9.31871 5.88336 9.58574C6.39204 10.1099 6.88269 10.662 7.35063 11.2223C7.61732 11.5416 7.88535 11.9414 8.16006 12.2381C8.32257 12.4139 8.53272 12.4309 8.71349 12.2655L8.71327 12.265Z" fill="white"/>
</g>
<defs>
<clipPath id="clip0_1612_28357">
<rect width="4.41972" height="7.29782" fill="white" transform="matrix(0 1 1 1.19249e-08 4.91016 7.96021)"/>
</clipPath>
</defs>
</svg>
