<svg width="27" height="26" viewBox="0 0 27 26" fill="none" xmlns="http://www.w3.org/2000/svg">
<ellipse opacity="0.5" cx="11.0313" cy="14.0981" rx="11.0313" ry="11.0313" fill="#B5A5B3"/>
<path d="M13.2977 0.0250484C15.8022 -0.217096 19.8401 1.34041 21.881 2.79414C29.0416 7.89559 26.6752 17.7457 20.1889 22.2245C15.8488 25.221 9.12856 24.3155 5.7736 20.2276C1.47069 14.9861 1.19873 6.66152 7.33885 2.74052C8.911 1.73649 11.4587 0.203197 13.2977 0.0250484ZM23.6552 17.8252C24.9459 14.9134 26.1831 11.9212 25.3241 8.67737C24.5773 5.85293 21.9242 3.24037 19.3048 2.06943C17.9537 1.4658 15.0356 0.51366 13.6085 0.662406C13.1733 0.70824 12.7494 0.911468 12.3393 1.04378C12.3221 1.15275 12.493 1.11037 12.5664 1.10951C13.542 1.09913 14.4071 0.986705 15.4103 1.10864C17.2293 1.33003 20.6542 3.03542 22.0433 4.25046C24.8596 6.71514 24.8967 11.117 24.3632 14.5485C24.1965 15.6191 23.8667 16.7295 23.3349 17.6704C23.2857 17.8019 23.6146 17.8529 23.6535 17.8252H23.6552ZM7.12301 4.95441C5.05012 6.95555 4.4311 8.13773 4.13324 11.0651C3.7879 14.4586 4.22907 17.0815 6.54975 19.6456C8.62955 21.9425 11.3577 23.0244 14.4399 23.1472C15.2773 23.1809 16.1493 22.7814 16.9116 22.4424C20.9365 20.6548 23.644 17.6644 24.048 13.1302C24.2941 10.3698 23.9557 6.50153 21.622 4.67421C20.6724 3.93048 18.9431 3.08817 17.819 2.58658C13.3512 0.593222 10.4633 1.7287 7.12215 4.95527L7.12301 4.95441ZM8.1996 3.18243C6.83033 3.72899 5.70885 4.92414 4.93788 6.16858C3.62214 8.29253 3.06097 10.8766 3.4771 13.3568C3.5902 13.3715 3.53753 13.2098 3.54099 13.1311C3.58329 12.0838 3.50904 11.1593 3.68948 10.1034C4.18245 7.2124 5.94109 4.93711 8.19874 3.18243H8.1996Z" fill="#1A1A1A"/>
</svg>
