<svg width="8" height="15" viewBox="0 0 8 15" fill="none" xmlns="http://www.w3.org/2000/svg">
<path d="M0.622916 14.4479C0.464583 14.4479 0.30625 14.3896 0.18125 14.2646C-0.0604167 14.0229 -0.0604167 13.6229 0.18125 13.3812L5.61458 7.94792C6.01458 7.54792 6.01458 6.89792 5.61458 6.49792L0.18125 1.06458C-0.0604167 0.822917 -0.0604167 0.422917 0.18125 0.18125C0.422917 -0.0604167 0.822916 -0.0604167 1.06458 0.18125L6.49792 5.61458C6.92292 6.03958 7.16458 6.61458 7.16458 7.22292C7.16458 7.83125 6.93125 8.40625 6.49792 8.83125L1.06458 14.2646C0.939583 14.3813 0.78125 14.4479 0.622916 14.4479Z" fill="#3E333D"/>
</svg>
