<svg width="56" height="53" viewBox="0 0 56 53" fill="none" xmlns="http://www.w3.org/2000/svg">
<ellipse cx="32.0411" cy="29.275" rx="23.1426" ry="22.9066" fill="#BB133E"/>
<path d="M27.2015 49.7706C21.9471 50.2734 13.476 47.0393 9.19425 44.0206C-5.82806 33.4273 -0.863491 12.9735 12.7443 3.67321C21.8493 -2.54913 35.9479 -0.668961 42.9863 7.81964C52.0135 18.7038 52.584 35.9899 39.7025 44.1319C36.4043 46.2168 31.0594 49.4007 27.2015 49.7706ZM5.47218 12.8083C2.7644 18.8546 0.168907 25.068 1.97108 31.8039C3.53779 37.6689 9.10369 43.0939 14.5989 45.5254C17.4335 46.7789 23.5555 48.756 26.5494 48.4471C27.4623 48.352 28.3516 47.93 29.2119 47.6552C29.2481 47.4289 28.8895 47.5169 28.7356 47.5187C26.6889 47.5403 24.874 47.7737 22.7694 47.5205C18.9531 47.0608 11.768 43.5195 8.85374 40.9965C2.94552 35.8785 2.86764 26.7381 3.98698 19.6125C4.33654 17.3893 5.02843 15.0835 6.14414 13.1297C6.24738 12.8568 5.5573 12.7508 5.4758 12.8083H5.47218ZM40.1554 39.5347C44.5041 35.3793 45.8028 32.9245 46.4276 26.8458C47.1521 19.7992 46.2266 14.3527 41.358 9.0282C36.9948 4.25863 31.2713 2.01213 24.8052 1.75713C23.0483 1.68709 21.219 2.51674 19.6197 3.22068C11.1757 6.93253 5.49572 13.1423 4.64807 22.5575C4.13187 28.2896 4.84187 36.3221 9.73762 40.1166C11.73 41.6609 15.3579 43.41 17.7161 44.4515C27.0892 48.5908 33.1477 46.233 40.1572 39.5329L40.1554 39.5347ZM37.8968 43.2143C40.7694 42.0793 43.1221 39.5976 44.7396 37.0135C47.4999 32.6031 48.6772 27.2373 47.8042 22.087C47.5669 22.0565 47.6774 22.3923 47.6701 22.5557C47.5814 24.7304 47.7371 26.6501 47.3586 28.8427C46.3244 34.846 42.6349 39.5706 37.8986 43.2143H37.8968Z" fill="#1A1A1A"/>
<g clip-path="url(#clip0_136_6844)">
<path d="M18.3062 23.2718C18.3617 23.3314 18.4801 23.3504 18.5231 23.4001C18.59 23.4774 18.666 23.7432 18.7858 23.9004C20.7028 26.4153 23.747 27.9762 26.0471 30.1074C26.5558 30.5789 27.0704 31.1086 27.5586 31.6042C27.8768 31.9277 28.9617 33.2398 29.2904 33.3249C29.4188 33.3583 29.5378 33.3301 29.6523 33.3596C29.7667 33.3891 29.8712 33.5135 30.065 33.5397C30.6432 33.6176 31.2233 33.249 31.2207 32.642C31.2187 32.164 30.7993 31.1256 30.6048 30.6509C29.6404 28.2925 27.8206 25.6191 25.9227 23.9017C25.5847 23.5952 24.3993 22.7631 24.2756 22.4409C24.2193 22.2956 24.2193 22.2327 24.2928 22.0926C24.4211 21.8484 25.2116 21.3933 25.4762 21.155C27.1511 19.649 28.8922 17.0444 29.9129 15.0461C30.0988 14.6821 30.6293 13.73 30.6075 13.3745C30.5513 12.4651 29.7965 11.6519 28.922 12.3479C28.1123 12.9921 27.1452 14.1864 26.3441 14.9485C24.7717 16.4447 23.1153 17.8877 21.4344 19.264C20.4766 20.0484 19.2773 20.8368 18.3869 21.6447C17.8597 22.1227 17.8087 22.7408 18.3048 23.2725L18.3062 23.2718Z" fill="white"/>
</g>
<defs>
<clipPath id="clip0_136_6844">
<rect width="13.2592" height="21.4642" fill="white" transform="matrix(-1 0 0 1 31.2207 12.0861)"/>
</clipPath>
</defs>
</svg>
