<svg width="56" height="53" viewBox="0 0 56 53" fill="none" xmlns="http://www.w3.org/2000/svg">
<ellipse cx="23.1426" cy="29.275" rx="23.1426" ry="22.9066" fill="#BB133E"/>
<path d="M27.9001 0.0520133C33.1545 -0.450802 41.6256 2.78338 45.9073 5.80207C60.9296 16.3953 55.9651 36.8491 42.3573 46.1494C33.2523 52.3718 19.1537 50.4916 12.1153 42.003C3.08811 31.1188 2.51757 13.8327 15.399 5.69073C18.6973 3.60584 24.0422 0.421942 27.9001 0.0520133ZM49.6294 37.0143C52.3372 30.968 54.9327 24.7546 53.1305 18.0187C51.5638 12.1537 45.9979 6.72868 40.5026 4.29721C37.668 3.04377 31.5461 1.06662 28.5521 1.3755C27.6393 1.47067 26.75 1.89268 25.8896 2.16743C25.8534 2.3937 26.212 2.3057 26.366 2.30391C28.4127 2.28236 30.2275 2.04891 32.3322 2.30211C36.1484 2.76183 43.3336 6.30309 46.2478 8.82614C52.156 13.9441 52.2339 23.0846 51.1146 30.2102C50.765 32.4333 50.0731 34.7391 48.9574 36.6929C48.8542 36.9659 49.5443 37.0718 49.6258 37.0143H49.6294ZM14.9462 10.2879C10.5975 14.4433 9.29881 16.8981 8.67393 22.9768C7.94944 30.0234 8.87498 35.47 13.7436 40.7944C18.1068 45.564 23.8303 47.8105 30.2964 48.0655C32.0532 48.1355 33.8826 47.3059 35.4819 46.602C43.9258 42.8901 49.6058 36.6803 50.4535 27.2651C50.9697 21.533 50.2597 13.5005 45.3639 9.70607C43.3716 8.16171 39.7437 6.41263 37.3855 5.37108C28.0124 1.23183 21.9538 3.58968 14.9444 10.2897L14.9462 10.2879ZM17.2048 6.60837C14.3322 7.74329 11.9794 10.225 10.362 12.8092C7.60169 17.2196 6.42439 22.5853 7.2974 27.7356C7.53467 27.7661 7.42419 27.4303 7.43143 27.2669C7.52018 25.0922 7.36442 23.1725 7.74296 20.9799C8.77717 14.9767 12.4666 10.252 17.203 6.60837H17.2048Z" fill="#1A1A1A"/>
<g clip-path="url(#clip0_136_6845)">
<path d="M36.7954 26.5508C36.7398 26.4913 36.6214 26.4723 36.5784 26.4225C36.5116 26.3452 36.4355 26.0794 36.3158 25.9223C34.3988 23.4074 31.3545 21.8464 29.0545 19.7152C28.5458 19.2438 28.0311 18.7141 27.5429 18.2184C27.2248 17.895 26.1399 16.5828 25.8111 16.4977C25.6828 16.4643 25.5637 16.4925 25.4493 16.463C25.3349 16.4336 25.2303 16.3092 25.0365 16.283C24.4584 16.205 23.8782 16.5737 23.8809 17.1806C23.8829 17.6586 24.3022 18.697 24.4967 19.1717C25.4612 21.5302 27.281 24.2035 29.1788 25.921C29.5169 26.2274 30.7023 27.0596 30.826 27.3817C30.8822 27.5271 30.8822 27.5899 30.8088 27.73C30.6805 27.9743 29.89 28.4293 29.6254 28.6677C27.9504 30.1736 26.2094 32.7782 25.1887 34.7765C25.0028 35.1406 24.4723 36.0926 24.4941 36.4481C24.5503 37.3576 25.3051 38.1708 26.1796 37.4748C26.9893 36.8305 27.9564 35.6362 28.7575 34.8741C30.3299 33.378 31.9863 31.9349 33.6671 30.5586C34.625 29.7742 35.8243 28.9859 36.7147 28.1779C37.2419 27.6999 37.2928 27.0818 36.7967 26.5502L36.7954 26.5508Z" fill="white"/>
</g>
<defs>
<clipPath id="clip0_136_6845">
<rect width="13.2592" height="21.4642" fill="white" transform="matrix(1 0 0 -1 23.8809 37.7366)"/>
</clipPath>
</defs>
</svg>
