<svg width="79" height="77" viewBox="0 0 79 77" fill="none" xmlns="http://www.w3.org/2000/svg">
<path d="M1.03355 0.208973C3.34922 -0.595374 11.9222 1.00372 19.1827 3.6078C30.0327 7.49435 39.9838 13.1296 50.5059 21.3587C62.8689 31.0553 71.1012 41.1992 75.0703 51.709C76.8135 56.3055 77.5889 59.4125 78.4175 65.2575C78.9181 68.7673 79.1343 73.2452 78.9139 74.8968C78.6684 76.6136 77.4455 77.4061 75.9819 76.7955C74.9243 76.3493 73.9484 74.939 72.8105 72.1336C70.0158 65.3191 69.0711 63.075 67.6084 59.9719C62.2565 48.5457 55.7057 39.3362 46.9998 30.9782C44.1129 28.1855 37.0681 22.3784 33.5312 19.8211C23.4937 12.5954 13.2445 7.11443 3.53683 3.74422C0.62989 2.74048 0.0994034 2.41566 0.0150223 1.51466C-0.0577164 0.737939 0.110664 0.533519 1.03355 0.208973Z" fill="#BB133E"/>
</svg>
