<svg width="67" height="66" viewBox="0 0 67 66" fill="none" xmlns="http://www.w3.org/2000/svg">
<path d="M66.1235 65.8209C64.1595 66.5103 56.8888 65.1397 50.7311 62.9076C41.5292 59.5763 33.0897 54.7461 24.1659 47.6926C13.6808 39.3812 6.69895 30.6864 3.33278 21.678C1.85441 17.7382 1.19678 15.075 0.493983 10.065C0.0694318 7.05658 -0.113921 3.21837 0.0729919 1.80272C0.281238 0.331223 1.31835 -0.348076 2.55967 0.175308C3.45659 0.557747 4.2843 1.76656 5.24932 4.17118C7.61955 10.0122 8.42071 11.9357 9.66119 14.5955C14.2002 24.3894 19.756 32.2832 27.1394 39.4473C29.5878 41.841 35.5625 46.8185 38.5622 49.0104C47.075 55.204 55.7673 59.9019 64.0004 62.7907C66.4658 63.651 66.9157 63.9294 66.9873 64.7017C67.049 65.3675 66.9062 65.5427 66.1235 65.8209Z" fill="#F39200"/>
</svg>
