<svg width="80" height="82" viewBox="0 0 80 82" fill="none" xmlns="http://www.w3.org/2000/svg">
<g clip-path="url(#clip0_2049_32440)">
<path d="M41.9404 42.0029C36.1004 42.0029 30.3319 42.1218 24.5701 41.968C18.9232 41.8184 13.2808 41.4351 7.64251 41.0612C6.04533 40.8987 4.46234 40.6179 2.90647 40.2214C2.2675 40.0791 1.66084 39.8179 1.11796 39.4513C-0.155783 38.5794 -0.0594455 37.0511 1.26334 36.2619C1.41603 36.1708 1.57847 36.0955 1.73812 36.0177C14.6957 29.6166 27.6216 23.1484 40.6214 16.8358C50.3564 12.1083 60.1783 7.56078 69.9821 2.97734C71.9706 2.04754 74.0263 1.24433 76.0962 0.510877C78.4663 -0.328597 80.052 0.951314 79.674 3.43765C79.2538 6.20301 78.6524 8.94077 78.1185 11.6883C75.7787 23.7315 73.5404 35.7963 71.0461 47.8073C69.8371 53.6272 68.1188 59.3392 66.6813 65.1127C65.8329 68.5204 65.1745 71.9777 64.25 75.3628C63.7188 77.122 63.0235 78.8268 62.1727 80.4548C61.6016 81.619 60.8336 81.7103 59.6364 81.1551C57.044 79.9557 55.452 77.8488 54.4451 75.2843C51.5314 67.8647 48.0941 60.6537 45.732 53.0123C44.5894 49.3213 43.2218 45.7005 41.9404 42.0029ZM74.4555 5.76636C51.9074 15.5827 30.1357 26.3699 8.223 36.8997C8.79608 37.0811 9.39201 37.1791 9.99274 37.191C17.0157 37.2283 24.0397 37.3141 31.062 37.2516C35.0472 37.2168 39.0298 36.914 43.0148 36.7669C44.6416 36.7069 45.7974 37.5139 45.922 39.0289C46.1025 41.2296 46.988 43.1712 47.8051 45.1428C51.5428 54.1604 55.2994 63.1704 59.0747 72.172C59.1585 72.3429 59.26 72.5044 59.3769 72.654C65.772 50.8123 70.5115 28.541 74.4555 5.76744V5.76636Z" fill="#3E333D"/>
</g>
<defs>
<clipPath id="clip0_2049_32440">
<rect width="80" height="81.6107" fill="white"/>
</clipPath>
</defs>
</svg>
