<svg width="80" height="80" viewBox="0 0 80 80" fill="none" xmlns="http://www.w3.org/2000/svg">
<path d="M47.5771 12.1348C49.9408 12.1348 52.1091 12.1167 54.2771 12.1402C56.2119 12.1605 58.1687 12.0341 60.076 12.3124C64.1595 12.9092 66.4936 15.6219 66.9084 20.2366C67.177 23.2274 67.1752 26.2486 67.3018 29.4401C68.3029 29.6289 69.294 29.8782 70.2711 30.1872C74.6366 31.7956 77.9402 34.7304 79.3945 39.7852C80.8389 44.813 79.6979 48.9788 75.994 52.2456C73.8494 54.1373 71.4751 55.5416 68.5141 55.984C68.7304 58.1163 68.9732 60.1732 69.1407 62.2405C69.3525 64.854 69.5135 67.4728 69.671 70.0908C69.6923 70.6166 69.663 71.1431 69.5836 71.662C68.945 76.4004 66.9469 78.4789 62.6419 78.6399C58.5263 78.7936 54.404 78.7256 50.2874 78.8666C47.293 78.9696 45.4094 77.4831 44.3629 74.393C43.8247 72.8665 43.1968 71.3818 42.4835 69.9482C40.0387 64.8801 34.2985 64.5246 30.9169 67.5373C28.5736 69.6258 27.2147 72.4183 26.3429 75.551C26.2155 75.9892 26.1317 76.4423 26.0932 76.9012C25.99 78.352 25.2678 79.2383 24.0432 79.4812C21.911 79.9039 19.5408 80.0443 17.403 79.9882C13.4137 79.8837 9.6433 79.8498 5.66053 79.4804C5.31154 79.4289 4.9675 79.3413 4.63318 79.2183C1.32927 78.1883 0.0338432 76.3966 0.00942589 72.5725C-0.0215256 67.7072 0.0342194 62.8416 0.0510708 57.9764C0.0531342 57.386 0.0599264 56.7949 0.0403237 56.205C-0.0202036 54.3925 0.622651 53.5861 2.28612 53.4378C3.62977 53.3163 4.97341 53.1834 6.31946 53.1046C10.5997 52.8548 14.0139 44.9925 10.9521 40.1261C9.71404 38.159 7.8594 37.1517 5.6921 36.9361C4.69856 36.8369 3.70392 36.7405 2.71382 36.6071C2.3211 36.5902 1.95024 36.401 1.68143 36.0806C1.41262 35.7602 1.26759 35.3343 1.27775 34.8953C1.27534 30.1765 0.624223 25.4373 1.57581 20.745C1.6666 20.2973 1.77847 19.8526 1.90813 19.4171C2.85352 16.2441 4.77869 14.2787 7.77652 13.9758C10.1694 13.7345 12.587 13.7813 14.994 13.7375C16.8067 13.7044 18.6205 13.7306 20.5079 13.7306C20.6111 13.3824 20.7266 13.0188 20.8312 12.6518C22.6848 6.15349 26.7267 2.0846 32.4957 0.432744C37.7115 -1.06077 44.4193 1.19522 46.6963 9.02099C47.0041 10.0756 47.2965 11.1386 47.5771 12.1348ZM4.81542 32.3832C5.09726 32.7195 5.36027 32.8456 5.70521 32.8456C12.9702 32.826 17.7301 39.4781 16.7909 47.2093C16.4653 49.8912 15.3011 52.1607 13.9767 54.3487C12.8664 56.1516 11.2519 57.4917 9.38641 58.1589C7.48805 58.9514 5.79994 58.6535 3.82238 58.1589C3.77512 58.4418 3.82454 59.6746 3.82238 59.9625C4.18795 64.1459 4.08816 67.8425 4.50119 72.0206C4.64288 73.451 4.96203 73.7743 6.30601 73.953C8.46608 74.2401 10.6326 74.5621 12.8026 74.6379C16.079 74.7532 19.3607 74.6678 22.6498 74.6678C22.6763 74.6321 22.7302 74.591 22.745 74.5337C22.8626 74.094 22.9624 73.6497 23.0865 73.2116C24.1908 69.3145 25.8357 65.8021 28.871 63.3239C31.4939 61.1832 34.4206 60.1759 37.6674 60.7405C43.2387 61.7097 46.3965 65.7045 48.1411 71.3956C48.3846 72.1893 48.5617 73.0098 48.7814 73.8619C49.4538 73.8619 50.0346 73.8807 50.6145 73.8588C52.9654 73.7697 55.317 73.6859 57.6669 73.5652C59.2523 73.4837 60.8395 73.3907 62.4183 73.2166C64.0416 73.0375 64.36 72.717 64.413 70.896C64.467 69.0624 64.3614 67.2203 64.2795 65.3847C64.1506 62.5022 63.9927 59.6198 63.8249 56.7373C63.8111 56.0228 63.72 55.3133 63.5536 54.6235C62.9221 52.4212 63.3847 51.2367 65.3491 50.5811C66.6405 50.1502 67.9765 49.8893 69.2892 49.5353C71.0156 49.0879 72.6017 48.1271 73.8797 46.7551C74.3137 46.3069 74.6586 45.7623 74.8925 45.1559C75.126 44.5494 75.2429 43.8949 75.236 43.235C75.2904 41.381 74.8151 39.5562 73.879 38.0245C72.3056 35.5564 70.1345 34.0686 67.5731 33.2769C67.0153 33.1592 66.4389 33.2242 65.9134 33.4637C64.2861 34.117 63.2822 33.5789 62.9923 31.6392C62.8011 30.2765 62.6965 28.9003 62.6793 27.5211C62.6333 25.3535 62.7457 23.1805 62.6649 21.0156C62.5487 17.9025 61.6573 16.8041 58.9549 16.1899C58.4944 16.0864 58.0267 16.0278 57.5569 16.015C54.7348 15.9351 51.9117 15.8901 49.0899 15.7955C48.3172 15.7698 47.5771 16.0789 46.8237 16.0789C45.6477 15.9537 44.8263 15.6249 44.0745 14.3973C43.6714 13.6763 43.7726 13.7175 43.4071 12.8589C42.8633 11.5813 42.6135 11.0014 42.2665 9.68127C41.696 7.50941 40.3874 6.07779 38.5282 5.26877C35.7364 4.05351 32.9913 4.18111 30.3752 5.84526C26.8075 8.11474 25.8024 11.2666 23.8999 15.7411C23.5904 17.1705 22.2919 17.7012 21.218 18.1618C20.3961 18.2078 18.6864 18.5066 17.0499 18.5066C13.7768 18.7087 12.3083 18.5066 9.38641 18.5066C7.41239 18.7937 5.98068 19.1903 5.44006 21.2965C4.48365 25.0268 4.70611 29.4204 4.81542 32.3832Z" fill="#3E333D"/>
</svg>
