<svg width="80" height="82" viewBox="0 0 80 82" fill="none" xmlns="http://www.w3.org/2000/svg">
<g clip-path="url(#clip0_2049_32416)">
<path d="M79.0107 26.8355C78.7629 25.8292 78.2514 25.0566 77.571 24.6599C77.3125 24.5083 77.0258 24.4118 76.7284 24.3764C76.4314 24.341 76.1298 24.3674 75.8434 24.4541C74.9215 24.7176 73.8871 25.5348 74.1991 27.9323C74.4429 29.8086 74.6452 31.7257 74.8412 33.5775C74.9247 34.3678 75.0095 35.1578 75.0951 35.9482C74.782 41.205 74.4352 45.9445 73.3723 50.664C71.9838 56.8285 69.1148 62.6393 64.8456 67.9341C61.383 72.2289 56.9583 74.8904 51.3185 76.0702C46.6511 77.0126 41.8636 77.2001 37.1374 76.6264C33.2953 76.1861 28.7908 75.4866 24.5113 73.6342C19.5566 71.4896 16.0498 68.9571 13.4743 65.6638C9.66358 60.7774 6.93968 55.1275 5.48594 49.095C4.5018 45.2647 4.23949 41.2835 4.71268 37.3567C5.43774 31.5781 7.40029 25.8995 10.8885 19.4847C12.1163 17.2205 13.7758 15.2212 15.7723 13.6006C20.6318 9.64875 25.4446 6.93492 30.4855 5.30351C34.0703 4.14313 38.0269 3.77838 42.5857 4.18877C45.6153 4.46147 48.5592 5.3689 51.4062 6.24672C52.0441 6.44326 52.6824 6.63976 53.3218 6.83002L53.6162 6.91966C54.161 7.10562 54.7231 7.23572 55.2938 7.30794C55.6724 7.3414 56.4584 7.1305 56.608 6.68068C56.6788 6.42357 56.6931 6.15401 56.649 5.89087C56.6053 5.62773 56.5045 5.37741 56.3543 5.15746C55.9683 4.68037 55.4693 4.30812 54.903 4.07473C52.9997 3.28173 51.2786 2.5762 49.4832 1.97614C46.0655 0.829473 42.4834 0.254336 38.8801 0.273665C33.1008 0.322128 27.43 1.85416 22.4064 4.72407C20.5512 5.76378 18.9117 6.72999 17.394 7.67801C12.9265 10.4686 9.68012 13.7371 7.46926 17.6702C4.81588 22.3894 2.98295 26.7385 1.86503 30.9649C0.539826 35.9759 0.0637246 39.883 0.320974 43.6324C0.767071 50.1224 2.82619 56.5483 6.61832 63.2773C7.98447 65.7621 9.64916 68.0694 11.575 70.147C15.6024 74.4182 20.7052 77.44 27.1716 79.3832C32.1447 80.8832 37.309 81.646 42.5015 81.6475C44.7365 81.6469 46.9693 81.5071 49.1873 81.2294C57.891 80.1413 64.5925 76.356 69.6718 69.6572C73.7363 64.297 76.4287 58.9327 77.9029 53.2595C79.5829 46.7912 80.2068 39.7465 79.8107 31.7224C79.7039 30.071 79.436 28.4342 79.0107 26.8355Z" fill="#3E333D"/>
<path d="M46.194 15.4876C46.5509 15.5249 46.9075 15.5628 47.2644 15.5963C47.5847 15.6262 48.4391 15.7065 48.7246 14.8722C48.8459 14.558 48.8415 14.209 48.7124 13.8979C48.5836 13.5868 48.3397 13.3378 48.0322 13.2029C47.4681 12.9163 46.8703 12.7014 46.2529 12.5632C43.4291 11.9661 40.528 11.8322 37.6617 12.1667C32.3148 12.7979 27.8253 14.188 23.9366 16.4171C18.7702 19.3782 15.574 23.1586 14.1656 27.9761C13.9499 28.7147 13.66 29.4572 13.4036 30.1123C11.1968 35.6051 10.6467 41.6286 11.8218 47.4332C12.6521 51.5359 13.6767 54.848 15.9777 57.6781C21.2609 64.1756 27.2692 67.8416 34.3457 68.8858C35.8713 69.111 37.4389 69.1863 38.9518 69.2589C39.6412 69.292 40.3537 69.3264 41.0511 69.3745H41.0716H41.0791C46.5464 69.261 51.9139 67.8805 56.7621 65.3402C57.9246 64.7586 58.9958 64.0083 59.9406 63.1135C62.9283 60.1646 64.8111 57.3689 65.8651 54.3158C66.0777 53.7002 66.3585 53.0888 66.6303 52.4974C66.7136 52.3161 66.7971 52.1348 66.8786 51.9529C69.3134 46.5351 69.2917 40.6119 66.8117 33.845C66.6044 33.276 66.2803 32.7575 65.8603 32.3232C65.5903 32.02 65.2441 31.7954 64.8578 31.6729C64.4715 31.5508 64.0596 31.5352 63.6655 31.6281C63.2899 31.7488 62.9542 31.9707 62.6951 32.2694C62.4361 32.5681 62.2633 32.9322 62.1958 33.3226C62.0296 34.0328 62.1527 34.8235 62.2612 35.5212L62.2859 35.678C62.4123 36.5011 62.5655 37.3321 62.7136 38.1361C62.9649 39.5008 63.2251 40.9124 63.358 42.3061C63.6022 44.608 63.295 46.935 62.4626 49.0939C61.7218 51.038 60.8831 52.943 59.9499 54.8017C58.4067 57.7886 56.7171 59.7455 54.6318 60.9546C52.9985 61.9026 51.1546 62.5765 49.3711 63.2282L48.6684 63.4859C45.516 64.6484 42.1241 64.6508 38.8245 64.6526H38.7992C33.725 64.6526 29.8606 63.5269 26.64 61.1108C26.1154 60.7169 25.5637 60.3483 25.0302 59.9916C24.4395 59.5968 23.8289 59.1888 23.262 58.7509C20.1893 56.3767 18.1817 53.7032 17.1247 50.5742C15.8804 46.8944 14.5781 42.013 15.5554 36.8844C15.8768 35.3476 16.2762 33.8288 16.7521 32.3333C17.0415 31.3689 17.3403 30.3716 17.5924 29.3781C18.6232 25.3199 21.1217 22.1766 25.2311 19.7689C30.7745 16.5207 36.972 15.0117 43.6349 15.274C44.4861 15.3077 45.3536 15.3992 46.194 15.4876Z" fill="#3E333D"/>
<path d="M31.7839 30.0731C33.1305 29.2969 34.5589 28.674 36.0429 28.216C37.5736 27.7584 39.1843 27.449 40.7418 27.1497C41.1433 27.0724 41.5448 26.9953 41.9451 26.9156C42.4551 26.8143 43.226 26.6608 43.2417 25.7555C43.2539 25.0452 42.7843 24.5688 41.9864 24.4807C41.5671 24.4335 41.1451 24.4169 40.7234 24.4308C37.8915 24.5377 35.0431 25.1987 31.7601 26.512C28.9005 27.6104 26.5709 29.7713 25.254 32.5471C22.8814 37.4363 22.7409 42.6656 24.8375 48.0897C25.4279 49.6162 26.316 51.5651 27.9579 53.1004C31.6367 56.5394 36.1122 58.2825 41.2614 58.2825C41.5055 58.2825 41.7503 58.2894 41.9953 58.2972C42.2208 58.3046 42.4498 58.3124 42.6793 58.3124C42.9538 58.3145 43.2283 58.2995 43.5011 58.2676C47.0892 57.8226 49.8984 56.6144 52.0896 54.5741C56.2035 50.7435 58.064 45.6136 57.6212 39.3266C57.5585 38.4404 57.1243 37.5644 56.7415 36.792C56.3956 36.0949 55.6046 35.5626 54.8156 35.9524C54.2814 36.2804 53.8909 36.7992 53.7229 37.4046C53.6203 37.8266 53.5849 38.2624 53.6188 38.6952C53.6242 38.9064 53.6292 39.1059 53.6188 39.3009C53.5924 39.7812 53.5805 40.2696 53.5689 40.7424C53.5709 41.8287 53.4868 42.9135 53.3176 43.9861C52.2615 49.6231 49.0981 52.9331 43.9156 53.8247C40.2645 54.4519 36.6719 53.7691 33.2391 51.7936C31.9153 51.032 30.5696 50.1318 29.6929 48.7121C27.1305 44.5628 26.4973 40.1453 27.8107 35.582C28.5521 32.9996 29.8904 31.1457 31.7839 30.0731Z" fill="#3E333D"/>
<path d="M66.6765 10.9034C66.7202 10.6716 66.7672 10.4399 66.8142 10.2084C66.9769 9.48458 67.0935 8.75113 67.1634 8.01246C67.2603 6.70572 66.6578 6.24157 65.6535 5.916C65.2669 5.779 64.8508 5.74773 64.4481 5.82529C64.0452 5.90286 63.6704 6.08649 63.3614 6.35746C60.5174 8.74304 57.6496 11.1606 54.8374 13.5426C53.8263 14.4001 53.4694 15.4978 53.7222 16.9966C53.884 17.9601 53.9845 18.9551 54.0814 19.9174C54.1555 20.6489 54.2319 21.4048 54.3348 22.1473C54.4154 22.7306 54.2515 23.1261 53.7305 23.6061L53.4976 23.8203C52.0594 25.1443 50.5727 26.5132 49.1756 27.929C46.6878 30.4497 44.1793 33.0321 41.751 35.5294C40.5983 36.7161 39.4444 37.9022 38.2896 39.0876C37.464 39.9344 37.6377 40.5864 37.9292 40.9843C38.0368 41.1444 38.1816 41.2755 38.3512 41.3666C38.5207 41.4574 38.7098 41.5052 38.9019 41.5058C39.2948 41.4866 39.6722 41.3463 39.9824 41.1034C40.5231 40.7005 41.0352 40.2603 41.5152 39.7859C44.2961 37.1498 47.0753 34.5112 49.8527 31.8709L54.3672 27.5825C54.8219 27.1515 55.1464 26.9433 55.7234 26.9672C58.1864 27.0413 60.6899 27.0395 63.1113 27.0368C63.7986 27.0356 64.4859 27.0356 65.1735 27.0368H65.1791C65.6029 27.0478 66.0234 26.9626 66.4098 26.7874C66.7961 26.6122 67.1378 26.3517 67.4096 26.0252C69.3724 23.7752 71.404 21.5183 73.3067 19.4144C74.2411 18.3813 75.0498 17.3045 74.6875 15.4972C74.3604 13.8723 74.1412 13.1534 72.3211 13.1432C71.3709 13.1417 70.4074 13.1922 69.4759 13.2454C68.9486 13.2752 68.4214 13.3052 67.8938 13.3249C67.4679 13.3404 67.0456 13.3371 66.5555 13.3329L66.1831 13.3299C66.2215 13.1429 66.2596 12.9596 66.2973 12.7798C66.4327 12.1281 66.5599 11.5166 66.6765 10.9034ZM71.073 16.8771L71.1467 16.8824L66.0517 23.3576H57.5018C57.4771 23.271 57.4501 23.1829 57.423 23.0936C57.2984 22.7399 57.2187 22.3719 57.1851 21.9983C57.1473 21.0096 57.1491 19.9998 57.1506 19.0234C57.1506 18.4377 57.1527 17.852 57.1455 17.2669C57.1384 16.6893 57.2222 16.2278 57.6529 15.8544C59.263 14.4584 60.8675 13.0549 62.5704 11.565L64.0083 10.3082C63.9937 10.5313 63.9815 10.6935 63.9574 10.8497C63.8887 11.2926 63.8117 11.7344 63.7347 12.1762C63.5886 13.0169 63.4373 13.8864 63.3457 14.7529C63.2648 15.5169 63.3712 16.0372 63.6808 16.3881C63.9904 16.7391 64.4797 16.906 65.2297 16.9198C66.3253 16.9407 67.4385 16.9093 68.5139 16.8798C69.097 16.8639 69.6802 16.8481 70.2631 16.8397C70.5023 16.8391 70.7399 16.855 71.0727 16.8783L71.073 16.8771Z" fill="#3E333D"/>
</g>
<defs>
<clipPath id="clip0_2049_32416">
<rect width="80" height="81.8391" fill="white"/>
</clipPath>
</defs>
</svg>
