<svg width="80" height="72" viewBox="0 0 80 72" fill="none" xmlns="http://www.w3.org/2000/svg">
<g clip-path="url(#clip0_2049_32425)">
<path d="M75.5045 51.4084C74.4391 50.7308 73.3021 50.1708 72.1143 49.7385C71.5696 49.5164 71.0082 49.2871 70.4447 49.0311L70.3254 47.3155C70.2238 45.8627 70.115 44.3086 70.0123 42.7524C69.9428 41.6981 69.8802 40.6424 69.8176 39.5882C69.6892 37.4329 69.556 35.2039 69.3685 33.0162C69.2252 31.3414 69.0109 31.156 67.2993 31.1923C64.7275 31.2504 62.1132 31.3286 59.5849 31.404C56.7949 31.4877 53.9097 31.5739 51.0722 31.6333C48.964 31.6773 46.8826 31.6679 44.6781 31.6554C43.7389 31.6506 42.7904 31.6458 41.8235 31.6451L42.1629 20.656C47.7049 19.8009 51.0082 16.5225 51.9835 10.9094C52.7191 6.67455 50.6892 3.15436 46.6861 1.72235C45.1156 1.14511 43.5 0.698399 41.8551 0.38684C39.0489 -0.120933 36.8242 0.298284 35.2423 1.63206C32.698 3.77902 31.1032 6.04986 30.3648 8.57456C29.1794 12.6333 30.4288 16.1811 33.8827 18.5647C34.5508 18.996 35.2562 19.3671 35.9908 19.6736C36.2983 19.812 36.6057 19.9504 36.9066 20.1001C37.2196 20.2534 37.5362 20.3952 37.7024 20.4685V32.1162C36.172 32.2255 34.6636 32.3311 33.1773 32.433C29.6128 32.68 26.2461 32.9131 22.8298 33.194C19.7689 33.4444 16.8771 33.4106 13.8733 33.7088C12.7264 33.8227 11.3458 33.9389 10.1993 34.0508C8.86507 34.1801 8.17693 35.2485 8.1724 36.4993C8.16754 37.869 8.19049 38.997 8.24545 40.0496C8.3731 42.5016 8.51467 44.953 8.65553 47.3916L8.8138 50.1449C4.74214 52.2787 2.14562 55.1832 0.877799 59.0209C-0.0310701 61.7722 0.10214 64.5207 1.2531 66.7569C1.80406 67.806 2.56259 68.7333 3.48308 69.4832C4.4036 70.2335 5.46708 70.7907 6.60962 71.1214C7.9194 71.5437 9.28698 71.762 10.6639 71.7686C13.4201 71.7492 16.0941 70.8329 18.2778 69.1605C22.9734 65.6939 23.2628 59.8991 21.9693 55.6318C20.9133 52.1473 18.4135 50.1148 14.5401 49.5908C14.1484 49.5378 13.7557 49.4908 13.3376 49.441L12.8712 49.3846C12.8712 49.3846 10.5866 38.5771 11.7842 37.1871C12.9819 35.7971 35.4499 35.7342 38.0009 36.1451L37.3473 49.1639L37.0315 49.2815C36.7264 49.3953 36.428 49.5067 36.1271 49.6153C33.2642 50.6447 30.8447 52.6229 29.275 55.2168C28.2322 56.9307 27.7389 58.9199 27.8606 60.9195C27.9823 62.9192 28.7133 64.8344 29.9564 66.4106C32.93 70.2155 38.5991 71.8537 43.7428 70.3964C48.0259 69.1826 51.149 65.2647 51.6996 60.4152C52.2777 55.3226 50.237 51.9308 45.461 50.0453C44.8889 49.8194 44.2892 49.6458 43.7094 49.4777C43.4395 49.3998 43.1692 49.3217 42.9017 49.2379L41.6843 48.8575L41.2322 35.8549C46.6847 35.2195 64.9951 33.942 65.7034 34.9796C66.1366 35.6141 65.9515 38.1219 65.9515 38.1219C65.9515 41.3308 65.9515 44.5078 65.9463 47.6845C65.94 47.9623 65.9184 48.2393 65.8816 48.5147C65.8683 48.633 65.8541 48.7568 65.8412 48.8855L65.509 48.9962C65.2155 49.0944 64.9223 49.1919 64.6287 49.2884C62.3793 50.0117 60.3699 51.3296 58.8158 53.1016C57.6993 54.4215 56.9104 55.9836 56.5125 57.6622C56.1146 59.3412 56.1191 61.0894 56.5254 62.7659C57.0763 64.8441 58.5776 67.6147 62.5939 69.0111C67.733 70.7969 72.5518 69.7852 76.5285 66.0841C77.6009 65.1025 78.4416 63.8967 78.9901 62.5539C79.5389 61.2111 79.7821 59.7642 79.7024 58.3167C79.5668 56.3952 78.7247 53.6374 75.5045 51.4084ZM73.7682 63.0759C72.0621 64.8417 69.8377 65.714 66.5591 65.9039C66.429 65.888 66.291 65.8738 66.1473 65.8586C65.8036 65.824 65.4482 65.7863 65.0937 65.7182C62.876 65.2931 61.181 64.1502 60.3212 62.5013C59.4614 60.8524 59.5003 58.8196 60.4283 56.7754C61.5709 54.2597 63.5125 52.5938 66.0433 51.9581C66.3563 51.8827 66.6774 51.8457 66.9995 51.8484C68.0951 51.8955 69.1716 52.15 70.171 52.5987C71.5417 53.2493 72.78 54.1459 73.8231 55.2437C76.0423 57.4509 76.02 60.7452 73.7682 63.0759ZM39.8948 52.7626C40.4513 52.9702 41.0301 53.1497 41.5887 53.324C42.4896 53.5831 43.372 53.9027 44.2294 54.2801C46.3901 55.2942 47.3536 56.8639 47.3536 59.3703C47.3536 63.6594 44.8468 66.4795 40.4739 67.1104C36.4235 67.6936 32.5734 65.4549 31.5195 61.9012C31.2437 61.0821 31.1523 60.2125 31.2518 59.3544C31.3513 58.4958 31.6392 57.6698 32.0952 56.9345C32.7358 55.9594 33.4716 55.0493 34.2921 54.2178C35.4423 53.003 36.6725 52.4001 38.0162 52.4001C38.6593 52.4081 39.2955 52.5309 39.8948 52.7626ZM36.1073 4.67284C36.564 4.43583 38.0107 4.03839 38.4721 3.80768C38.6074 3.80644 39.3762 3.49971 39.5073 3.53171C41.3949 4.00946 43.2516 4.60125 45.0666 5.30377C47.1755 6.12458 48.1904 7.80632 48.0023 10.1681C47.6489 14.5904 44.4231 17.37 39.5814 17.4264C39.4189 17.3814 39.2155 17.3344 38.9838 17.2808C38.188 17.1191 37.4099 16.8814 36.66 16.571C33.2183 15.0255 32.0635 12.1259 33.4914 8.61537C34.3835 6.41686 34.627 5.9068 36.1073 4.67284ZM7.78736 54.5679C8.70249 53.9992 9.76371 53.7066 10.8427 53.7249C11.8883 53.7325 12.9206 53.958 13.8733 54.3866C15.995 55.3271 17.4361 57.0196 17.7321 58.913C17.8096 59.4073 17.842 59.9054 17.8677 60.3056C17.8778 60.4574 17.8868 60.593 17.8966 60.7058C17.8618 63.916 16.3661 66.173 13.5651 67.2325C11.1195 68.1574 9.07154 68.1965 7.12127 67.3556C4.84719 66.375 3.7171 64.6044 3.85414 62.2364C4.00927 59.5481 5.16684 57.1344 7.39258 54.8581C7.497 54.7605 7.61188 54.6751 7.73519 54.6024L7.78736 54.5679Z" fill="#3E333D"/>
</g>
<defs>
<clipPath id="clip0_2049_32425">
<rect width="80" height="71.9463" fill="white"/>
</clipPath>
</defs>
</svg>
