<svg width="1440" height="850" viewBox="0 0 1440 850" fill="none" xmlns="http://www.w3.org/2000/svg">
<g clip-path="url(#clip0_1_3)" transform="translate(-16, 0)">
<path d="M775.199 370.845C761.148 380.438 759.18 395.027 758.015 409.623C754.856 449.236 757.864 488.97 756.258 528.592C755.333 551.396 748.096 572.559 731.183 589.176C726.231 594.041 720.571 597.93 714.23 600.906C703.517 605.935 696.469 605.447 690.065 598.818C683.006 591.512 681.585 580.159 686.731 571.011C688.964 567.041 691.585 563.44 696.173 561.698C704.767 558.434 708.98 551.449 711.354 543.059C713.76 534.558 715.437 525.977 715.405 517.048C715.29 484.507 715.243 451.965 715.434 419.425C715.498 408.581 714.261 397.882 710.678 387.82C704.277 369.849 692.494 364.514 671.007 367.258C651.251 369.781 645.275 383.851 643.369 403.467C639.755 440.643 642.098 477.994 641.989 515.265C641.961 525.062 643.016 535.032 646.879 544.618C650.224 552.921 655.443 558.524 663.102 562.555C672.445 567.472 676.717 583.706 671.515 593.662C666.362 603.523 655.701 606.386 644.366 600.865C618.308 588.173 606.434 565.467 602.196 538.389C596.256 500.428 599.215 462.065 599.51 423.901C599.669 403.373 601.485 382.652 611.167 363.448C621.708 342.54 637.996 329.748 660.724 325.605C687.845 320.662 712.84 325.095 733.728 344.684C734.574 345.478 735.644 346.033 737.214 347.116C743.567 341 749.763 334.624 758.067 331.228C786.343 319.665 814.197 319.985 839.861 337.319C857.476 349.217 866.416 367.833 869.681 388.451C876.337 430.484 871.506 472.896 872.56 515.128C873.04 534.325 869.483 552.901 860.118 570.17C851.433 586.184 839.245 597.813 821.826 603.467C803.437 609.436 784.983 610.407 766.512 603.53C752.757 598.408 747.52 577.951 757.298 566.913C762.851 560.644 769.753 559.311 777.447 562.085C785.914 565.138 794.438 566.297 803.364 564.35C820.101 560.699 825.605 548.062 828.657 533.301C830.265 525.523 830.39 517.655 830.103 509.789C829.124 483.016 832.48 456.313 831.451 429.563C831.004 417.94 830.506 406.122 828.075 394.813C822.578 369.246 799.658 359.064 775.199 370.845Z" fill="white"/>
</g>
<defs>
<clipPath id="clip0_1_3">
<rect width="1440" height="850" fill="white"/>
</clipPath>
</defs>
</svg>
