<?xml version="1.0" encoding="UTF-8"?>
<svg version="1.1" xmlns="http://www.w3.org/2000/svg" width="353" height="358">
<path d="M0 0 C0.86061035 0.20399414 1.7212207 0.40798828 2.60791016 0.61816406 C43.23685995 10.51080575 81.12211787 29.47696207 111 59 C111.85980469 59.8353125 112.71960938 60.670625 113.60546875 61.53125 C131.22374427 79.68171508 142.09288528 104.4128243 147 129 C147.27710815 130.38517822 147.27710815 130.38517822 147.55981445 131.79833984 C149.2632818 141.40768165 149.35708111 150.89916569 149.3125 160.625 C149.31034485 161.46893311 149.3081897 162.31286621 149.30596924 163.18237305 C149.2560146 175.35744366 148.92993126 187.12759212 146 199 C145.70198486 200.26408691 145.70198486 200.26408691 145.39794922 201.55371094 C137.38765595 234.97493454 122.73725635 266.95903973 100 293 C99.35546875 293.7528125 98.7109375 294.505625 98.046875 295.28125 C95.74719895 297.90458416 93.3902843 300.45878733 91 303 C90.19731689 303.85368164 90.19731689 303.85368164 89.37841797 304.72460938 C63.16937096 332.36827218 29.68086573 348.71284188 -8 354 C-8.91136719 354.13148438 -9.82273438 354.26296875 -10.76171875 354.3984375 C-51.75558121 359.16067584 -96.90527626 348.33462299 -129.875 323.0625 C-151.52401024 305.62906336 -167.84584456 285.46683258 -181 261 C-181.36722168 260.31776367 -181.73444336 259.63552734 -182.11279297 258.93261719 C-204.04034996 217.3433851 -210.45953778 164.96069054 -196.62207031 119.81494141 C-185.45778924 85.37819762 -163.73155487 57.54025009 -134 37 C-133.09540039 36.37448242 -132.19080078 35.74896484 -131.25878906 35.10449219 C-90.39585348 7.03414063 -50.66098334 -12.11200156 0 0 Z M-62 12 C-62 12.33 -62 12.66 -62 13 C-60.88044922 12.89171875 -60.88044922 12.89171875 -59.73828125 12.78125 C-50.6661504 12.03644564 -41.60095279 11.82940781 -32.5 11.75 C-30.70429565 11.7180957 -30.70429565 11.7180957 -28.87231445 11.68554688 C-14.82059615 11.63204927 -1.93130001 14.97680377 11.3125 19.4375 C12.26787659 19.75738892 12.26787659 19.75738892 13.24255371 20.08374023 C49.91307564 32.44122245 88.74093062 50.42996929 107.23046875 86.21484375 C128.61005112 129.33378478 132.33473246 189.85537768 117 235.5625 C116.26651873 237.66639567 115.51880559 239.76435505 114.76171875 241.85986328 C113.44732154 245.55281389 112.22630843 249.27704502 111 253 C112.32 253.33 113.64 253.66 115 254 C115.37511719 252.83855469 115.75023437 251.67710937 116.13671875 250.48046875 C117.56980181 246.17786143 119.1219729 241.92419166 120.70703125 237.67578125 C131.75062672 208.48741843 131.75062672 208.48741843 138 178 C138.10957031 177.14277344 138.21914063 176.28554687 138.33203125 175.40234375 C142.24031333 140.01936335 132.91090506 105.82199124 111 77.75 C109.67893474 76.15641637 108.34560336 74.57291888 107 73 C106.32582031 72.20335938 105.65164063 71.40671875 104.95703125 70.5859375 C89.43375093 52.77233713 70.88999221 39.82423583 50 29 C48.83855469 28.38640625 47.67710937 27.7728125 46.48046875 27.140625 C18.3058965 13.10163814 -31.84866659 -4.83245171 -62 12 Z M-92 35 C-93.38638672 35.75796875 -93.38638672 35.75796875 -94.80078125 36.53125 C-116.39137565 48.92776353 -135.75913152 67.45550499 -151 87 C-151.8877658 88.06618931 -152.77855021 89.1298703 -153.671875 90.19140625 C-175.4423287 116.39000499 -181.23720972 148.24461962 -181.1875 181.5 C-181.18656342 182.30501953 -181.18562683 183.11003906 -181.18466187 183.93945312 C-181.12198747 208.73751747 -178.10388829 231.51898638 -167 254 C-166.70254883 254.62181152 -166.40509766 255.24362305 -166.09863281 255.88427734 C-148.96749756 291.48925845 -116.13960075 319.54937843 -79.06103516 332.68701172 C-49.59768479 342.71328179 -15.69487376 345.45778257 12.8125 331.71875 C29.99026614 323.15822377 46.65069787 312.81268395 61 300 C61.49290527 299.56059082 61.98581055 299.12118164 62.49365234 298.66845703 C66.04160047 295.49316951 69.52975155 292.25993036 73 289 C73.63550781 288.41863281 74.27101563 287.83726562 74.92578125 287.23828125 C100.13837637 263.34949781 115.99556849 227.67214595 117.12597656 193.15307617 C118.01279226 150.65690493 115.94462709 101.22763361 84.796875 68.69921875 C77.97447519 62.15920304 70.19727815 57.55871968 62 53 C61.30825684 52.60699707 60.61651367 52.21399414 59.90380859 51.80908203 C12.79831951 25.16930122 -41.82594411 7.2666009 -92 35 Z M-133 52 C-133.33 52.66 -133.66 53.32 -134 54 C-133.01 53.67 -132.02 53.34 -131 53 C-131.66 52.67 -132.32 52.34 -133 52 Z M-145 61 C-145.90685547 61.69996094 -145.90685547 61.69996094 -146.83203125 62.4140625 C-172.85179604 83.25424882 -188.09293322 122.45847269 -191.71875 154.7421875 C-192.96758338 171.06508025 -192.21173798 186.96042758 -189 203 C-188.67 203 -188.34 203 -188 203 C-188.01571045 201.79690186 -188.0314209 200.59380371 -188.04760742 199.35424805 C-188.10283863 194.79360941 -188.13668068 190.2329987 -188.16479492 185.67211914 C-188.17967325 183.71633905 -188.1999823 181.76059101 -188.22631836 179.80493164 C-188.56338877 154.08844176 -184.32537175 130.20878826 -173 107 C-172.69191406 106.36465332 -172.38382813 105.72930664 -172.06640625 105.07470703 C-165.23801307 91.18771033 -156.56486606 79.29279911 -146 68 C-141.90960561 63.40756526 -137.91358528 58.74373974 -134 54 C-138.18086409 54 -141.86747878 58.4629167 -145 61 Z " fill="#191919" transform="translate(203,3)"/>
<path d="M0 0 C1.06036469 0.00086609 2.12072937 0.00173218 3.21322632 0.00262451 C6.23081039 0.00901193 9.24811593 0.02508263 12.265625 0.046875 C13.16805435 0.0512558 14.0704837 0.0556366 15.0002594 0.06015015 C16.24971596 0.07436508 16.24971596 0.07436508 17.52441406 0.08886719 C18.24759827 0.09569519 18.97078247 0.10252319 19.71588135 0.10955811 C21.82807594 0.25539061 23.71580906 0.67588339 25.75 1.25 C25.5 3.125 25.5 3.125 24.75 5.25 C19.68288023 8.47740855 13.25309458 8.49425152 7.4375 9.25 C6.44901062 9.37973206 6.44901062 9.37973206 5.44055176 9.51208496 C-14.59717104 12.11649571 -34.73190928 13.36345816 -54.9375 13.5625 C-56.02450195 13.58022461 -57.11150391 13.59794922 -58.23144531 13.61621094 C-59.23143555 13.61524414 -60.23142578 13.61427734 -61.26171875 13.61328125 C-62.13272217 13.61626221 -63.00372559 13.61924316 -63.90112305 13.62231445 C-66.72535743 13.17465232 -68.1220299 12.11208924 -70.25 10.25 C-69.9375 7.875 -69.9375 7.875 -69.25 5.25 C-65.74609765 2.9140651 -62.96288827 2.71670294 -58.89453125 2.3984375 C-58.1405455 2.33449799 -57.38655975 2.27055847 -56.60972595 2.2046814 C-54.09481783 1.99851767 -51.57905785 1.80988659 -49.0625 1.625 C-48.19894897 1.5592981 -47.33539795 1.49359619 -46.44567871 1.42590332 C-30.9650728 0.27549473 -15.51969437 -0.02440689 0 0 Z " fill="#FFFFFF" transform="translate(195.25,222.75)"/>
<path d="M0 0 C3.44030761 -0.00220768 6.88030463 -0.02047805 10.32055664 -0.03930664 C12.52042535 -0.04223752 14.72029556 -0.04422436 16.92016602 -0.04516602 C18.45307533 -0.05594429 18.45307533 -0.05594429 20.01695251 -0.06694031 C25.07583133 -0.05070423 29.25096291 0.16334028 33.98657227 2.18530273 C33.98657227 3.17530273 33.98657227 4.16530273 33.98657227 5.18530273 C30.47380672 7.27468001 27.23788959 7.706609 23.20532227 8.18530273 C22.53187271 8.26596985 21.85842316 8.34663696 21.16456604 8.42974854 C18.93959179 8.69160883 16.71340334 8.93976054 14.48657227 9.18530273 C13.71924774 9.27179077 12.95192322 9.35827881 12.16134644 9.4473877 C-9.4834102 11.86667024 -31.29293482 13.26357384 -53.07592773 13.43530273 C-53.86668701 13.44464844 -54.65744629 13.45399414 -55.47216797 13.46362305 C-59.20378513 13.44147442 -60.8260109 13.31024729 -64.01342773 11.18530273 C-64.38842773 8.68530273 -64.38842773 8.68530273 -64.01342773 6.18530273 C-60.79240561 4.03795465 -59.26262573 3.78334034 -55.48999023 3.36889648 C-54.38526367 3.24450195 -53.28053711 3.12010742 -52.14233398 2.99194336 C-50.98604492 2.87012695 -49.82975586 2.74831055 -48.63842773 2.62280273 C-46.96200195 2.43427734 -46.96200195 2.43427734 -45.25170898 2.24194336 C-41.8409531 1.8662488 -38.42830908 1.5212618 -35.01342773 1.18530273 C-34.07072021 1.08451416 -33.1280127 0.98372559 -32.15673828 0.87988281 C-21.46491974 -0.12379492 -10.72923102 -0.00077261 0 0 Z " fill="#FFFFFF" transform="translate(191.013427734375,191.814697265625)"/>
<path d="M0 0 C3.77069974 -0.00221328 7.54111813 -0.02053749 11.31176758 -0.03930664 C41.09409282 -0.10810496 41.09409282 -0.10810496 47.6809082 3.18530273 C47.6809082 4.17530273 47.6809082 5.16530273 47.6809082 6.18530273 C43.24336812 8.30221308 38.82986907 8.81256826 33.9934082 9.24780273 C32.64545166 9.37131104 32.64545166 9.37131104 31.27026367 9.49731445 C11.76463279 11.12627817 -7.91516928 11.25039475 -27.48028564 11.36053467 C-29.45637879 11.37249872 -31.43241941 11.3923237 -33.40844727 11.41235352 C-44.76799036 11.42301689 -44.76799036 11.42301689 -50.3190918 9.18530273 C-50.9790918 8.52530273 -51.6390918 7.86530273 -52.3190918 7.18530273 C-52.1315918 5.18530273 -52.1315918 5.18530273 -51.3190918 3.18530273 C-48.2643962 1.148839 -47.48660064 0.91532191 -44.01660156 0.77783203 C-43.13882553 0.74003128 -42.2610495 0.70223053 -41.35667419 0.6632843 C-39.9168795 0.61810921 -39.9168795 0.61810921 -38.44799805 0.57202148 C-37.4358876 0.53469406 -36.42377716 0.49736664 -35.3809967 0.45890808 C-23.59035093 0.06383206 -11.79633436 -0.00077429 0 0 Z " fill="#FFFFFF" transform="translate(180.319091796875,161.814697265625)"/>
</svg>
