<svg width="90" height="93" viewBox="0 0 90 93" fill="none" xmlns="http://www.w3.org/2000/svg">
<circle cx="39.3756" cy="53.2728" r="39.3756" fill="#BB133E"/>
<path d="M71.9479 79.6595C55.4178 93.9984 28.6942 92.1967 14.3096 75.6429C-1.62871 57.2939 -3.54581 27.4667 17.1048 11.8977C21.3829 8.67216 28.6846 3.76446 33.5513 1.79169C48.8624 -4.41074 74.6499 6.44109 83.7046 19.7629C96.6065 38.748 88.1789 65.5757 71.9447 79.6563L71.9479 79.6595ZM81.6589 64.2422C81.7232 64.1873 81.9226 62.9442 82.0513 62.5826C85.0524 54.204 87.9441 47.8046 87.4745 38.4832C86.3937 17.0669 64.6559 3.88069 45.16 2.32443C42.2426 2.09196 38.6689 2.46004 36.3658 4.25523C40.4091 3.75154 44.4524 3.264 48.5343 3.77737C55.3438 4.62976 69.4486 10.7999 74.4505 15.5074C84.1839 24.6642 84.9752 41.4537 83.3347 53.9554C82.8973 57.2972 81.8068 60.936 80.2371 63.9064C80.2564 64.2454 81.4466 64.4198 81.6557 64.2454L81.6589 64.2422ZM42.3423 5.7792C30.3025 5.89543 19.7167 15.982 12.8878 25.0871C7.27486 32.5681 6.80523 43.9237 7.6898 53.0126C9.28202 69.3759 23.924 83.7309 40.1068 85.5584C45.16 86.1299 49.5861 86.5593 54.2116 84.4768C67.8403 78.3422 80.7036 66.4862 81.9323 50.604C82.6946 40.7433 81.4337 24.6125 73.6013 17.5706C68.207 12.7242 51.6512 5.8922 44.4427 5.71139L42.3455 5.7792H42.3423ZM21.4247 12.7275C16.7092 14.8714 13.1226 18.7943 10.4786 23.1499C5.35454 31.5898 3.23158 41.9477 5.51859 51.6824C5.92066 51.7469 5.78235 51.0915 5.76627 50.83C5.43817 45.2991 5.31594 41.1405 6.55434 35.6677C8.67408 26.3076 14.2066 18.8104 21.4215 12.7275H21.4247Z" fill="#1A1A1A"/>
<path d="M31.055 58.9933C30.988 59.4264 31.3432 59.9205 31.8305 60.0725C32.0856 60.152 32.35 60.1978 32.617 60.2087C32.8399 60.2169 33.0628 60.2267 33.2857 60.2368C33.8075 60.2598 34.3417 60.2836 34.8758 60.2836C35.0904 60.2836 35.305 60.2798 35.5184 60.2704C36.5572 60.2258 37.612 60.1592 38.6321 60.0948C39.8539 60.0179 41.1172 59.9385 42.3599 59.8954C45.5953 59.7834 48.8431 59.3381 51.984 58.9075L52.3914 58.8515C53.1278 58.7509 53.8892 58.6465 54.6316 58.4991C54.6645 58.4927 54.6984 58.4869 54.7328 58.4812C55.0311 58.4303 55.4817 58.3537 55.5977 57.6684C55.604 57.6312 55.5964 57.5931 55.5763 57.5613C55.5563 57.5295 55.5252 57.5062 55.4889 57.4959C55.4109 57.4736 55.3387 57.4491 55.2702 57.4257C55.1299 57.3706 54.9826 57.3346 54.8327 57.319L54.3594 57.291C53.2675 57.2265 52.1384 57.1599 51.0256 57.1301C47.8724 57.0439 44.7168 57.126 41.5722 57.3759C39.5464 57.5395 37.4838 57.6733 35.489 57.8028C34.4785 57.8684 33.4679 57.9353 32.4574 58.0035C32.2416 58.0131 32.0279 58.0499 31.8214 58.1133C31.6228 58.171 31.445 58.2846 31.3091 58.4407C31.1732 58.5967 31.085 58.7885 31.055 58.9933Z" fill="white"/>
<path d="M31.5963 51.2147C31.5914 51.3768 31.6325 51.537 31.7148 51.6766C31.7971 51.8163 31.9173 51.9298 32.0614 52.004C32.3063 52.1243 32.5724 52.1953 32.8446 52.2129C33.2055 52.235 33.5843 52.2541 33.9689 52.2541C34.157 52.2541 34.3464 52.2495 34.5357 52.2385C35.6651 52.1736 36.8114 52.0969 37.9206 52.0229C39.9971 51.8843 42.1441 51.7403 44.2571 51.6679C47.1334 51.5689 50.0253 51.2155 52.8218 50.8736C53.5551 50.7844 54.2877 50.6963 55.02 50.6094C55.0782 50.6027 55.1374 50.5972 55.1974 50.5917C55.626 50.5523 56.1596 50.5032 56.7043 49.9196C56.7211 49.9015 56.7334 49.8796 56.7398 49.8557C56.7463 49.8319 56.7471 49.8069 56.7417 49.7827C56.7365 49.7586 56.7254 49.7361 56.7095 49.7171C56.6937 49.6982 56.6735 49.6834 56.6506 49.6739C55.6557 49.2644 54.7953 49.2083 53.9285 49.1832L53.172 49.1614C50.7759 49.0916 48.2986 49.0195 45.8521 49.1136C41.7396 49.2721 37.7123 49.6726 33.2514 50.141C32.832 50.1868 32.4233 50.3027 32.0423 50.4839C31.9066 50.5512 31.7927 50.6555 31.7138 50.7848C31.6349 50.9142 31.5942 51.0632 31.5963 51.2147Z" fill="white"/>
<path d="M32.4417 43.4627C32.7317 43.6042 33.0454 43.6907 33.367 43.7177C33.5434 43.7308 33.7198 43.7443 33.8963 43.7581C34.7111 43.8212 35.5515 43.8863 36.384 43.8863C36.4483 43.8863 36.5128 43.8863 36.5772 43.8851C38.1509 43.8653 39.7503 43.8286 41.2972 43.7931C43.3494 43.7461 45.4716 43.6974 47.5583 43.6878C50.5452 43.6739 53.5458 43.3322 56.4479 43.0018L56.5409 42.9913C56.7238 42.9562 56.8986 42.8874 57.0564 42.7884C57.1621 42.7324 57.2819 42.6694 57.429 42.6013C57.4553 42.5892 57.4776 42.5699 57.4933 42.5456C57.5091 42.5213 57.5175 42.4931 57.5178 42.4641C57.5183 42.4352 57.5104 42.4068 57.4952 42.3821C57.4799 42.3575 57.4581 42.3377 57.4321 42.325C57.2805 42.2506 57.153 42.1793 57.0405 42.1156C56.864 41.9968 56.6657 41.9141 56.457 41.8725L55.8868 41.8038C54.7791 41.67 53.6336 41.531 52.5002 41.4837C46.3936 41.2285 40.193 41.4681 34.1967 41.6999L33.1205 41.7414C32.9578 41.7478 32.7961 41.7708 32.638 41.8099C32.4571 41.844 32.2919 41.935 32.1663 42.0695C32.0407 42.2041 31.9612 42.3753 31.9395 42.5582C31.9117 42.7432 31.9459 42.9324 32.0367 43.096C32.1275 43.2596 32.27 43.3885 32.4417 43.4627Z" fill="white"/>
</svg>
