<svg width="322" height="261" viewBox="0 0 322 261" fill="none" xmlns="http://www.w3.org/2000/svg">
<g clip-path="url(#clip0_10543_6801)">
<path d="M319.872 10.0544C280.365 10.0544 249.465 21.9446 228.129 43.3553C206.792 21.9446 175.928 10.1532 136.391 10.1532C55.0145 10.2038 10.1215 60.4143 10.0608 140.945L10.0001 267.436C9.9495 329.086 36.8439 371.197 85.0192 390.076C92.4129 393.518 100.833 393.978 108.556 391.396C116.283 388.815 122.736 383.399 126.605 376.211C128.334 372.567 129.321 368.567 129.503 364.467C129.69 360.417 129.073 356.366 127.682 352.52C126.296 348.723 124.167 345.18 121.416 342.194C118.67 339.207 115.358 336.782 111.666 335.061C88.2002 325.089 78.8139 305.957 78.8342 259.542L78.9049 148.74C78.9555 87.5448 97.7432 69.7817 136.34 69.7311C173.162 69.7311 191.929 85.8763 193.537 140.441V140.742L193.462 267.283C193.462 267.738 193.462 268.196 193.462 268.652C192.587 305.197 186.124 325.339 166.173 332.678C158.288 335.159 151.643 340.577 147.592 347.764C143.542 355.002 142.388 363.453 144.366 371.501C146.859 379.397 152.371 385.928 159.694 389.775C167.012 393.571 175.549 394.331 183.423 391.851C193.194 388.915 202.509 384.614 211.127 379.147C245.263 357.585 262.367 317.141 262.402 265.968L262.513 140.693V140.441C264.192 85.8257 282.975 69.5779 319.802 69.5779C358.419 69.5779 377.176 87.2927 377.141 148.488L377.05 259.285C377.05 320.48 358.232 338.248 319.635 338.299C310.754 338.552 301.899 337.187 293.524 334.201C286.151 331.265 277.918 331.365 270.61 334.453C263.302 337.54 257.517 343.411 254.508 350.75C251.504 358.19 251.549 366.543 254.634 373.933C257.714 381.323 263.59 387.195 270.984 390.333C286.555 395.901 303.047 398.483 319.579 397.926C400.96 397.875 445.863 347.614 445.919 267.134L446 140.643C446.04 60.1634 401.254 10 319.948 10" fill="#991032"/>
</g>
<defs>
<clipPath id="clip0_10543_6801">
<rect width="322" height="261" fill="white"/>
</clipPath>
</defs>
</svg>
