<svg width="76" height="108" viewBox="0 0 76 108" fill="none" xmlns="http://www.w3.org/2000/svg">
<mask id="mask0_10543_6750" style="mask-type:luminance" maskUnits="userSpaceOnUse" x="1" y="0" width="74" height="66">
<path d="M53.0759 0C46.4479 0.00280848 41.2634 1.99402 37.6826 5.58606C34.1074 1.99964 28.9258 0.0140444 22.2978 0.0196614C8.64575 0.0280868 1.11342 8.44228 1.105 21.9398L1.09376 43.1438C1.08534 53.4734 5.59856 60.5311 13.6785 63.7047C16.4168 64.7747 19.4415 63.8844 20.6548 61.3793C21.8709 58.8713 20.7559 55.5882 18.1525 54.4788C14.2178 52.8022 12.6394 49.5949 12.645 41.821L12.6563 23.2458C12.6619 12.992 15.8158 10.0122 22.2893 10.0094C28.468 10.0038 31.6163 12.7196 31.8859 21.864V21.9174L31.8719 43.1242C31.8737 43.1991 31.8747 43.2749 31.8747 43.3516C31.7286 49.4769 30.6446 52.8555 27.2969 54.0913C24.5698 55.0967 22.8201 57.8574 23.6402 60.5929C24.4547 63.3255 27.412 64.8421 30.1924 64.0052C31.9 63.494 33.4502 62.7498 34.8404 61.8736C40.5697 58.2562 43.4344 51.485 43.4428 42.9051L43.4596 21.9117V21.8696C43.7405 12.714 46.8944 9.99256 53.0702 9.98975C59.5494 9.98694 62.6949 12.9611 62.6893 23.2149L62.6752 41.7873C62.6696 52.0439 59.5185 55.0237 53.045 55.0265C51.3571 55.0293 49.9023 54.8215 48.6637 54.3412C46.0743 53.3358 43.1647 54.535 42.12 57.116C41.0724 59.6914 42.3054 62.6992 44.8835 63.744C47.2314 64.6961 50.009 65.0162 53.0365 65.0162C66.6886 65.0078 74.2209 56.5908 74.2293 43.0989L74.2434 21.8921C74.2518 8.40577 66.7363 0 53.0983 0C53.0927 0 53.0852 0 53.0759 0Z" fill="white"/>
</mask>
<g mask="url(#mask0_10543_6750)">
<path d="M53.0759 0C46.4479 0.00280848 41.2634 1.99402 37.6826 5.58606C34.1074 1.99964 28.9258 0.0140444 22.2978 0.0196614C8.64575 0.0280868 1.11342 8.44228 1.105 21.9398L1.09376 43.1438C1.08534 53.4734 5.59856 60.5311 13.6785 63.7047C16.4168 64.7747 19.4415 63.8844 20.6548 61.3793C21.8709 58.8713 20.7559 55.5882 18.1525 54.4788C14.2178 52.8022 12.6394 49.5949 12.645 41.821L12.6563 23.2458C12.6619 12.992 15.8158 10.0122 22.2893 10.0094C28.468 10.0038 31.6163 12.7196 31.8859 21.864V21.9174L31.8719 43.1242C31.8737 43.1991 31.8747 43.2749 31.8747 43.3516C31.7286 49.4769 30.6446 52.8555 27.2969 54.0913C24.5698 55.0967 22.8201 57.8574 23.6402 60.5929C24.4547 63.3255 27.412 64.8421 30.1924 64.0052C31.9 63.494 33.4502 62.7498 34.8404 61.8736C40.5697 58.2562 43.4344 51.485 43.4428 42.9051L43.4596 21.9117V21.8696C43.7405 12.714 46.8944 9.99256 53.0702 9.98975C59.5494 9.98694 62.6949 12.9611 62.6893 23.2149L62.6752 41.7873C62.6696 52.0439 59.5185 55.0237 53.045 55.0265C51.3571 55.0293 49.9023 54.8215 48.6637 54.3412C46.0743 53.3358 43.1647 54.535 42.12 57.116C41.0724 59.6914 42.3054 62.6992 44.8835 63.744C47.2314 64.6961 50.009 65.0162 53.0365 65.0162C66.6886 65.0078 74.2209 56.5908 74.2293 43.0989L74.2434 21.8921C74.2518 8.40577 66.7363 0 53.0983 0C53.0927 0 53.0852 0 53.0759 0Z" fill="white"/>
</g>
<path fill-rule="evenodd" clip-rule="evenodd" d="M59.4976 105.251V105.526C59.4976 106.43 60.0115 106.854 61.0984 106.854C61.8988 106.854 62.5476 106.655 63.2862 106.203C63.3452 106.158 63.4238 106.127 63.4688 106.127C63.5586 106.127 63.6204 106.217 63.6204 106.34V106.641C63.6204 106.793 63.5446 106.882 63.2862 106.989C62.5616 107.292 61.6854 107.472 60.9777 107.472C60.0256 107.472 59.4976 107.321 59.0735 106.896C58.6972 106.52 58.5736 106.172 58.5736 105.43V102.111H58.5792C58.5933 100.737 59.6549 99.909 61.076 99.718C61.7359 99.6281 62.3594 99.7124 62.8678 99.923C62.8977 99.9361 62.9286 99.9492 62.9604 99.9623C62.9941 99.9773 63.0288 99.9942 63.0644 100.013C63.7159 100.339 64.0895 100.914 64.0895 101.687C64.0895 102.729 63.4688 103.333 61.8371 103.922L59.9807 104.585C59.5875 104.723 59.4976 104.86 59.4976 105.251ZM59.4976 104.043L61.1883 103.47C62.6543 102.956 63.1655 102.501 63.1655 101.673C63.1655 101.229 62.9633 100.872 62.615 100.636C62.3398 100.462 61.7528 100.375 61.2417 100.443C60.2053 100.575 59.565 101.055 59.4976 101.945V104.043ZM75.3346 101.72V105.04H75.3318C75.3177 106.413 74.2533 107.245 72.8322 107.436C72.175 107.523 71.5488 107.438 71.0404 107.228C71.0386 107.228 71.0395 107.228 71.0432 107.228C71.0095 107.218 70.9777 107.205 70.9478 107.189C70.9122 107.174 70.8785 107.157 70.8466 107.138C70.1923 106.815 69.8215 106.239 69.8215 105.464C69.8215 104.422 70.4394 103.818 72.0711 103.229L73.9275 102.566C74.3207 102.428 74.4134 102.293 74.4134 101.9V101.631C74.4134 100.723 73.8995 100.299 72.8126 100.299C72.0094 100.299 71.3634 100.499 70.622 100.948C70.5602 100.996 70.4844 101.024 70.4394 101.024C70.3467 101.024 70.2878 100.934 70.2878 100.813V100.51C70.2878 100.361 70.3636 100.268 70.622 100.165C71.3465 99.8612 72.2228 99.6815 72.9333 99.6815C73.8826 99.6815 74.4134 99.8331 74.8375 100.254C75.2138 100.631 75.3346 100.979 75.3346 101.72ZM74.4134 103.108L72.7199 103.684C71.2567 104.198 70.7427 104.65 70.7427 105.478C70.7427 105.922 70.9477 106.279 71.2904 106.515C71.5684 106.691 72.1526 106.776 72.6665 106.711C73.7029 106.579 74.3432 106.096 74.4134 105.209V103.108ZM18.7016 100.103V100.437C18.7016 100.62 18.6286 100.693 18.477 100.693C18.432 100.693 18.3703 100.693 18.3113 100.679C17.9041 100.603 17.4491 100.544 17.2384 100.544C16.438 100.544 16.1038 100.872 16.1038 101.631V107.127C16.1038 107.231 16.0167 107.323 15.896 107.323H15.3792C15.2753 107.323 15.1826 107.231 15.1826 107.127V99.9988C15.1826 99.8949 15.2753 99.8023 15.3792 99.8023H15.7584C15.8801 99.8041 15.9409 99.8594 15.9409 99.968V100.134C15.9409 100.255 15.9859 100.316 16.0757 100.316C16.1038 100.316 16.1516 100.299 16.1965 100.268C16.6655 100.013 17.48 99.8023 18.1006 99.8023H18.3871C18.6118 99.8023 18.7016 99.8753 18.7016 100.103ZM69.1559 96.9488V97.2493C69.1559 97.3392 69.111 97.401 69.0324 97.401C68.9902 97.401 68.9144 97.3842 68.8386 97.3561C68.6729 97.2943 68.4622 97.2493 68.2965 97.2493C67.5551 97.2493 67.3136 97.5499 67.3136 98.4261V99.8023H68.9453C69.0661 99.8023 69.1559 99.8921 69.1559 99.9988V100.24C69.1559 100.344 69.0661 100.437 68.9453 100.437H67.3136V107.127C67.3136 107.233 67.2209 107.323 67.117 107.323H66.589C66.4823 107.323 66.3924 107.233 66.3924 107.127V100.437H65.3673C65.2578 100.437 65.1679 100.344 65.1679 100.24V99.9988C65.1679 99.8921 65.2578 99.8023 65.3673 99.8023H66.3924V98.4738C66.3924 97.2493 66.9962 96.6146 68.2039 96.6146C68.8526 96.6146 69.1559 96.7214 69.1559 96.9488ZM57.6468 100.103V100.437C57.6468 100.62 57.5738 100.693 57.4221 100.693C57.3716 100.696 57.3163 100.692 57.2564 100.679C56.8464 100.603 56.397 100.544 56.1808 100.544C55.3832 100.544 55.0518 100.872 55.0518 101.631V107.127C55.0518 107.231 54.9591 107.323 54.8411 107.323H54.3244C54.2205 107.323 54.1278 107.231 54.1278 107.127V99.9988C54.1278 99.8949 54.2205 99.8023 54.3244 99.8023H54.7007C54.8224 99.8041 54.8833 99.8594 54.8833 99.968V100.134C54.8833 100.255 54.9291 100.316 55.0209 100.316C55.0546 100.316 55.0939 100.3 55.1388 100.268C55.6106 100.013 56.4251 99.8023 57.0458 99.8023H57.3295C57.5569 99.8023 57.6468 99.8753 57.6468 100.103ZM29.9327 96.8112V107.127C29.9327 107.233 29.8429 107.323 29.7193 107.323H29.2054C29.1014 107.323 29.0116 107.233 29.0116 107.127V96.8112C29.0116 96.7045 29.1014 96.6146 29.2054 96.6146H29.7193C29.8429 96.6146 29.9327 96.7045 29.9327 96.8112ZM44.4947 100.403C45.0536 100.965 45.2193 101.521 45.2193 102.779V107.127C45.2193 107.231 45.1435 107.323 45.0227 107.323H44.5087C44.402 107.323 44.3121 107.231 44.3121 107.127V102.535C44.3121 101.024 43.6325 100.316 42.1833 100.316C41.1273 100.316 40.4926 100.723 40.4926 101.403V107.127C40.4926 107.231 40.3999 107.323 40.282 107.323H39.768C39.6613 107.323 39.5714 107.231 39.5714 107.127V102.611C39.5714 101.341 39.2372 100.737 38.4087 100.451C38.1223 100.364 37.833 100.316 37.5184 100.316C36.3248 100.316 35.7491 100.648 35.7491 101.327V107.127C35.7491 107.231 35.6592 107.323 35.5385 107.323H35.0245C34.9178 107.323 34.8279 107.231 34.8279 107.127V99.9988C34.8279 99.8949 34.9178 99.8023 35.0245 99.8023H35.4177C35.5525 99.8023 35.5834 99.8472 35.5834 99.982V100.072C35.5834 100.148 35.6312 100.195 35.7182 100.195C35.7969 100.195 35.839 100.176 36.0524 100.072C36.5355 99.8163 37.2011 99.6815 37.833 99.6815C38.6952 99.6815 39.2232 99.8612 39.7512 100.392C39.872 100.499 39.9337 100.544 39.9927 100.544C40.1163 100.544 40.1444 100.527 40.341 100.392C41.0487 99.8949 41.7312 99.6815 42.5316 99.6815C43.3741 99.6815 44.0117 99.909 44.4947 100.403ZM12.8376 100.254C13.2139 100.634 13.3347 100.982 13.3347 101.72V105.04H13.3318C13.3178 106.416 12.2534 107.248 10.8323 107.436C10.1723 107.526 9.54882 107.441 9.04049 107.231H9.0433C9.0096 107.219 8.97777 107.206 8.94781 107.191C8.91411 107.176 8.8804 107.16 8.8467 107.141C8.19233 106.815 7.82161 106.239 7.82161 105.464C7.82161 104.425 8.44229 103.818 10.0712 103.231L11.9304 102.566C12.3236 102.431 12.4135 102.296 12.4135 101.903V101.631C12.4135 100.723 11.8995 100.299 10.8126 100.299C10.0122 100.299 9.36066 100.499 8.62484 100.951C8.56305 100.996 8.48442 101.024 8.44229 101.024C8.34961 101.024 8.29063 100.934 8.29063 100.813V100.513C8.29063 100.364 8.36365 100.268 8.62484 100.165C9.34662 99.8612 10.2229 99.6815 10.9306 99.6815C11.8827 99.6815 12.4135 99.8331 12.8376 100.254ZM12.4135 103.108L10.72 103.684C9.25394 104.198 8.74279 104.65 8.74279 105.478C8.74279 105.925 8.94501 106.281 9.29326 106.515C9.56849 106.691 10.1526 106.776 10.6666 106.711C11.7057 106.579 12.3405 106.096 12.4135 105.211V103.108ZM26.821 100.254C27.2001 100.631 27.3209 100.979 27.3209 101.718V105.04C27.3012 106.413 26.2396 107.245 24.8185 107.433C24.1613 107.523 23.5322 107.438 23.0267 107.228C22.9968 107.217 22.9659 107.204 22.934 107.189C22.9003 107.174 22.8666 107.157 22.8329 107.138C22.1785 106.812 21.8078 106.236 21.8078 105.464C21.8078 104.422 22.4285 103.816 24.0574 103.229L25.9166 102.566C26.307 102.428 26.3969 102.293 26.3969 101.9V101.628C26.3969 100.721 25.8857 100.299 24.796 100.299C23.9984 100.299 23.3497 100.496 22.6111 100.948C22.5465 100.993 22.4734 101.021 22.4285 101.021C22.3386 101.021 22.2768 100.931 22.2768 100.81V100.51C22.2768 100.361 22.3527 100.266 22.6111 100.165C23.3328 99.8612 24.2091 99.6787 24.9168 99.6787C25.8689 99.6787 26.3969 99.8303 26.821 100.254ZM26.3969 103.108L24.7062 103.684C23.2401 104.195 22.729 104.647 22.729 105.478C22.729 105.922 22.934 106.279 23.2795 106.515C23.5547 106.689 24.1417 106.773 24.6528 106.708C25.6891 106.579 26.3295 106.096 26.3969 105.209V103.108ZM6.43422 96.8112V107.124C6.43422 107.231 6.34436 107.323 6.23763 107.323H5.85849C5.72368 107.323 5.66189 107.278 5.66189 107.158V107.051C5.66189 106.972 5.631 106.944 5.55798 106.944C5.51304 106.944 5.49619 106.944 5.34453 107.02C4.68173 107.323 4.16778 107.444 3.48813 107.444C1.42109 107.444 0 105.902 0 103.639C0 101.296 1.44918 99.6787 3.54992 99.6787C4.18183 99.6787 4.8025 99.8303 5.25467 100.12C5.34454 100.176 5.37542 100.176 5.40632 100.176C5.47934 100.176 5.51491 100.132 5.51304 100.044V96.8112C5.51304 96.7045 5.60291 96.6118 5.70683 96.6118H6.23763C6.34436 96.6118 6.43422 96.7045 6.43422 96.8112ZM5.51304 101.308C5.51304 100.735 4.8025 100.358 3.71281 100.358C1.96313 100.358 0.92118 101.552 0.92118 103.56C0.92118 105.599 1.97717 106.807 3.71281 106.807C4.83339 106.807 5.51304 106.43 5.51304 105.812V101.308ZM51.8557 100.254C52.2349 100.631 52.3556 100.979 52.3556 101.718V105.04C52.3388 106.413 51.2744 107.245 49.8533 107.433C49.1933 107.523 48.5698 107.438 48.0587 107.228C48.0624 107.228 48.0643 107.228 48.0643 107.228C48.0306 107.217 47.9987 107.204 47.9688 107.189C47.9351 107.174 47.9005 107.157 47.8649 107.138C47.2133 106.812 46.8426 106.236 46.8426 105.464C46.8426 104.422 47.4605 103.816 49.0922 103.229L50.9486 102.566C51.3418 102.428 51.4344 102.293 51.4344 101.9V101.628C51.4344 100.721 50.9177 100.299 49.8336 100.299C49.0304 100.299 48.3844 100.496 47.643 100.948C47.5812 100.993 47.5082 101.021 47.4605 101.021C47.3706 101.021 47.3116 100.931 47.3116 100.81V100.51C47.3116 100.361 47.3874 100.266 47.643 100.162C48.3676 99.8612 49.2438 99.6787 49.9544 99.6787C50.9037 99.6787 51.4344 99.8303 51.8557 100.254ZM51.4344 103.108L49.7409 103.684C48.2777 104.195 47.7638 104.647 47.7638 105.478C47.7638 105.922 47.966 106.279 48.3142 106.515C48.5895 106.689 49.1736 106.773 49.6876 106.708C50.7239 106.576 51.3614 106.096 51.4344 105.209V103.108Z" fill="white"/>
<path fill-rule="evenodd" clip-rule="evenodd" d="M75.3041 90.7392V91.8149C75.3041 91.9525 75.1833 92.0761 75.0457 92.0761H69.7545V92.0676C69.6787 92.048 69.6197 91.9806 69.6197 91.8991V91.4245C69.6197 91.3431 69.6787 91.2757 69.7545 91.2588V91.2532H69.7854C69.7891 91.2513 69.792 91.2504 69.7938 91.2504H71.0211V91.2532H74.4784V90.9948C74.4784 89.6524 74.1526 88.7115 73.4842 87.8886C72.914 87.1921 72.0883 86.6613 71.0211 86.2794L70.6504 86.1586C70.6467 86.1567 70.642 86.1539 70.6364 86.1502C70.6326 86.1483 70.6279 86.1465 70.6223 86.1446V86.1418C70.5465 86.0996 70.5044 86.0042 70.5324 85.9171L70.6139 85.4172C70.6279 85.3133 70.642 85.2065 70.7684 85.2459C71.3918 85.3975 71.9086 85.5997 72.431 85.8778C73.0339 86.1979 73.5478 86.592 73.9728 87.0601C74.3978 87.5263 74.7264 88.0656 74.9586 88.6778C75.1889 89.2826 75.3041 89.9697 75.3041 90.7392ZM57.4815 82.4121V92.0452C57.4815 92.1519 57.386 92.2418 57.2652 92.2418H56.7541C56.6473 92.2418 56.5575 92.1519 56.5575 92.0452V82.4121C56.5575 82.3082 56.6473 82.2155 56.7541 82.2155H57.2652C57.386 82.2155 57.4815 82.3082 57.4815 82.4121ZM67.3617 82.4121V92.0452C67.3617 92.1519 67.269 92.2418 67.1482 92.2418H66.6343C66.5276 92.2418 66.4377 92.1519 66.4377 92.0452V82.4121C66.4377 82.3082 66.5276 82.2155 66.6343 82.2155H67.1482C67.269 82.2155 67.3617 82.3082 67.3617 82.4121ZM63.7949 85.361V93.3343C63.7949 94.556 63.1883 95.1907 61.9806 95.1907C61.3319 95.1907 61.0314 95.0868 61.0314 94.8565V94.556C61.0314 94.4633 61.0735 94.4043 61.1521 94.4043C61.1943 94.4043 61.2729 94.4211 61.3487 94.452C61.5144 94.511 61.7251 94.556 61.8908 94.556C62.6294 94.556 62.8737 94.2526 62.8737 93.3792V85.361C62.8737 85.2571 62.9608 85.1644 63.0675 85.1644H63.5983C63.705 85.1644 63.7949 85.2571 63.7949 85.361ZM14.2337 82.6115C14.2337 82.1959 14.4191 82.0161 14.7982 82.0161C15.2083 82.0161 15.3768 82.1846 15.3768 82.5862C15.3768 83.0272 15.2223 83.1816 14.7982 83.1816C14.391 83.1816 14.2337 83.0272 14.2337 82.6115ZM4.7186 83.0216C4.7186 82.6087 4.90115 82.429 5.28311 82.429C5.69033 82.429 5.86165 82.5947 5.86165 82.9963C5.86165 83.4372 5.70719 83.5917 5.28311 83.5917C4.87307 83.5917 4.7186 83.4372 4.7186 83.0216ZM3.00824 83.0216C3.00824 82.6087 3.19078 82.429 3.57274 82.429C3.97996 82.429 4.15128 82.5947 4.15128 82.9963C4.15128 83.4372 3.99682 83.5917 3.57274 83.5917C3.16551 83.5917 3.00824 83.4372 3.00824 83.0216ZM17.3567 85.6924H17.3539C17.3624 86.4956 17.3624 87.8072 17.3624 88.6525C17.3624 90.9106 16.1912 92.2362 14.2 92.2362L14.0905 92.2305H6.24079L6.1453 92.2193C6.13126 92.2221 6.21271 92.2277 6.19586 92.2277H5.84199C5.71842 92.2277 4.08107 92.2249 3.44636 92.2249C1.51694 92.2249 0.03125 90.8095 0.03125 88.734C0.03125 86.5883 1.54221 85.1082 3.50252 85.1082C4.09511 85.1082 5.60327 85.1139 5.70157 85.1139H6.19586C6.29416 85.1139 6.37841 85.1925 6.37841 85.2936V91.5003H12.1105C11.4365 90.8937 11.077 89.9079 11.077 88.5851C11.0789 88.3436 11.0929 88.1143 11.1191 87.8971H11.1135C11.1023 87.282 11.4281 86.7147 11.6864 86.1698C12.2116 85.3835 13.0682 84.965 14.2225 84.965H14.4837V84.9622H15.0426C15.5902 84.9594 16.2025 84.9566 16.6602 84.9622H17.3736L17.3567 85.6924ZM5.52182 86.1361C5.5162 85.9058 5.38421 85.7401 5.05842 85.7486C4.74106 85.7261 4.16533 85.7317 3.65699 85.7317C2.02527 85.7317 0.890643 86.8242 0.890643 88.6638C0.890643 90.5314 2.03931 91.5453 3.65699 91.5453C4.16814 91.5453 4.86745 91.5537 5.15672 91.5509C5.50778 91.5425 5.52182 91.4105 5.52182 91.1184V86.1361ZM16.5058 85.6896C16.5039 85.6896 16.4824 85.6896 16.4412 85.6896L14.2169 85.6868C12.7649 85.6868 11.9392 86.6698 11.9392 88.5964C11.9392 90.5342 12.7677 91.4975 14.2365 91.4975C15.6997 91.4975 16.5058 90.5174 16.5058 88.5514C16.5058 87.7791 16.5254 85.7093 16.5058 85.6896ZM52.9851 82.3616V90.0736C52.9851 91.6099 52.5751 92.2334 51.5893 92.2334H51.3786C51.3468 92.2315 51.3178 92.2277 51.2916 92.2221V92.2277H45.9555C45.4977 92.2305 44.8826 92.2277 44.3378 92.2277H43.7789H43.5177C42.3634 92.2277 41.5068 91.8065 40.9817 91.0173C40.5941 91.666 39.8414 92.0733 38.9287 92.1912C38.9006 92.194 38.7714 92.1996 38.5804 92.2024L38.5327 92.2081C38.0187 92.2362 37.3756 92.2362 36.738 92.2193C36.2101 92.2221 35.0586 92.2109 35.0024 92.2109C34.1992 92.1659 33.5925 92.0508 33.3398 91.9637C32.8006 91.7728 32.3035 91.5069 31.8485 91.1661L31.7109 91.0622L31.562 91.1437C30.8992 91.5003 30.2027 91.7784 29.4978 91.9665C28.7985 92.1547 28.102 92.253 27.4307 92.253H22.926V93.3315C22.926 94.5531 22.3193 95.1879 21.1145 95.1879C20.4629 95.1879 20.1596 95.0839 20.1596 94.8537V94.5532C20.1596 94.4633 20.2073 94.4015 20.2832 94.4015C20.3309 94.4015 20.4039 94.4183 20.4798 94.4492C20.6455 94.5082 20.8561 94.5532 21.0218 94.5532C21.7632 94.5532 22.0048 94.2527 22.0048 93.3764V85.3582C22.0048 85.2543 22.0946 85.1616 22.2014 85.1616H22.7294C22.8361 85.1616 22.926 85.2543 22.926 85.3582V91.52H26.9533V91.5172H27.2145C28.4221 91.5172 29.6298 91.2504 30.8009 90.7196L31.1408 90.537L30.8543 90.2084C30.551 89.8377 30.3179 89.599 30.0791 89.335C29.8339 89.0654 29.583 88.8229 29.3265 88.6076C29.1673 88.4747 28.9998 88.3474 28.8238 88.2257V88.2341C28.8238 88.2341 28.7535 88.1807 28.6412 88.1049C28.5944 88.0749 28.5466 88.045 28.498 88.015C28.453 87.9888 28.4081 87.9626 28.3632 87.9364C28.3388 87.9233 28.3154 87.9092 28.293 87.8943C27.9559 87.7117 27.4757 87.5853 27.4757 87.5853C27.2987 87.5264 27.2566 87.5011 27.2285 87.3775L27.1527 87.0657C27.119 86.9057 27.1724 86.7961 27.4195 86.6248C27.5543 86.5293 27.6948 86.4376 27.8408 86.3496C28.3838 86.0051 28.9483 85.7177 29.5343 85.4874C30.1615 85.2421 30.7803 85.1195 31.3907 85.1195C31.9 85.1213 32.3409 85.1869 32.7135 85.3161C33.0767 85.4471 33.381 85.6241 33.6263 85.8469C33.8659 86.0659 34.0456 86.3234 34.1655 86.6192C34.2853 86.915 34.3462 87.2352 34.348 87.5797C34.348 87.9813 34.2216 88.425 33.9745 88.8884C33.7199 89.3621 33.3407 89.8199 32.8371 90.2618L32.486 90.537L32.6489 90.6606C32.9775 90.919 33.5504 91.1408 33.9408 91.2953C34.3649 91.4666 37.0357 91.4947 38.1198 91.5116C38.4821 91.5116 38.7489 91.5116 38.7798 91.506C39.7459 91.3824 40.3413 90.9443 40.4087 90.1298V89.2929H40.4115C40.3853 89.0757 40.3722 88.8463 40.3722 88.6048C40.3722 86.2653 41.4872 84.9791 43.5008 84.9791C45.5033 84.9791 46.6604 86.2794 46.6604 88.5346C46.6604 89.3855 46.6548 90.6943 46.6463 91.4975L51.2747 91.4947C51.2897 91.4891 51.3056 91.4872 51.3225 91.4891H51.4208C51.9712 91.4891 52.1257 91.1858 52.1257 90.1045V82.3616C52.1257 82.2661 52.2099 82.1818 52.3082 82.1818H52.7997C52.9008 82.1818 52.9851 82.2661 52.9851 82.3616ZM33 88.9109C33.2715 88.5102 33.4072 88.1133 33.4072 87.7201C33.4053 87.1584 33.1994 86.7138 32.7893 86.3861C32.3961 86.0734 31.8831 85.9171 31.2503 85.9171C30.726 85.9171 30.242 86.0135 29.7983 86.2064C29.3714 86.3917 28.9024 86.6136 28.4952 86.8972L28.1806 87.0854L28.2873 87.1247C28.8378 87.2623 29.7084 87.8184 30.1999 88.2313C30.7026 88.6582 31.2475 89.1749 31.7305 89.8602L31.9075 90.0905L32.1181 89.9051C32.4776 89.5878 32.7472 89.2816 33 88.9109ZM45.7982 88.6357C45.7982 86.667 44.995 85.5604 43.5289 85.5604C42.0629 85.5604 41.2344 86.6529 41.2344 88.5908C41.2344 90.5146 42.0601 91.4975 43.5121 91.4975H45.7336C45.7748 91.4975 45.7972 91.4966 45.801 91.4947C45.8178 91.4807 45.7982 89.408 45.7982 88.6357Z" fill="white"/>
</svg>
