<svg width="48" height="48" viewBox="0 0 48 48" fill="none" xmlns="http://www.w3.org/2000/svg">
<path d="M29.6408 32.4705H18.3629C16.8044 32.4705 15.5312 31.1973 15.5312 29.6388V18.3609C15.5312 16.8025 16.8044 15.5293 18.3629 15.5293H29.6408C31.1992 15.5293 32.4724 16.8025 32.4724 18.3609V29.6388C32.4724 31.2042 31.2062 32.4705 29.6408 32.4705Z" stroke="white" stroke-width="1.12941"/>
<path d="M20.9294 27.0807C21.7504 27.9017 22.8427 28.3539 24.0046 28.3539C25.1665 28.3539 26.2518 27.9017 27.0798 27.0807C27.9007 26.2598 28.353 25.1675 28.353 24.0056C28.353 22.8437 27.9007 21.7514 27.0798 20.9304C26.2588 20.1095 25.1665 19.6572 24.0046 19.6572C22.8427 19.6572 21.7504 20.1095 20.9294 20.9304C20.1085 21.7514 19.6562 22.8437 19.6562 24.0056C19.6562 25.1675 20.1085 26.2598 20.9294 27.0807Z" stroke="white" stroke-width="1.12941"/>
<path d="M29.2021 19.5155C29.6632 19.5155 30.037 19.1417 30.037 18.6806C30.037 18.2195 29.6632 17.8457 29.2021 17.8457C28.741 17.8457 28.3672 18.2195 28.3672 18.6806C28.3672 19.1417 28.741 19.5155 29.2021 19.5155Z" stroke="white" stroke-width="1.12941"/>
</svg>
