<svg width="48" height="48" viewBox="0 0 48 48" fill="none" xmlns="http://www.w3.org/2000/svg">
<path d="M33.2096 19.5219C32.7074 18.4121 31.9864 17.4158 31.0711 16.5571C30.1558 15.7066 29.0946 15.0343 27.912 14.5645C26.6889 14.0785 25.3928 13.8354 24.0563 13.8354C22.7197 13.8354 21.4237 14.0785 20.2005 14.5645C19.0179 15.0343 17.9567 15.6985 17.0414 16.5571C16.1261 17.4158 15.4051 18.4121 14.9029 19.5219C14.3845 20.6721 14.1172 21.9033 14.1172 23.167C14.1172 25.3784 14.9434 27.5006 16.4582 29.1855L15.6481 33.6002L19.9575 31.6804C21.2454 32.2312 22.6144 32.5066 24.0481 32.5066C25.3847 32.5066 26.6808 32.2636 27.9039 31.7776C29.0865 31.3078 30.1477 30.6435 31.063 29.7849C31.9783 28.9263 32.6993 27.93 33.2015 26.8202C33.7199 25.67 33.9872 24.4387 33.9872 23.1751C33.9953 21.9033 33.728 20.6802 33.2096 19.5219Z" stroke="white" stroke-width="1.12941"/>
<path d="M28.1096 25.0303C27.6883 24.8197 27.3806 24.6901 27.1618 24.6091C27.0241 24.5605 26.7001 24.4146 26.5867 24.5038C26.2303 24.7954 25.8496 25.6216 25.4446 25.7755C24.4401 25.5811 23.5086 24.8926 22.7796 24.1878C22.4556 23.88 21.8562 23.0052 21.7265 22.7703C21.7022 22.5273 22.1396 22.2033 22.2368 22.017C22.7391 21.4499 22.3584 21.0935 22.2936 20.8586C22.1802 20.6156 21.9858 20.1782 21.8157 19.8218C21.6699 19.5869 21.6374 19.2386 21.3782 19.109C20.2766 18.5419 19.6448 19.676 19.3856 20.2673C17.8222 24.0339 27.2185 31.2027 29.1302 26.2615C29.2274 25.8322 29.1869 25.6702 29.0411 25.4758C28.7495 25.2733 28.4093 25.1842 28.1096 25.0303Z" stroke="white" stroke-width="1.12941"/>
</svg>
