<svg width="67" height="64" viewBox="0 0 67 64" fill="none" xmlns="http://www.w3.org/2000/svg">
<circle cx="27.8569" cy="35.7587" r="27.8569" fill="white" fill-opacity="0.3"/>
<g clip-path="url(#clip0_980_8902)">
<path d="M33.5742 0.0635788C39.9314 -0.551041 50.1805 3.40228 55.3609 7.0922C73.5362 20.0409 67.5296 45.0428 51.0658 56.4111C40.0497 64.017 22.992 61.7187 14.4763 51.3426C3.55444 38.0383 2.86416 16.9086 18.4493 6.9561C22.4398 4.40763 28.9065 0.515764 33.5742 0.0635788ZM59.8642 45.2447C63.1403 37.8539 66.2805 30.259 64.1001 22.0253C62.2046 14.8562 55.4704 8.22485 48.8218 5.25273C45.3923 3.72057 37.9854 1.30379 34.3631 1.68135C33.2586 1.79769 32.1826 2.31353 31.1417 2.64937C31.0979 2.92595 31.5318 2.81839 31.7181 2.8162C34.1943 2.78986 36.3901 2.5045 38.9365 2.814C43.5537 3.37594 52.2469 7.70462 55.7729 10.7887C62.9211 17.0447 63.0154 28.2176 61.6611 36.9276C61.2382 39.6451 60.4011 42.4636 59.0512 44.8518C58.9263 45.1855 59.7612 45.315 59.8598 45.2447H59.8642ZM17.9014 12.5755C12.6399 17.6549 11.0687 20.6555 10.3127 28.0859C9.43611 36.6993 10.5559 43.357 16.4463 49.8654C21.7254 55.6955 28.6501 58.4415 36.4734 58.7532C38.599 58.8388 40.8123 57.8247 42.7473 56.9642C52.9635 52.427 59.8357 44.8365 60.8612 33.3277C61.4858 26.321 60.6268 16.5025 54.7035 11.8643C52.2929 9.97652 47.9036 7.83852 45.0504 6.56538C33.71 1.50574 26.3799 4.38787 17.8992 12.5777L17.9014 12.5755ZM20.6341 8.07778C17.1585 9.46507 14.3119 12.4987 12.355 15.6574C9.01537 21.0485 7.59097 27.6073 8.64721 33.9028C8.93428 33.9401 8.80061 33.5296 8.80938 33.3299C8.91675 30.6717 8.72829 28.3251 9.18629 25.6449C10.4376 18.3068 14.9014 12.5316 20.6319 8.07778H20.6341Z" fill="white"/>
<path d="M31.0277 20.4643C31.1876 20.3282 31.8166 20.1109 32.0248 20.1284L46.9196 30.1906C47.2833 30.937 47.1519 31.7733 46.3652 32.1245C41.5923 34.4337 37.0452 37.2346 32.2987 39.5812C29.737 40.8477 29.5923 39.6536 29.6603 37.2676C29.7698 33.3384 30.2322 29.3543 30.4864 25.4295C30.55 24.4571 30.3834 21.0043 31.0277 20.4621V20.4643Z" fill="white"/>
</g>
<defs>
<clipPath id="clip0_980_8902">
<rect width="60" height="60.9023" fill="white" transform="translate(6.48438)"/>
</clipPath>
</defs>
</svg>
