<svg width="77" height="110" viewBox="0 0 77 110" fill="none" xmlns="http://www.w3.org/2000/svg">
<mask id="mask0_1335_15429" style="mask-type:luminance" maskUnits="userSpaceOnUse" x="1" y="0" width="75" height="67">
<path d="M54.2485 0C47.4739 0.00287056 42.1749 2.0381 38.5149 5.70955C34.8607 2.04384 29.5645 0.0143549 22.7899 0.020096C8.83613 0.0287077 1.1373 8.62892 1.12868 22.4248L1.1172 44.0976C1.10859 54.6555 5.72158 61.8693 13.9802 65.113C16.779 66.2067 19.8706 65.2967 21.1107 62.7362C22.3536 60.1727 21.214 56.8171 18.553 55.6832C14.5313 53.9695 12.9181 50.6913 12.9238 42.7456L12.9353 23.7597C12.9411 13.2792 16.1647 10.2336 22.7813 10.2307C29.0966 10.2249 32.3145 13.0008 32.59 22.3473V22.4019L32.5757 44.0775C32.5776 44.154 32.5786 44.2316 32.5786 44.31C32.4293 50.5707 31.3213 54.024 27.8996 55.287C25.1122 56.3147 23.3239 59.1365 24.1621 61.9324C24.9945 64.7255 28.0172 66.2756 30.8591 65.4201C32.6044 64.8977 34.189 64.137 35.6099 63.2414C41.4658 59.5441 44.3938 52.6232 44.4024 43.8536L44.4196 22.3961V22.3531C44.7067 12.995 47.9303 10.2135 54.2427 10.2106C60.8651 10.2077 64.0801 13.2476 64.0744 23.7281L64.06 42.7111C64.0543 53.1944 60.8335 56.2401 54.2169 56.2429C52.4917 56.2458 51.0047 56.0334 49.7388 55.5425C47.0921 54.5149 44.1182 55.7406 43.0504 58.3786C41.9797 61.011 43.2398 64.0853 45.875 65.1532C48.2748 66.1263 51.1138 66.4535 54.2083 66.4535C68.1621 66.4449 75.8609 57.8419 75.8695 44.0517L75.8839 22.376C75.8925 8.59159 68.2109 0 54.2714 0C54.2657 0 54.258 0 54.2485 0Z" fill="white"/>
</mask>
<g mask="url(#mask0_1335_15429)">
<path d="M54.2485 0C47.4739 0.00287056 42.1749 2.0381 38.5149 5.70955C34.8607 2.04384 29.5645 0.0143549 22.7899 0.020096C8.83613 0.0287077 1.1373 8.62892 1.12868 22.4248L1.1172 44.0976C1.10859 54.6555 5.72158 61.8693 13.9802 65.113C16.779 66.2067 19.8706 65.2967 21.1107 62.7362C22.3536 60.1727 21.214 56.8171 18.553 55.6832C14.5313 53.9695 12.9181 50.6913 12.9238 42.7456L12.9353 23.7597C12.9411 13.2792 16.1647 10.2336 22.7813 10.2307C29.0966 10.2249 32.3145 13.0008 32.59 22.3473V22.4019L32.5757 44.0775C32.5776 44.154 32.5786 44.2316 32.5786 44.31C32.4293 50.5707 31.3213 54.024 27.8996 55.287C25.1122 56.3147 23.3239 59.1365 24.1621 61.9324C24.9945 64.7255 28.0172 66.2756 30.8591 65.4201C32.6044 64.8977 34.189 64.137 35.6099 63.2414C41.4658 59.5441 44.3938 52.6232 44.4024 43.8536L44.4196 22.3961V22.3531C44.7067 12.995 47.9303 10.2135 54.2427 10.2106C60.8651 10.2077 64.0801 13.2476 64.0744 23.7281L64.06 42.7111C64.0543 53.1944 60.8335 56.2401 54.2169 56.2429C52.4917 56.2458 51.0047 56.0334 49.7388 55.5425C47.0921 54.5149 44.1182 55.7406 43.0504 58.3786C41.9797 61.011 43.2398 64.0853 45.875 65.1532C48.2748 66.1263 51.1138 66.4535 54.2083 66.4535C68.1621 66.4449 75.8609 57.8419 75.8695 44.0517L75.8839 22.376C75.8925 8.59159 68.2109 0 54.2714 0C54.2657 0 54.258 0 54.2485 0Z" fill="#D01241"/>
</g>
<path fill-rule="evenodd" clip-rule="evenodd" d="M60.8129 107.218V107.5C60.8129 108.424 61.3382 108.857 62.4491 108.857C63.2672 108.857 63.9303 108.654 64.6853 108.191C64.7456 108.145 64.8259 108.114 64.8719 108.114C64.9637 108.114 65.0269 108.206 65.0269 108.332V108.639C65.0269 108.794 64.9494 108.886 64.6853 108.995C63.9447 109.305 63.0491 109.489 62.3257 109.489C61.3526 109.489 60.8129 109.334 60.3794 108.9C59.9948 108.516 59.8685 108.16 59.8685 107.402V104.009H59.8742C59.8886 102.605 60.9736 101.758 62.4261 101.563C63.1007 101.471 63.738 101.558 64.2576 101.773C64.2882 101.786 64.3198 101.8 64.3523 101.813C64.3867 101.828 64.4221 101.846 64.4585 101.865C65.1245 102.198 65.5063 102.786 65.5063 103.576C65.5063 104.641 64.8719 105.258 63.2041 105.861L61.3066 106.538C60.9048 106.679 60.8129 106.819 60.8129 107.218ZM60.8129 105.984L62.541 105.398C64.0394 104.873 64.5618 104.408 64.5618 103.561C64.5618 103.108 64.3552 102.743 63.9992 102.502C63.7179 102.324 63.118 102.235 62.5955 102.304C61.5363 102.439 60.8818 102.93 60.8129 103.84V105.984ZM77 103.61V107.003H76.9971C76.9828 108.407 75.8948 109.256 74.4423 109.452C73.7706 109.541 73.1305 109.454 72.6109 109.239C72.609 109.239 72.6099 109.239 72.6138 109.239C72.5793 109.23 72.5468 109.216 72.5162 109.199C72.4798 109.184 72.4454 109.166 72.4128 109.147C71.744 108.817 71.3651 108.229 71.3651 107.436C71.3651 106.371 71.9966 105.754 73.6644 105.151L75.5619 104.474C75.9637 104.333 76.0584 104.196 76.0584 103.794V103.518C76.0584 102.591 75.5331 102.157 74.4222 102.157C73.6013 102.157 72.941 102.361 72.1832 102.821C72.12 102.869 72.0425 102.898 71.9966 102.898C71.9019 102.898 71.8416 102.806 71.8416 102.683V102.373C71.8416 102.221 71.9191 102.126 72.1832 102.02C72.9238 101.71 73.8194 101.526 74.5457 101.526C75.5159 101.526 76.0585 101.681 76.4919 102.112C76.8766 102.496 77 102.852 77 103.61ZM76.0584 105.028L74.3275 105.617C72.8319 106.142 72.3066 106.604 72.3066 107.451C72.3066 107.904 72.5162 108.269 72.8664 108.51C73.1506 108.691 73.7477 108.777 74.273 108.711C75.3322 108.576 75.9867 108.082 76.0584 107.175V105.028ZM19.1151 101.957V102.298C19.1151 102.485 19.0405 102.559 18.8854 102.559C18.8395 102.559 18.7764 102.559 18.7161 102.545C18.2999 102.468 17.8348 102.407 17.6195 102.407C16.8014 102.407 16.4598 102.743 16.4598 103.518V109.136C16.4598 109.242 16.3708 109.337 16.2474 109.337H15.7192C15.613 109.337 15.5183 109.242 15.5183 109.136V101.85C15.5183 101.744 15.613 101.649 15.7192 101.649H16.1067C16.2311 101.651 16.2933 101.708 16.2933 101.819V101.988C16.2933 102.113 16.3393 102.175 16.4311 102.175C16.4598 102.175 16.5086 102.157 16.5545 102.126C17.0339 101.865 17.8664 101.649 18.5008 101.649H18.7936C19.0232 101.649 19.1151 101.724 19.1151 101.957ZM70.6848 98.7329V99.0401C70.6848 99.1319 70.6388 99.1951 70.5585 99.1951C70.5154 99.1951 70.4379 99.1778 70.3604 99.1491C70.191 99.086 69.9757 99.0401 69.8064 99.0401C69.0485 99.0401 68.8017 99.3472 68.8017 100.243V101.649H70.4695C70.5929 101.649 70.6848 101.741 70.6848 101.85V102.097C70.6848 102.203 70.5929 102.298 70.4695 102.298H68.8017V109.136C68.8017 109.245 68.7069 109.337 68.6007 109.337H68.0611C67.952 109.337 67.8601 109.245 67.8601 109.136V102.298H66.8124C66.7004 102.298 66.6086 102.203 66.6086 102.097V101.85C66.6086 101.741 66.7004 101.649 66.8124 101.649H67.8601V100.292C67.8601 99.04 68.4773 98.3913 69.7116 98.3913C70.3747 98.3913 70.6848 98.5004 70.6848 98.7329ZM58.9212 101.957V102.298C58.9212 102.485 58.8465 102.559 58.6915 102.559C58.6399 102.563 58.5834 102.558 58.5222 102.545C58.1031 102.468 57.6438 102.407 57.4228 102.407C56.6075 102.407 56.2688 102.743 56.2688 103.518V109.136C56.2688 109.242 56.1741 109.337 56.0535 109.337H55.5253C55.4191 109.337 55.3244 109.242 55.3244 109.136V101.85C55.3244 101.744 55.4191 101.649 55.5253 101.649H55.91C56.0344 101.651 56.0966 101.708 56.0966 101.819V101.988C56.0966 102.113 56.1434 102.175 56.2372 102.175C56.2717 102.175 56.3118 102.158 56.3578 102.126C56.84 101.865 57.6725 101.649 58.3069 101.649H58.5968C58.8293 101.649 58.9212 101.724 58.9212 101.957ZM30.5945 98.5922V109.136C30.5945 109.245 30.5026 109.337 30.3763 109.337H29.851C29.7448 109.337 29.6529 109.245 29.6529 109.136V98.5922C29.6529 98.4832 29.7448 98.3913 29.851 98.3913H30.3763C30.5026 98.3913 30.5945 98.4832 30.5945 98.5922ZM45.4783 102.264C46.0496 102.838 46.219 103.406 46.219 104.692V109.136C46.219 109.242 46.1414 109.337 46.018 109.337H45.4927C45.3836 109.337 45.2918 109.242 45.2918 109.136V104.442C45.2918 102.898 44.5971 102.175 43.1159 102.175C42.0365 102.175 41.3878 102.591 41.3878 103.286V109.136C41.3878 109.242 41.2931 109.337 41.1725 109.337H40.6472C40.5381 109.337 40.4462 109.242 40.4462 109.136V104.52C40.4462 103.222 40.1047 102.605 39.2578 102.313C38.965 102.224 38.6694 102.175 38.3479 102.175C37.1279 102.175 36.5394 102.513 36.5394 103.208V109.136C36.5394 109.242 36.4475 109.337 36.3241 109.337H35.7988C35.6897 109.337 35.5979 109.242 35.5979 109.136V101.85C35.5979 101.744 35.6897 101.649 35.7988 101.649H36.2007C36.3385 101.649 36.3701 101.695 36.3701 101.833V101.925C36.3701 102.002 36.4188 102.051 36.5078 102.051C36.5882 102.051 36.6313 102.031 36.8494 101.925C37.3432 101.664 38.0235 101.526 38.6694 101.526C39.5506 101.526 40.0903 101.71 40.63 102.252C40.7534 102.361 40.8165 102.407 40.8768 102.407C41.0031 102.407 41.0318 102.39 41.2328 102.252C41.9562 101.744 42.6537 101.526 43.4718 101.526C44.333 101.526 44.9846 101.758 45.4783 102.264ZM13.1214 102.112C13.506 102.499 13.6294 102.855 13.6294 103.61V107.003H13.6266C13.6122 108.41 12.5243 109.259 11.0718 109.452C10.3972 109.543 9.75992 109.457 9.24035 109.242H9.24322C9.20877 109.231 9.17624 109.217 9.14562 109.202C9.11117 109.187 9.07672 109.169 9.04228 109.15C8.37343 108.817 7.99452 108.229 7.99452 107.436C7.99452 106.374 8.62892 105.754 10.2938 105.154L12.1942 104.474C12.596 104.336 12.6879 104.198 12.6879 103.797V103.518C12.6879 102.591 12.1626 102.157 11.0517 102.157C10.2336 102.157 9.56759 102.361 8.81551 102.823C8.75235 102.869 8.67198 102.898 8.62892 102.898C8.53419 102.898 8.47391 102.806 8.47391 102.683V102.376C8.47391 102.224 8.54854 102.126 8.81551 102.02C9.55324 101.71 10.4489 101.526 11.1722 101.526C12.1454 101.526 12.6879 101.681 13.1214 102.112ZM12.6879 105.028L10.9569 105.617C9.45851 106.142 8.93607 106.604 8.93607 107.451C8.93607 107.907 9.14275 108.272 9.4987 108.51C9.78002 108.691 10.3771 108.777 10.9024 108.711C11.9645 108.576 12.6133 108.082 12.6879 107.178V105.028ZM27.4139 102.112C27.8014 102.496 27.9248 102.852 27.9248 103.607V107.003C27.9047 108.407 26.8197 109.256 25.3672 109.449C24.6955 109.541 24.0525 109.454 23.5358 109.239C23.5051 109.228 23.4736 109.214 23.441 109.199C23.4066 109.184 23.3721 109.166 23.3377 109.147C22.6688 108.814 22.2899 108.226 22.2899 107.436C22.2899 106.371 22.9243 105.751 24.5892 105.151L26.4896 104.474C26.8886 104.333 26.9804 104.196 26.9804 103.794V103.515C26.9804 102.588 26.458 102.157 25.3442 102.157C24.529 102.157 23.8659 102.358 23.1109 102.821C23.0449 102.867 22.9703 102.895 22.9243 102.895C22.8325 102.895 22.7693 102.803 22.7693 102.68V102.373C22.7693 102.221 22.8468 102.123 23.1109 102.02C23.8487 101.71 24.7443 101.523 25.4676 101.523C26.4408 101.523 26.9804 101.678 27.4139 102.112ZM26.9804 105.028L25.2523 105.617C23.7539 106.139 23.2315 106.601 23.2315 107.451C23.2315 107.904 23.441 108.269 23.7941 108.51C24.0754 108.688 24.6754 108.774 25.1978 108.708C26.257 108.576 26.9115 108.082 26.9804 107.175V105.028ZM6.57646 98.5922V109.133C6.57646 109.242 6.48461 109.337 6.37553 109.337H5.988C5.85021 109.337 5.78706 109.291 5.78706 109.167V109.058C5.78706 108.978 5.75548 108.949 5.68085 108.949C5.63492 108.949 5.61769 108.949 5.46268 109.027C4.78523 109.337 4.25992 109.46 3.56524 109.46C1.45251 109.46 0 107.884 0 105.571C0 103.177 1.48122 101.523 3.6284 101.523C4.27427 101.523 4.90867 101.678 5.37083 101.974C5.46269 102.031 5.49426 102.031 5.52584 102.031C5.60047 102.031 5.63683 101.986 5.63492 101.896V98.5922C5.63492 98.4832 5.72678 98.3884 5.83299 98.3884H6.37553C6.48461 98.3884 6.57646 98.4832 6.57646 98.5922ZM5.63492 103.188C5.63492 102.602 4.90866 102.218 3.79489 102.218C2.00652 102.218 0.941544 103.438 0.941544 105.49C0.941544 107.574 2.02088 108.809 3.79489 108.809C4.94024 108.809 5.63492 108.424 5.63492 107.792V103.188ZM53.0021 102.112C53.3896 102.496 53.5131 102.852 53.5131 103.607V107.003C53.4958 108.407 52.4079 109.256 50.9554 109.449C50.2808 109.541 49.6435 109.454 49.1211 109.239C49.1249 109.239 49.1268 109.239 49.1268 109.239C49.0924 109.228 49.0598 109.214 49.0292 109.199C48.9948 109.184 48.9594 109.166 48.923 109.147C48.257 108.814 47.8781 108.226 47.8781 107.436C47.8781 106.371 48.5097 105.751 50.1775 105.151L52.0749 104.474C52.4768 104.333 52.5715 104.196 52.5715 103.794V103.515C52.5715 102.588 52.0433 102.157 50.9353 102.157C50.1143 102.157 49.4541 102.358 48.6962 102.821C48.6331 102.867 48.5585 102.895 48.5097 102.895C48.4178 102.895 48.3575 102.803 48.3575 102.68V102.373C48.3575 102.221 48.435 102.123 48.6962 102.017C49.4368 101.71 50.3325 101.523 51.0587 101.523C52.029 101.523 52.5715 101.678 53.0021 102.112ZM52.5715 105.028L50.8406 105.617C49.345 106.139 48.8197 106.601 48.8197 107.451C48.8197 107.904 49.0264 108.269 49.3823 108.51C49.6636 108.688 50.2607 108.774 50.786 108.708C51.8453 108.573 52.4969 108.082 52.5715 107.175V105.028Z" fill="#87736A"/>
<path fill-rule="evenodd" clip-rule="evenodd" d="M76.9681 92.3862V93.4856C76.9681 93.6263 76.8446 93.7526 76.704 93.7526H71.2959V93.744C71.2184 93.7239 71.1581 93.655 71.1581 93.5717V93.0866C71.1581 93.0034 71.2184 92.9345 71.2959 92.9172V92.9115H71.3274C71.3313 92.9096 71.3341 92.9086 71.3361 92.9086H72.5905V92.9115H76.1241V92.6474C76.1241 91.2753 75.7912 90.3136 75.108 89.4726C74.5252 88.7607 73.6813 88.2181 72.5905 87.8277L72.2116 87.7043C72.2077 87.7024 72.203 87.6995 72.1972 87.6957C72.1934 87.6938 72.1886 87.6919 72.1829 87.6899V87.6871C72.1053 87.644 72.0623 87.5464 72.091 87.4574L72.1742 86.9465C72.1886 86.8403 72.2029 86.7312 72.3321 86.7714C72.9694 86.9264 73.4976 87.1331 74.0315 87.4172C74.6477 87.7445 75.173 88.1473 75.6074 88.6257C76.0418 89.1022 76.3777 89.6534 76.615 90.2792C76.8504 90.8973 76.9681 91.5996 76.9681 92.3862ZM58.7515 83.875V93.721C58.7515 93.8301 58.6539 93.9219 58.5305 93.9219H58.008C57.8989 93.9219 57.8071 93.8301 57.8071 93.721V83.875C57.8071 83.7687 57.8989 83.674 58.008 83.674H58.5305C58.6539 83.674 58.7515 83.7687 58.7515 83.875ZM68.8501 83.875V93.721C68.8501 93.8301 68.7554 93.9219 68.632 93.9219H68.1067C67.9976 93.9219 67.9057 93.8301 67.9057 93.721V83.875C67.9057 83.7687 67.9976 83.674 68.1067 83.674H68.632C68.7554 83.674 68.8501 83.7687 68.8501 83.875ZM65.2045 86.889V95.0386C65.2045 96.2873 64.5845 96.936 63.3501 96.936C62.687 96.936 62.3799 96.8298 62.3799 96.5944V96.2873C62.3799 96.1925 62.4229 96.1323 62.5033 96.1323C62.5464 96.1323 62.6268 96.1495 62.7043 96.1811C62.8736 96.2413 63.0889 96.2873 63.2583 96.2873C64.0132 96.2873 64.263 95.9772 64.263 95.0845V86.889C64.263 86.7828 64.352 86.6881 64.461 86.6881H65.0036C65.1127 86.6881 65.2045 86.7828 65.2045 86.889ZM14.5477 84.0788C14.5477 83.6539 14.7372 83.4702 15.1247 83.4702C15.5438 83.4702 15.716 83.6424 15.716 84.0529C15.716 84.5036 15.5581 84.6615 15.1247 84.6615C14.7084 84.6615 14.5477 84.5036 14.5477 84.0788ZM4.82222 84.4979C4.82222 84.0759 5.00881 83.8922 5.39921 83.8922C5.81544 83.8922 5.99054 84.0615 5.99054 84.472C5.99054 84.9227 5.83266 85.0806 5.39921 85.0806C4.9801 85.0806 4.82222 84.9227 4.82222 84.4979ZM3.07405 84.4979C3.07405 84.0759 3.26063 83.8922 3.65103 83.8922C4.06726 83.8922 4.24236 84.0615 4.24236 84.472C4.24236 84.9227 4.08448 85.0806 3.65103 85.0806C3.23479 85.0806 3.07405 84.9227 3.07405 84.4979ZM17.7398 87.2278H17.7369C17.7455 88.0488 17.7455 89.3893 17.7455 90.2534C17.7455 92.5613 16.5485 93.9162 14.5132 93.9162L14.4013 93.9105H6.37806L6.28046 93.899C6.26611 93.9018 6.34936 93.9076 6.33214 93.9076H5.97045C5.84414 93.9076 4.1706 93.9047 3.52186 93.9047C1.54978 93.9047 0.03125 92.4579 0.03125 90.3366C0.03125 88.1435 1.57561 86.6307 3.57926 86.6307C4.18495 86.6307 5.72645 86.6364 5.82692 86.6364H6.33214C6.43261 86.6364 6.51872 86.7168 6.51872 86.8202V93.1641H12.3775C11.6886 92.5441 11.3212 91.5365 11.3212 90.1845C11.3231 89.9376 11.3374 89.7032 11.3642 89.4812H11.3585C11.347 88.8525 11.68 88.2727 11.9441 87.7158C12.4809 86.912 13.3564 86.4843 14.5362 86.4843H14.8032V86.4814H15.3744C15.9342 86.4786 16.56 86.4757 17.0279 86.4814H17.757L17.7398 87.2278ZM5.6432 87.6813C5.63746 87.4459 5.50254 87.2766 5.16956 87.2852C4.84518 87.2622 4.25672 87.268 3.73715 87.268C2.06935 87.268 0.909642 88.3846 0.909642 90.2648C0.909642 92.1738 2.0837 93.21 3.73715 93.21C4.25959 93.21 4.97436 93.2187 5.27003 93.2158C5.62885 93.2072 5.6432 93.0722 5.6432 92.7737V87.6813ZM16.87 87.2249C16.8681 87.2249 16.8461 87.2249 16.8039 87.2249L14.5305 87.222C13.0464 87.222 12.2024 88.2267 12.2024 90.1959C12.2024 92.1766 13.0493 93.1612 14.5506 93.1612C16.0461 93.1612 16.87 92.1594 16.87 90.15C16.87 89.3606 16.8901 87.245 16.87 87.2249ZM54.1557 83.8233V91.7059C54.1557 93.2761 53.7366 93.9133 52.7291 93.9133H52.5138C52.4812 93.9114 52.4516 93.9076 52.4248 93.9018V93.9076H46.9707C46.5028 93.9104 45.8741 93.9076 45.3173 93.9076H44.746H44.4791C43.2993 93.9076 42.4237 93.477 41.8869 92.6704C41.4908 93.3335 40.7215 93.7497 39.7886 93.8703C39.7598 93.8731 39.6278 93.8789 39.4326 93.8817L39.3838 93.8875C38.8585 93.9162 38.2011 93.9162 37.5495 93.899C37.0098 93.9018 35.8329 93.8904 35.7755 93.8904C34.9545 93.8444 34.3345 93.7267 34.0761 93.6377C33.525 93.4425 33.0169 93.1708 32.5519 92.8225L32.4112 92.7163L32.2591 92.7995C31.5816 93.1641 30.8697 93.4483 30.1492 93.6406C29.4344 93.8329 28.7225 93.9334 28.0365 93.9334H23.4321V95.0357C23.4321 96.2844 22.812 96.9331 21.5806 96.9331C20.9146 96.9331 20.6046 96.8269 20.6046 96.5915V96.2844C20.6046 96.1926 20.6534 96.1294 20.7309 96.1294C20.7797 96.1294 20.8543 96.1466 20.9318 96.1782C21.1012 96.2385 21.3165 96.2844 21.4858 96.2844C22.2437 96.2844 22.4905 95.9773 22.4905 95.0816V86.8862C22.4905 86.78 22.5824 86.6852 22.6915 86.6852H23.2311C23.3402 86.6852 23.4321 86.78 23.4321 86.8862V93.1842H27.5485V93.1813H27.8154C29.0498 93.1813 30.2841 92.9086 31.4811 92.3661L31.8285 92.1795L31.5357 91.8436C31.2257 91.4647 30.9874 91.2207 30.7434 90.9509C30.4927 90.6753 30.2363 90.4275 29.9741 90.2074C29.8114 90.0715 29.6402 89.9414 29.4603 89.817V89.8256C29.4603 89.8256 29.3885 89.7711 29.2737 89.6936C29.2258 89.663 29.177 89.6324 29.1273 89.6017C29.0813 89.5749 29.0354 89.5482 28.9895 89.5214C28.9646 89.508 28.9407 89.4936 28.9177 89.4783C28.5733 89.2917 28.0824 89.1625 28.0824 89.1625C27.9015 89.1023 27.8585 89.0764 27.8298 88.9501L27.7523 88.6315C27.7178 88.4679 27.7724 88.3559 28.025 88.1808C28.1628 88.0832 28.3063 87.9894 28.4556 87.8995C29.0105 87.5474 29.5875 87.2536 30.1865 87.0182C30.8276 86.7675 31.4601 86.6422 32.084 86.6422C32.6045 86.6441 33.0552 86.7111 33.436 86.8431C33.8073 86.9771 34.1182 87.1579 34.3689 87.3857C34.6139 87.6096 34.7976 87.8727 34.9201 88.1751C35.0425 88.4774 35.1047 88.8047 35.1067 89.1568C35.1067 89.5673 34.9775 90.0208 34.7249 90.4945C34.4646 90.9786 34.0771 91.4465 33.5623 91.8982L33.2035 92.1795L33.37 92.3058C33.7058 92.5699 34.2914 92.7967 34.6904 92.9545C35.1239 93.1297 37.8538 93.1584 38.9618 93.1756C39.3321 93.1756 39.6048 93.1756 39.6364 93.1698C40.6239 93.0435 41.2324 92.5957 41.3013 91.7633V90.9078H41.3042C41.2774 90.6858 41.264 90.4514 41.264 90.2045C41.264 87.8134 42.4036 86.4987 44.4618 86.4987C46.5085 86.4987 47.6912 87.8277 47.6912 90.1328C47.6912 91.0026 47.6855 92.3403 47.6769 93.1612L52.4076 93.1584C52.4229 93.1526 52.4391 93.1507 52.4563 93.1526H52.5568C53.1194 93.1526 53.2773 92.8426 53.2773 91.7374V83.8233C53.2773 83.7257 53.3634 83.6396 53.4639 83.6396H53.9663C54.0696 83.6396 54.1557 83.7257 54.1557 83.8233ZM33.7288 90.5174C34.0063 90.1079 34.145 89.7022 34.145 89.3003C34.1431 88.7262 33.9326 88.2717 33.5135 87.9368C33.1116 87.6172 32.5873 87.4574 31.9404 87.4574C31.4046 87.4574 30.9099 87.556 30.4563 87.7531C30.02 87.9425 29.5406 88.1693 29.1244 88.4593L28.8029 88.6516L28.912 88.6918C29.4746 88.8324 30.3645 89.4008 30.8668 89.8228C31.3807 90.2591 31.9376 90.7873 32.4313 91.4877L32.6121 91.7231L32.8274 91.5336C33.1949 91.2092 33.4704 90.8964 33.7288 90.5174ZM46.81 90.2361C46.81 88.2239 45.989 87.0929 44.4905 87.0929C42.9921 87.0929 42.1453 88.2095 42.1453 90.1902C42.1453 92.1565 42.9892 93.1612 44.4733 93.1612H46.7439C46.786 93.1612 46.809 93.1603 46.8128 93.1584C46.83 93.144 46.81 91.0255 46.81 90.2361Z" fill="#87736A"/>
</svg>
