<?xml version="1.0" encoding="UTF-8"?>
<svg version="1.1" xmlns="http://www.w3.org/2000/svg" width="353" height="358">
<path d="M0 0 C0.86061035 0.20399414 1.7212207 0.40798828 2.60791016 0.61816406 C43.23685995 10.51080575 81.12211787 29.47696207 111 59 C111.85980469 59.8353125 112.71960938 60.670625 113.60546875 61.53125 C131.22374427 79.68171508 142.09288528 104.4128243 147 129 C147.27710815 130.38517822 147.27710815 130.38517822 147.55981445 131.79833984 C149.2632818 141.40768165 149.35708111 150.89916569 149.3125 160.625 C149.31034485 161.46893311 149.3081897 162.31286621 149.30596924 163.18237305 C149.2560146 175.35744366 148.92993126 187.12759212 146 199 C145.70198486 200.26408691 145.70198486 200.26408691 145.39794922 201.55371094 C137.38765595 234.97493454 122.73725635 266.95903973 100 293 C99.35546875 293.7528125 98.7109375 294.505625 98.046875 295.28125 C95.74719895 297.90458416 93.3902843 300.45878733 91 303 C90.19731689 303.85368164 90.19731689 303.85368164 89.37841797 304.72460938 C63.16937096 332.36827218 29.68086573 348.71284188 -8 354 C-8.91136719 354.13148438 -9.82273438 354.26296875 -10.76171875 354.3984375 C-51.75558121 359.16067584 -96.90527626 348.33462299 -129.875 323.0625 C-151.52401024 305.62906336 -167.84584456 285.46683258 -181 261 C-181.36722168 260.31776367 -181.73444336 259.63552734 -182.11279297 258.93261719 C-204.04034996 217.3433851 -210.45953778 164.96069054 -196.62207031 119.81494141 C-185.45778924 85.37819762 -163.73155487 57.54025009 -134 37 C-133.09540039 36.37448242 -132.19080078 35.74896484 -131.25878906 35.10449219 C-90.39585348 7.03414063 -50.66098334 -12.11200156 0 0 Z M-62 12 C-62 12.33 -62 12.66 -62 13 C-60.88044922 12.89171875 -60.88044922 12.89171875 -59.73828125 12.78125 C-50.6661504 12.03644564 -41.60095279 11.82940781 -32.5 11.75 C-30.70429565 11.7180957 -30.70429565 11.7180957 -28.87231445 11.68554688 C-14.82059615 11.63204927 -1.93130001 14.97680377 11.3125 19.4375 C12.26787659 19.75738892 12.26787659 19.75738892 13.24255371 20.08374023 C49.91307564 32.44122245 88.74093062 50.42996929 107.23046875 86.21484375 C128.61005112 129.33378478 132.33473246 189.85537768 117 235.5625 C116.26651873 237.66639567 115.51880559 239.76435505 114.76171875 241.85986328 C113.44732154 245.55281389 112.22630843 249.27704502 111 253 C112.32 253.33 113.64 253.66 115 254 C115.37511719 252.83855469 115.75023437 251.67710937 116.13671875 250.48046875 C117.56980181 246.17786143 119.1219729 241.92419166 120.70703125 237.67578125 C131.75062672 208.48741843 131.75062672 208.48741843 138 178 C138.10957031 177.14277344 138.21914063 176.28554687 138.33203125 175.40234375 C142.24031333 140.01936335 132.91090506 105.82199124 111 77.75 C109.67893474 76.15641637 108.34560336 74.57291888 107 73 C106.32582031 72.20335938 105.65164063 71.40671875 104.95703125 70.5859375 C89.43375093 52.77233713 70.88999221 39.82423583 50 29 C48.83855469 28.38640625 47.67710937 27.7728125 46.48046875 27.140625 C18.3058965 13.10163814 -31.84866659 -4.83245171 -62 12 Z M-92 35 C-93.38638672 35.75796875 -93.38638672 35.75796875 -94.80078125 36.53125 C-116.39137565 48.92776353 -135.75913152 67.45550499 -151 87 C-151.8877658 88.06618931 -152.77855021 89.1298703 -153.671875 90.19140625 C-175.4423287 116.39000499 -181.23720972 148.24461962 -181.1875 181.5 C-181.18656342 182.30501953 -181.18562683 183.11003906 -181.18466187 183.93945312 C-181.12198747 208.73751747 -178.10388829 231.51898638 -167 254 C-166.70254883 254.62181152 -166.40509766 255.24362305 -166.09863281 255.88427734 C-148.96749756 291.48925845 -116.13960075 319.54937843 -79.06103516 332.68701172 C-49.59768479 342.71328179 -15.69487376 345.45778257 12.8125 331.71875 C29.99026614 323.15822377 46.65069787 312.81268395 61 300 C61.49290527 299.56059082 61.98581055 299.12118164 62.49365234 298.66845703 C66.04160047 295.49316951 69.52975155 292.25993036 73 289 C73.63550781 288.41863281 74.27101563 287.83726562 74.92578125 287.23828125 C100.13837637 263.34949781 115.99556849 227.67214595 117.12597656 193.15307617 C118.01279226 150.65690493 115.94462709 101.22763361 84.796875 68.69921875 C77.97447519 62.15920304 70.19727815 57.55871968 62 53 C61.30825684 52.60699707 60.61651367 52.21399414 59.90380859 51.80908203 C12.79831951 25.16930122 -41.82594411 7.2666009 -92 35 Z M-133 52 C-133.33 52.66 -133.66 53.32 -134 54 C-133.01 53.67 -132.02 53.34 -131 53 C-131.66 52.67 -132.32 52.34 -133 52 Z M-145 61 C-145.90685547 61.69996094 -145.90685547 61.69996094 -146.83203125 62.4140625 C-172.85179604 83.25424882 -188.09293322 122.45847269 -191.71875 154.7421875 C-192.96758338 171.06508025 -192.21173798 186.96042758 -189 203 C-188.67 203 -188.34 203 -188 203 C-188.01571045 201.79690186 -188.0314209 200.59380371 -188.04760742 199.35424805 C-188.10283863 194.79360941 -188.13668068 190.2329987 -188.16479492 185.67211914 C-188.17967325 183.71633905 -188.1999823 181.76059101 -188.22631836 179.80493164 C-188.56338877 154.08844176 -184.32537175 130.20878826 -173 107 C-172.69191406 106.36465332 -172.38382813 105.72930664 -172.06640625 105.07470703 C-165.23801307 91.18771033 -156.56486606 79.29279911 -146 68 C-141.90960561 63.40756526 -137.91358528 58.74373974 -134 54 C-138.18086409 54 -141.86747878 58.4629167 -145 61 Z " fill="#FFFFFF" transform="translate(203,3)"/>
<path d="M0 0 C4.40789844 0.50436025 5.7132437 2.16864639 8.71484375 5.375 C9.43522827 6.13321045 9.43522827 6.13321045 10.17016602 6.90673828 C13.31438107 10.24088657 16.36019619 13.66359346 19.3359375 17.1484375 C21.92216213 20.11453014 24.59993013 22.99131604 27.27734375 25.875 C31.69367678 30.6391133 36.04651229 35.44441269 40.27734375 40.375 C41.14552734 41.38433594 41.14552734 41.38433594 42.03125 42.4140625 C43.44914862 44.06553607 44.86364094 45.71993329 46.27734375 47.375 C51.60081305 42.88507392 56.71738981 38.22137416 61.77734375 33.4375 C62.49792969 32.76009766 63.21851563 32.08269531 63.9609375 31.38476562 C67.966276 27.60757931 71.89662787 23.77027607 75.77636719 19.86450195 C78.13608171 17.52282689 80.63752886 15.37549174 83.16796875 13.22265625 C84.67739344 11.90051203 86.1420077 10.52651174 87.57421875 9.12109375 C93.53016984 3.375 93.53016984 3.375 97.83984375 3.375 C98.64421875 3.705 99.44859375 4.035 100.27734375 4.375 C100.71484375 6.875 100.71484375 6.875 100.27734375 10.375 C96.17256311 16.16426785 90.67609572 20.97806869 85.46484375 25.75 C80.00384052 30.80369083 74.67484173 35.93367432 69.453125 41.234375 C66.80579513 43.83892935 64.02887885 46.24792118 61.1640625 48.609375 C59.50126396 50.16545148 58.1044463 51.7324269 56.65942383 53.48535156 C55.8733374 54.43893555 55.08725098 55.39251953 54.27734375 56.375 C57.68791507 59.81053609 61.10194565 63.24258565 64.51904297 66.67163086 C65.67784694 67.83542274 66.83574697 69.00011549 67.99267578 70.16577148 C76.56398337 78.82174084 76.56398337 78.82174084 85.63647461 86.94458008 C88.51649265 89.4552222 91.29088449 92.09030359 93.27734375 95.375 C93.21937933 98.04136347 93.18451184 99.46783191 91.27734375 101.375 C85.57937281 101.0990692 82.9518137 99.82004236 78.90234375 95.875 C78.38776611 95.38032227 77.87318848 94.88564453 77.34301758 94.37597656 C75.30088828 92.39542043 73.28956143 90.38596188 71.27734375 88.375 C70.26477879 87.36884556 69.25189726 86.36300965 68.23876953 85.35742188 C60.88936519 78.05864333 53.5736937 70.72678685 46.27734375 63.375 C45.01444269 64.30000301 43.75463467 65.22922962 42.49609375 66.16015625 C41.44325195 66.93564819 41.44325195 66.93564819 40.36914062 67.72680664 C37.70414108 69.82664464 35.39681553 72.17353922 33.0390625 74.60546875 C30.66204317 76.99302918 28.12445868 79.16394643 25.57421875 81.36328125 C22.78892691 83.80278006 20.06379623 86.30512828 17.33984375 88.8125 C16.30862351 89.75654292 15.27737377 90.70055363 14.24609375 91.64453125 C12.37748201 93.35722468 10.52679538 95.08372564 8.68359375 96.82421875 C7.91015625 97.54222656 7.13671875 98.26023437 6.33984375 99 C5.67082031 99.63164062 5.00179687 100.26328125 4.3125 100.9140625 C1.94742404 102.61183296 0.15857609 103.09223947 -2.72265625 103.375 C-3.72265625 102.375 -3.72265625 102.375 -4.0184021 100.08320618 C-3.633576 96.55927368 -2.48760495 95.52305568 0.00927734 93.04370117 C0.82367279 92.223228 1.63806824 91.40275482 2.47714233 90.55741882 C3.36769318 89.6864003 4.25824402 88.81538177 5.17578125 87.91796875 C6.53372299 86.56352409 6.53372299 86.56352409 7.9190979 85.18171692 C9.83534881 83.27521323 11.75552524 81.37412516 13.68457031 79.48071289 C16.16045566 77.05019584 18.62072317 74.60459123 21.07587242 72.1531477 C23.41574265 69.81876133 25.76449548 67.49337957 28.11328125 65.16796875 C28.99978363 64.28682907 29.88628601 63.40568939 30.7996521 62.49784851 C31.62035187 61.69313614 32.44105164 60.88842377 33.28662109 60.05932617 C34.01054047 59.3460466 34.73445984 58.63276703 35.48031616 57.89787292 C37.27734375 56.375 37.27734375 56.375 39.27734375 56.375 C34.4800377 50.32990981 29.55088709 44.50481841 24.27734375 38.875 C19.86413812 34.15705324 15.68320633 29.32683507 11.65234375 24.2734375 C9.838885 22.06030199 7.99736449 19.91867637 6.08984375 17.7890625 C5.54134766 17.17087646 4.99285156 16.55269043 4.42773438 15.91577148 C3.35278056 14.70867468 2.26853584 13.5097679 1.17382812 12.32055664 C-1.9507796 8.7900161 -3.54869045 6.28228541 -3.72265625 1.375 C-2.72265625 0.375 -2.72265625 0.375 0 0 Z " fill="#FFFFFF" transform="translate(128.72265625,127.625)"/>
</svg>
