<svg width="40" height="40" viewBox="0 0 40 40" fill="none" xmlns="http://www.w3.org/2000/svg">
<rect x="0.5" y="0.5" width="39" height="39" rx="19.5" stroke="white"/>
<g clip-path="url(#clip0_1648_40382)">
<path d="M27.5 18.3333C27.5 24.1667 20 29.1667 20 29.1667C20 29.1667 12.5 24.1667 12.5 18.3333C12.5 16.3442 13.2902 14.4366 14.6967 13.03C16.1032 11.6235 18.0109 10.8333 20 10.8333C21.9891 10.8333 23.8968 11.6235 25.3033 13.03C26.7098 14.4366 27.5 16.3442 27.5 18.3333Z" stroke="white" stroke-width="1.66667" stroke-linecap="round" stroke-linejoin="round"/>
<path d="M20 20.8333C21.3807 20.8333 22.5 19.7141 22.5 18.3333C22.5 16.9526 21.3807 15.8333 20 15.8333C18.6193 15.8333 17.5 16.9526 17.5 18.3333C17.5 19.7141 18.6193 20.8333 20 20.8333Z" stroke="white" stroke-width="1.66667" stroke-linecap="round" stroke-linejoin="round"/>
</g>
<defs>
<clipPath id="clip0_1648_40382">
<rect width="20" height="20" fill="white" transform="translate(10 10)"/>
</clipPath>
</defs>
</svg>
