<?xml version="1.0" encoding="UTF-8"?>
<svg version="1.1" xmlns="http://www.w3.org/2000/svg" width="308" height="438">
<path d="M0 0 C0.64533691 0.19867676 1.29067383 0.39735352 1.95556641 0.60205078 C13.35405757 4.20200009 23.6361671 9.20625045 32 18 C35.03602724 16.61692092 37.33954804 14.96812745 39.875 12.8125 C60.99942126 -3.75567354 89.27469284 -5.34789525 115.0625 -2.68359375 C135.09244948 0.38647291 153.19846653 10.20662652 166 26 C178.57833257 43.50094531 183.13638394 64.53802846 183.16113281 85.72607422 C183.16609772 86.76000809 183.17106262 87.79394196 183.17617798 88.85920715 C183.19070223 92.25770757 183.19758712 95.65616123 183.203125 99.0546875 C183.20595238 100.22526829 183.20877975 101.39584908 183.21169281 102.60190201 C183.22664989 108.80296298 183.23589996 115.00400091 183.24023438 121.20507812 C183.24569806 127.56024928 183.26969178 133.91520393 183.29820633 140.27030754 C183.31698163 145.20019106 183.32204628 150.13002411 183.32357025 155.05994034 C183.3265664 157.39992576 183.33448989 159.73991095 183.34775543 162.07986069 C183.50323624 191.62645065 180.09064863 219.04461816 158.7578125 241.34375 C141.39814011 257.96350193 119.17867217 263.41927102 95.6875 263.3125 C94.41092529 263.30758545 93.13435059 263.3026709 91.8190918 263.29760742 C79.64343297 263.1461399 66.11841113 262.68319651 56 255 C51.65357905 250.02121043 49.34269945 245.42699446 48.6875 238.875 C49.18786696 232.67044967 50.99529161 226.36252316 55.75 222.0625 C63.32672973 217.25419075 69.09482242 216.29338816 78 218 C78.96550781 218.33128906 79.93101562 218.66257813 80.92578125 219.00390625 C92.17865561 222.65000912 105.70597486 221.67296654 116.4375 216.8125 C125.40726125 211.811531 128.91481946 204.31686106 131.65234375 194.7109375 C133.75445266 186.02631235 134.14930475 177.1629017 134.16113281 168.26196289 C134.16609772 167.34492584 134.17106262 166.42788879 134.17617798 165.48306274 C134.19065938 162.47958597 134.19757959 159.47616206 134.203125 156.47265625 C134.20595238 155.43538328 134.20877975 154.39811031 134.21169281 153.32940483 C134.2266318 147.8350792 134.23589347 142.34077945 134.24023438 136.84643555 C134.24569745 131.22553768 134.2696951 125.60488466 134.29820633 119.98406315 C134.3170083 115.61434785 134.32204765 111.24468935 134.32357025 106.87493706 C134.32656012 104.80568549 134.33446124 102.736434 134.34775543 100.66722298 C134.84962732 72.54082035 134.84962732 72.54082035 123.1484375 47.82421875 C118.65755732 43.50331213 114.01744532 41.41387343 108 40 C107.05125 39.773125 106.1025 39.54625 105.125 39.3125 C94.26126177 38.22612618 81.56140852 38.23752047 72.375 44.875 C62.00080683 53.90275533 59.4278933 65.82192141 58 79 C57.55682723 85.94089663 57.57921526 92.89503018 57.58930969 99.84743881 C57.59386382 103.26510378 57.57957644 106.68227126 57.56091309 110.09988403 C57.52446376 117.35824845 57.51048037 124.61655764 57.5 131.875 C57.48783274 140.29278444 57.46591671 148.71032076 57.41999817 157.12799454 C57.40663211 160.45944814 57.41056029 163.79057092 57.41540527 167.12203979 C57.37438632 182.94991482 56.70992015 199.1172377 50.75 214 C50.29439697 215.17840454 50.29439697 215.17840454 49.82958984 216.38061523 C41.89840546 236.19630516 27.46799826 249.09357109 8.28515625 257.65234375 C1.73223266 260.34052287 -4.88163417 261.41789452 -11.734375 259.05859375 C-18.15022031 256.03099811 -21.86224503 252.81350432 -24.8125 246.3125 C-26.76963703 240.52807278 -26.45371426 235.06300997 -23.83203125 229.5390625 C-19.44608874 222.46040998 -14.30430939 219.04204141 -6.875 215.625 C-0.59758149 212.51482447 1.80320502 209.34614107 4.1484375 202.7890625 C7.32017546 192.41905399 8.1477397 182.46795571 8.16113281 171.67944336 C8.16609772 170.7006723 8.17106262 169.72190125 8.17617798 168.71347046 C8.19066904 165.50558748 8.19758032 162.29775396 8.203125 159.08984375 C8.20595238 157.98387911 8.20877975 156.87791447 8.21169281 155.73843575 C8.2266338 149.88332001 8.2358949 144.02822859 8.24023438 138.1730957 C8.24570568 132.17086689 8.26972034 126.16886642 8.29820633 120.16670895 C8.31696664 115.51055786 8.32204543 110.85446028 8.32357025 106.19827461 C8.3265681 103.98781654 8.33449764 101.77735875 8.34775543 99.5669384 C8.44714823 81.71939622 7.92143325 65.86626152 -1 50 C-1.33 49.01 -1.66 48.02 -2 47 C-3.85488357 45.88220231 -3.85488357 45.88220231 -6 45 C-6.57878906 44.67 -7.15757813 44.34 -7.75390625 44 C-19.40368549 37.55865338 -33.37128831 37.76704981 -46 41 C-53.31464738 43.86322589 -58.6449521 48.3132215 -62.18359375 55.35546875 C-67.15751126 67.10703209 -68.1519356 79.27122052 -68.14526367 91.90917969 C-68.14862228 92.84400177 -68.1519809 93.77882385 -68.15544128 94.74197388 C-68.1648627 97.80195481 -68.16688995 100.86188051 -68.16796875 103.921875 C-68.1711875 106.07122825 -68.17455202 108.22058128 -68.17805481 110.36993408 C-68.18402411 114.86511747 -68.18589698 119.36028169 -68.18530273 123.85546875 C-68.18520125 129.58217788 -68.19884924 135.30876264 -68.21607494 141.03544235 C-68.2272577 145.4727229 -68.22922002 149.90997397 -68.22869301 154.34726715 C-68.22986384 156.45692625 -68.23423452 158.56658634 -68.24202538 160.67623138 C-68.73808928 187.4548448 -68.73808928 187.4548448 -57.83203125 211.2265625 C-54.37494565 214.57308033 -50.18526577 216.69180271 -46 219 C-39.9059199 222.65413532 -36.85648479 226.20408097 -34.25 232.9375 C-33.45933184 239.46051229 -33.56219506 245.25886576 -37 251 C-42.24900811 257.01744399 -47.33757442 259.56014853 -55.3125 260.3125 C-70.84171783 258.99646459 -85.80945152 248.78385677 -96.2109375 237.62890625 C-115.24490068 214.83919938 -117.48523198 188.51625087 -117.3984375 160.06640625 C-117.40046491 157.69384166 -117.40338185 155.32127769 -117.40713501 152.94871521 C-117.41152787 148.00440469 -117.40522663 143.06025808 -117.39111328 138.1159668 C-117.37403299 131.83163918 -117.38387518 125.54769643 -117.40183067 119.26338291 C-117.41275922 114.37209767 -117.40918076 109.48090112 -117.4014473 104.58961296 C-117.39946977 102.27475881 -117.40181667 99.95989616 -117.40888596 97.64505196 C-117.47646644 69.30531335 -114.38105594 43.15520709 -95 21 C-94.44570312 20.36191406 -93.89140625 19.72382813 -93.3203125 19.06640625 C-71.75990111 -4.09298302 -29.18078093 -9.15136917 0 0 Z " fill="#FFFFFF" transform="translate(121,3)"/>
<path d="M0 0 C1.32 0 2.64 0 4 0 C4.07420941 5.33851078 4.12863002 10.67672067 4.16479492 16.015625 C4.17987262 17.83143342 4.20033798 19.64720547 4.22631836 21.46289062 C4.2627468 24.07431008 4.27973638 26.68524765 4.29296875 29.296875 C4.30845261 30.10743347 4.32393646 30.91799194 4.33988953 31.75311279 C4.34082338 34.88730358 4.16333749 37.56913563 3.04736328 40.51293945 C-0.35747014 42.98597074 -3.95447067 42.54944663 -8.05078125 42.49609375 C-8.94234421 42.49754898 -9.83390717 42.49900421 -10.75248718 42.50050354 C-12.63963078 42.49884331 -14.52678774 42.48726816 -16.41381836 42.46655273 C-19.2914443 42.43771104 -22.16721494 42.44591846 -25.04492188 42.45898438 C-26.88021724 42.45274327 -28.71550679 42.44434943 -30.55078125 42.43359375 C-31.40722733 42.43652939 -32.2636734 42.43946503 -33.14607239 42.44248962 C-37.23522367 42.37851211 -39.57871172 42.22035507 -43.27807617 40.28540039 C-44.17631104 39.86121826 -45.0745459 39.43703613 -46 39 C-48.58906776 40.24472569 -48.58906776 40.24472569 -51 42 C-53.65966797 42.38818359 -53.65966797 42.38818359 -56.4921875 42.3984375 C-57.52730469 42.40230469 -58.56242187 42.40617187 -59.62890625 42.41015625 C-60.70011719 42.39855469 -61.77132812 42.38695312 -62.875 42.375 C-63.93847656 42.38660156 -65.00195312 42.39820313 -66.09765625 42.41015625 C-72.25351218 42.38721517 -76.50757364 41.74255644 -82 39 C-85.25681265 39.19939669 -87.75305414 39.908572 -90.80517578 41.03857422 C-94.08372604 42.02519587 -96.64419378 42.23047223 -100.0546875 42.1953125 C-101.16328125 42.18886719 -102.271875 42.18242187 -103.4140625 42.17578125 C-104.55617188 42.15902344 -105.69828125 42.14226562 -106.875 42.125 C-108.62296875 42.11146484 -108.62296875 42.11146484 -110.40625 42.09765625 C-113.27104577 42.07417432 -116.13541535 42.04133141 -119 42 C-118.9690625 43.2684375 -118.938125 44.536875 -118.90625 45.84375 C-118.83224783 48.87783895 -118.88481916 49.80803193 -120.5 52.5 C-124.14008723 54.68405234 -126.79654733 54.28023018 -131 54 C-131 52.68 -131 51.36 -131 50 C-128.69 50 -126.38 50 -124 50 C-123.67 37.46 -123.34 24.92 -123 12 C-121.68 12 -120.36 12 -119 12 C-119 20.58 -119 29.16 -119 38 C-113.2765625 37.814375 -113.2765625 37.814375 -107.4375 37.625 C-106.24825928 37.59100098 -105.05901855 37.55700195 -103.83374023 37.52197266 C-98.22682182 37.31334752 -93.30185764 36.87124387 -88 35 C-90.38209254 29.57868595 -94.62870513 26.10996781 -99.9375 23.625 C-100.9584375 23.315625 -100.9584375 23.315625 -102 23 C-102 21.35 -102 19.7 -102 18 C-100.3970947 17.18501438 -98.79262722 16.37310073 -97.1875 15.5625 C-96.29417969 15.11003906 -95.40085938 14.65757812 -94.48046875 14.19140625 C-89.96956317 12.02475082 -85.95211755 11.48415442 -81 12 C-77.47361016 13.26417749 -75.54006335 14.39025106 -73.0625 17.1875 C-71.61618625 21.01597758 -71.77791394 24.16742241 -73 28 C-74.48064838 30.57292997 -76.11688963 32.6823257 -78 35 C-73.16603241 37.82092577 -68.39374872 37.33004421 -62.9375 37.3125 C-61.42833008 37.33666992 -61.42833008 37.33666992 -59.88867188 37.36132812 C-58.92380859 37.36197266 -57.95894531 37.36261719 -56.96484375 37.36328125 C-56.0843335 37.36626221 -55.20382324 37.36924316 -54.29663086 37.37231445 C-51.52108511 36.92236152 -50.63627594 36.25811349 -49 34 C-48.56679995 30.77589308 -48.56679995 30.77589308 -48.5625 27.1875 C-48.27158777 21.4345623 -47.9665906 18.19991946 -44 14 C-39.52935896 11.01957264 -35.24133821 11.39350229 -30 12 C-26.53467516 13.64146966 -24.69484896 14.72887698 -22.85546875 18.09375 C-21.69076997 22.05053488 -21.78641334 25.71595499 -21.875 29.8125 C-21.91625 32.514375 -21.9575 35.21625 -22 38 C-15.07 38 -8.14 38 -1 38 C-0.67 25.46 -0.34 12.92 0 0 Z M-43 19 C-44.68325534 24.04976602 -44.90107581 29.07497442 -42.625 33.9375 C-41.01770773 36.06083743 -41.01770773 36.06083743 -39 38 C-35.87185486 38.24360073 -35.87185486 38.24360073 -32.375 38.125 C-31.18648437 38.10695313 -29.99796875 38.08890625 -28.7734375 38.0703125 C-27.40058594 38.03550781 -27.40058594 38.03550781 -26 38 C-25.9183918 35.62429457 -25.85922778 33.25144159 -25.8125 30.875 C-25.78736328 30.20984375 -25.76222656 29.5446875 -25.73632812 28.859375 C-25.6667764 24.12985758 -26.46218714 20.98714654 -29 17 C-34.53186906 13.3120873 -38.43234965 14.43234965 -43 19 Z M-97 20 C-94.99395497 21.50789962 -92.98500854 23.01104937 -90.96484375 24.5 C-90.29582031 24.995 -89.62679687 25.49 -88.9375 26 C-88.26589844 26.495 -87.59429687 26.99 -86.90234375 27.5 C-85.12732485 28.89960423 -83.55980923 30.36730249 -82 32 C-78.08204127 28.00428283 -78.08204127 28.00428283 -76.5 22.8125 C-76.83039529 20.07717813 -76.83039529 20.07717813 -78 18.1875 C-84.86944838 14.10876502 -90.55337615 16.52300149 -97 20 Z " fill="#FFFFFF" transform="translate(213,334)"/>
<path d="M0 0 C1.15242188 0.00902344 2.30484375 0.01804687 3.4921875 0.02734375 C4.36101562 0.03894531 5.22984375 0.05054688 6.125 0.0625 C6.24174705 3.77056596 6.31243274 7.4781554 6.375 11.1875 C6.40851563 12.23421875 6.44203125 13.2809375 6.4765625 14.359375 C6.55514825 20.5676491 6.46002761 24.43948105 2.125 29.0625 C-1.00188585 31.01152056 -3.42754232 31.32245321 -7.08325195 31.35302734 C-8.12145584 31.36578705 -9.15965973 31.37854675 -10.22932434 31.39169312 C-11.34603012 31.39391876 -12.4627359 31.39614441 -13.61328125 31.3984375 C-15.34447456 31.4084227 -15.34447456 31.4084227 -17.11064148 31.41860962 C-19.55250454 31.428734 -21.99439526 31.43342671 -24.4362793 31.43310547 C-28.16306473 31.43747137 -31.88865902 31.47377544 -35.61523438 31.51171875 C-37.98957929 31.51758843 -40.36392982 31.52155681 -42.73828125 31.5234375 C-44.40423088 31.54499405 -44.40423088 31.54499405 -46.10383606 31.56698608 C-52.59799041 31.52884375 -56.59539382 30.93586225 -61.875 27.0625 C-65.52558943 23.17638867 -65.38019224 18.81469676 -65.22265625 13.71875 C-64.5560234 8.62537542 -62.10664748 6.06538681 -58.24609375 2.921875 C-54.07618418 0.6219017 -51.21641418 0.55943936 -46.5625 0.75 C-45.47098633 0.76450195 -45.47098633 0.76450195 -44.35742188 0.77929688 C-39.04431548 0.89318452 -39.04431548 0.89318452 -37.875 2.0625 C-37.78762355 3.91619611 -37.76801847 5.77317541 -37.77734375 7.62890625 C-37.78056641 8.75361328 -37.78378906 9.87832031 -37.78710938 11.03710938 C-37.79548828 12.22111328 -37.80386719 13.40511719 -37.8125 14.625 C-37.81701172 15.81287109 -37.82152344 17.00074219 -37.82617188 18.22460938 C-37.83800314 21.17059412 -37.85593924 24.11655316 -37.875 27.0625 C-27.975 26.5675 -27.975 26.5675 -17.875 26.0625 C-18.535 24.7425 -19.195 23.4225 -19.875 22.0625 C-20.56237453 15.65295568 -20.75890842 9.47222958 -16.875 4.0625 C-12.295994 -0.516506 -6.12217005 -0.06247112 0 0 Z M-13.875 7.0625 C-16.45770173 11.9931124 -16.18479654 16.78450507 -14.875 22.0625 C-13.52521698 25.23071233 -13.52521698 25.23071233 -10.875 27.0625 C-8.07395998 27.70668169 -5.67743109 27.69549265 -2.875 27.0625 C0.09358157 24.85509319 0.95365791 23.57652627 2.125 20.0625 C2.19551114 17.32384713 2.21857765 14.61222412 2.1875 11.875 C2.18298828 11.12541016 2.17847656 10.37582031 2.17382812 9.60351562 C2.16206354 7.75647617 2.14412865 5.90947787 2.125 4.0625 C-6.53294686 3.29590204 -6.53294686 3.29590204 -13.875 7.0625 Z M-58.0625 7 C-60.44660545 11.0283161 -61.17075649 14.39611983 -60.875 19.0625 C-59.38331386 23.16463689 -58.51897687 24.63318209 -54.875 27.0625 C-50.86000069 27.33124159 -46.90362593 27.14913712 -42.875 27.0625 C-42.875 19.8025 -42.875 12.5425 -42.875 5.0625 C-50.85938712 4.34997426 -50.85938712 4.34997426 -58.0625 7 Z " fill="#FFFFFF" transform="translate(64.875,344.9375)"/>
<path d="M0 0 C2.475 0.495 2.475 0.495 5 1 C5.66 0.67 6.32 0.34 7 0 C8.76770327 -0.12240135 10.54060462 -0.17551153 12.3125 -0.1875 C13.72982422 -0.20876953 13.72982422 -0.20876953 15.17578125 -0.23046875 C18 0 18 0 20.60546875 1.13671875 C22.95094033 2.28899396 22.95094033 2.28899396 25.00390625 1.1484375 C25.66261719 0.76945312 26.32132813 0.39046875 27 0 C31.90397759 -0.68575947 35.79003819 -0.74079295 40.0625 1.875 C43.1914871 5.30679231 43.11982263 7.31653907 43.09765625 11.8828125 C43.09443359 13.04941406 43.09121094 14.21601563 43.08789062 15.41796875 C43.07532227 17.25294922 43.07532227 17.25294922 43.0625 19.125 C43.05798828 20.35605469 43.05347656 21.58710938 43.04882812 22.85546875 C43.0370133 25.90369392 43.02054028 28.95182314 43 32 C41.68 32 40.36 32 39 32 C38.970271 30.98631348 38.970271 30.98631348 38.93994141 29.95214844 C38.84456762 26.88437956 38.73493835 23.81728002 38.625 20.75 C38.5940625 19.68652344 38.563125 18.62304688 38.53125 17.52734375 C38.47324219 15.99013672 38.47324219 15.99013672 38.4140625 14.421875 C38.3826416 13.47924805 38.3512207 12.53662109 38.31884766 11.56542969 C37.9896789 8.91695703 37.42935843 7.24150834 36 5 C33.02050148 3.28389604 33.02050148 3.28389604 25 5 C24.67 13.91 24.34 22.82 24 32 C22.35 31.67 20.7 31.34 19 31 C18.505 18.13 18.505 18.13 18 5 C9.12731854 3.21384365 9.12731854 3.21384365 6 5 C5.67 13.58 5.34 22.16 5 31 C3.35 31.33 1.7 31.66 0 32 C0 21.44 0 10.88 0 0 Z " fill="#FFFFFF" transform="translate(142,406)"/>
<path d="M0 0 C1.65 0 3.3 0 5 0 C5 14.52 5 29.04 5 44 C1 45 1 45 -2 45 C-2.82113281 45.04640625 -3.64226563 45.0928125 -4.48828125 45.140625 C-10.52711898 45.37449423 -14.34685366 45.30416037 -19 41 C-23.09761579 35.34981036 -22.74628613 29.73315934 -22 23 C-20.80489351 19.22192141 -18.83385274 16.78331621 -15.9375 14.0625 C-11.38237817 12.41490274 -6.79508255 12.5984794 -2 13 C-1.34 13.33 -0.68 13.66 0 14 C0 9.38 0 4.76 0 0 Z M-15 19 C-18.12002957 23.93165964 -18.46024303 27.94205608 -17.62890625 33.69140625 C-16.62637471 37.3715065 -15.15784545 38.91716577 -12 41 C-7.33092733 42.38960496 -4.45644189 42.22822095 0 40 C0 32.74 0 25.48 0 18 C-5.90695898 15.04652051 -9.44582271 15.25696748 -15 19 Z " fill="#FFFFFF" transform="translate(22,393)"/>
<path d="M0 0 C3.1875 1.5 3.1875 1.5 5 4 C5.63108638 6.79972867 5.78456586 9.22967088 5 12 C2.1504996 15.58376882 -0.9181799 17.07554089 -5.125 18.75 C-6.17945313 19.17796875 -7.23390625 19.6059375 -8.3203125 20.046875 C-11 21 -11 21 -13 21 C-12.65772428 23.97065509 -12.65772428 23.97065509 -12 27 C-7.97751725 29.01124138 -3.74266888 28.21604913 0.4375 27 C1.283125 26.67 2.12875 26.34 3 26 C3 27.32 3 28.64 3 30 C-0.50347263 32.14673568 -3.42984282 32.32832389 -7.5 32.375 C-8.6240625 32.40335937 -9.748125 32.43171875 -10.90625 32.4609375 C-14 32 -14 32 -16.37109375 30.625 C-18.94820264 26.47196121 -18.61826746 22.41444052 -18.5625 17.625 C-18.58634766 16.69171875 -18.61019531 15.7584375 -18.63476562 14.796875 C-18.62513484 10.26398567 -18.51573832 7.00334622 -15.58984375 3.3984375 C-10.86275621 -0.97928762 -6.22348289 -0.61876127 0 0 Z M-11.77734375 5.19140625 C-13.42637164 7.6307031 -13.30111587 9.27135943 -13.1875 12.1875 C-13.16042969 13.08855469 -13.13335937 13.98960937 -13.10546875 14.91796875 C-13.07066406 15.60503906 -13.03585938 16.29210937 -13 17 C-4.88772639 15.29073834 -4.88772639 15.29073834 1 10 C0.80801478 6.6678502 0.80801478 6.6678502 -1 4 C-3.03270562 3.76179079 -3.03270562 3.76179079 -5.375 3.75 C-6.16648438 3.72421875 -6.95796875 3.6984375 -7.7734375 3.671875 C-10.0412337 3.84313451 -10.0412337 3.84313451 -11.77734375 5.19140625 Z " fill="#FFFFFF" transform="translate(257,406)"/>
<path d="M0 0 C1.03125 -0.03738281 2.0625 -0.07476562 3.125 -0.11328125 C6 0.3125 6 0.3125 8.33984375 1.6484375 C11.02036141 5.94987995 10.61724538 10.28749266 10.5625 15.25 C10.58634766 16.23935547 10.61019531 17.22871094 10.63476562 18.24804688 C10.62499063 23.09318711 10.61617874 25.51256617 7.58984375 29.44140625 C2.58117457 33.06003753 -1.94352141 32.91465709 -8 32.3125 C-11.1875 30.8125 -11.1875 30.8125 -13 28.3125 C-13.58225276 24.97777967 -13.84609528 23.4293657 -13 20.3125 C-8.54365034 15.01305716 -2.45671264 13.36899744 4 11.3125 C4 9.3325 4 7.3525 4 5.3125 C1.53665839 4.0808292 0.33418611 4.35447712 -2.375 4.6875 C-3.14585938 4.77773438 -3.91671875 4.86796875 -4.7109375 4.9609375 C-6.85515749 5.29025456 -8.90663641 5.74853447 -11 6.3125 C-10.67 4.6625 -10.34 3.0125 -10 1.3125 C-6.64643758 0.32094188 -3.49113636 0.08291449 0 0 Z M-8.1875 21.25 C-9.27985471 23.40284034 -9.27985471 23.40284034 -8.1875 26.0625 C-7.795625 26.805 -7.40375 27.5475 -7 28.3125 C-5.56344146 28.39381463 -4.1255517 28.45183559 -2.6875 28.5 C-1.88699219 28.53480469 -1.08648437 28.56960938 -0.26171875 28.60546875 C2.03757881 28.47750828 2.03757881 28.47750828 3.78125 27.125 C5.42341401 24.68280737 5.30107677 23.04013706 5.1875 20.125 C5.14689453 18.77341797 5.14689453 18.77341797 5.10546875 17.39453125 C5.05326172 16.36392578 5.05326172 16.36392578 5 15.3125 C0.29384674 15.3125 -4.74526021 18.20115904 -8.1875 21.25 Z " fill="#FFFFFF" transform="translate(102,405.6875)"/>
<path d="M0 0 C1.01964844 -0.03996094 2.03929687 -0.07992188 3.08984375 -0.12109375 C7.30038838 0.6701124 8.62580815 1.91980303 11.0625 5.4375 C11.70299109 8.81595128 11.62598503 12.07370128 11.5 15.5 C11.49419922 16.39783203 11.48839844 17.29566406 11.48242188 18.22070312 C11.40252517 22.51914583 11.32553495 25.68087205 9.0625 29.4375 C5.08157033 33.03317841 0.7894658 32.9501338 -4.33203125 32.77734375 C-6.9375 32.4375 -6.9375 32.4375 -10.125 30.9375 C-12.31533608 27.91634678 -12.49678288 26.08466647 -12.50390625 22.4375 C-11.6780201 19.52126753 -10.27029908 18.34721239 -7.9375 16.4375 C-4.9921875 14.953125 -4.9921875 14.953125 -1.8125 13.6875 C-0.75804687 13.25953125 0.29640625 12.8315625 1.3828125 12.390625 C4.0625 11.4375 4.0625 11.4375 6.0625 11.4375 C5.72022428 8.46684491 5.72022428 8.46684491 5.0625 5.4375 C2.59915839 4.2058292 1.39668611 4.47947712 -1.3125 4.8125 C-2.08335938 4.90273438 -2.85421875 4.99296875 -3.6484375 5.0859375 C-5.79265749 5.41525456 -7.84413641 5.87353447 -9.9375 6.4375 C-9.9375 5.1175 -9.9375 3.7975 -9.9375 2.4375 C-6.5890251 0.43805096 -3.87765433 0.08312752 0 0 Z M-0.375 17.25 C-1.15746094 17.58644531 -1.93992187 17.92289062 -2.74609375 18.26953125 C-4.95555219 19.4471214 -6.39346173 20.47098872 -7.9375 22.4375 C-7.69544651 25.75568985 -7.69544651 25.75568985 -5.9375 28.4375 C-3.90479438 28.67570921 -3.90479438 28.67570921 -1.5625 28.6875 C-0.77101563 28.71328125 0.02046875 28.7390625 0.8359375 28.765625 C3.1037337 28.59436549 3.1037337 28.59436549 4.83984375 27.24609375 C6.48887164 24.8067969 6.36361587 23.16614057 6.25 20.25 C6.20939453 18.89841797 6.20939453 18.89841797 6.16796875 17.51953125 C6.11576172 16.48892578 6.11576172 16.48892578 6.0625 15.4375 C3.53460855 15.4375 1.93867184 16.23563156 -0.375 17.25 Z " fill="#FFFFFF" transform="translate(43.9375,405.5625)"/>
<path d="M0 0 C1.53333984 -0.02513672 1.53333984 -0.02513672 3.09765625 -0.05078125 C6.39201612 0.37064305 7.56977166 1.01975491 9.9375 3.3125 C10.77819052 7.05155283 10.5399151 10.8650422 10.5 14.6875 C10.52384766 15.7290625 10.54769531 16.770625 10.57226562 17.84375 C10.55758269 25.49845303 10.55758269 25.49845303 7.52734375 29.4765625 C2.73092765 32.87673681 -1.28530974 32.83935068 -7.0625 32.3125 C-11.57565789 30.28618421 -11.57565789 30.28618421 -13.0625 27.3125 C-13.46288092 23.70907172 -13.42515898 21.88251874 -11.45703125 18.7890625 C-8.62192245 15.85682925 -6.26339145 14.860221 -2.4375 13.5 C-1.29023438 13.08105469 -0.14296875 12.66210938 1.0390625 12.23046875 C3.9375 11.3125 3.9375 11.3125 5.9375 11.3125 C4.96973902 7.51702079 4.96973902 7.51702079 2.9375 4.3125 C-2.2369687 4.00203188 -6.20980934 4.72794795 -11.0625 6.3125 C-11.0625 4.9925 -11.0625 3.6725 -11.0625 2.3125 C-7.25268735 0.55142638 -4.18902135 0.01588757 0 0 Z M-1.0625 17.1875 C-1.949375 17.53554688 -2.83625 17.88359375 -3.75 18.2421875 C-6.18999843 19.21019809 -6.18999843 19.21019809 -8.0625 21.3125 C-8.39583333 23.8125 -8.39583333 23.8125 -8.0625 26.3125 C-6.07290592 28.72589891 -6.07290592 28.72589891 -2.1875 28.6875 C0.70094993 28.58771718 1.86735799 28.35283165 4.4375 26.875 C6.65102426 23.09356272 6.26667236 19.5917407 5.9375 15.3125 C3.28659169 15.3125 1.39820672 16.20750924 -1.0625 17.1875 Z " fill="#FFFFFF" transform="translate(298.0625,405.6875)"/>
<path d="M0 0 C1.53333984 -0.02513672 1.53333984 -0.02513672 3.09765625 -0.05078125 C6.39161493 0.37059173 7.57130629 1.01852797 9.9375 3.3125 C10.45507812 5.68505859 10.45507812 5.68505859 10.46875 8.4609375 C10.47390625 9.46640625 10.4790625 10.471875 10.484375 11.5078125 C10.46890625 12.55710937 10.4534375 13.60640625 10.4375 14.6875 C10.45296875 15.7290625 10.4684375 16.770625 10.484375 17.84375 C10.46085978 22.44097572 10.43919446 25.45154129 8.09375 29.4765625 C4.18239355 32.80688411 0.2908732 32.5820186 -4.61328125 32.5390625 C-7.74777437 32.24910939 -9.65859551 31.32867796 -12.0625 29.3125 C-13.48912219 26.45925563 -13.37283868 24.47795451 -13.0625 21.3125 C-10.1968381 16.80832096 -7.40896581 15.2675076 -2.4375 13.5 C-1.29023438 13.08105469 -0.14296875 12.66210938 1.0390625 12.23046875 C3.9375 11.3125 3.9375 11.3125 5.9375 11.3125 C4.96973902 7.51702079 4.96973902 7.51702079 2.9375 4.3125 C-2.2369687 4.00203188 -6.20980934 4.72794795 -11.0625 6.3125 C-11.0625 4.9925 -11.0625 3.6725 -11.0625 2.3125 C-7.25268735 0.55142638 -4.18902135 0.01588757 0 0 Z M-1.0625 17.1875 C-1.949375 17.53554688 -2.83625 17.88359375 -3.75 18.2421875 C-6.18999843 19.21019809 -6.18999843 19.21019809 -8.0625 21.3125 C-8.39583333 23.8125 -8.39583333 23.8125 -8.0625 26.3125 C-6.07290592 28.72589891 -6.07290592 28.72589891 -2.1875 28.6875 C0.70094993 28.58771718 1.86735799 28.35283165 4.4375 26.875 C6.65102426 23.09356272 6.26667236 19.5917407 5.9375 15.3125 C3.28659169 15.3125 1.39820672 16.20750924 -1.0625 17.1875 Z " fill="#FFFFFF" transform="translate(204.0625,405.6875)"/>
<path d="M0 0 C0.33 1.32 0.66 2.64 1 4 C-0.98 4.33 -2.96 4.66 -5 5 C-5.33 7.64 -5.66 10.28 -6 13 C-3.69 13 -1.38 13 1 13 C1 14.32 1 15.64 1 17 C-1.31 17 -3.62 17 -6 17 C-6 25.91 -6 34.82 -6 44 C-8.475 44.495 -8.475 44.495 -11 45 C-11 35.76 -11 26.52 -11 17 C-12.65 16.67 -14.3 16.34 -16 16 C-16 15.01 -16 14.02 -16 13 C-14.35 13 -12.7 13 -11 13 C-11.103125 11.783125 -11.20625 10.56625 -11.3125 9.3125 C-11.30621859 5.77606592 -11.04353719 5.06146428 -8.875 2 C-5.57244809 -0.29742742 -3.9354597 -0.45761159 0 0 Z " fill="#FFFFFF" transform="translate(282,393)"/>
<path d="M0 0 C6.90036815 0.55202945 11.19978402 2.77526667 15.75 7.9375 C20.94822014 15.0128552 20 18.46447116 20 28 C12.08 28 4.16 28 -4 28 C-4 26.68 -4 25.36 -4 24 C2.6 24 9.2 24 16 24 C14.02422894 14.43181376 14.02422894 14.43181376 8 8 C5.38041618 6.40751919 2.82785303 5.21890217 0 4 C0 2.68 0 1.36 0 0 Z " fill="#FFFFFF" transform="translate(288,347)"/>
<path d="M0 0 C1.65 0 3.3 0 5 0 C5 14.52 5 29.04 5 44 C2.525 44.495 2.525 44.495 0 45 C0 30.15 0 15.3 0 0 Z " fill="#FFFFFF" transform="translate(118,393)"/>
<path d="M0 0 C1.98 0.495 1.98 0.495 4 1 C4 14.53 4 28.06 4 42 C2.35 42 0.7 42 -1 42 C-1.02464638 36.17928378 -1.0428343 30.35859766 -1.05493164 24.5378418 C-1.05997267 22.55606559 -1.06680538 20.57429311 -1.07543945 18.5925293 C-1.08751515 15.75047891 -1.09323045 12.90847753 -1.09765625 10.06640625 C-1.10281754 9.17474258 -1.10797882 8.28307892 -1.11329651 7.36439514 C-1.11349177 5.24259399 -1.0621003 3.1208922 -1 1 C-0.67 0.67 -0.34 0.34 0 0 Z " fill="#FFFFFF" transform="translate(272,334)"/>
<path d="M0 0 C2.475 0.495 2.475 0.495 5 1 C7.67469452 0.9120852 7.67469452 0.9120852 10.3125 0.5625 C11.19550781 0.46066406 12.07851562 0.35882813 12.98828125 0.25390625 C13.65214844 0.17011719 14.31601563 0.08632813 15 0 C15 1.65 15 3.3 15 5 C12.03 5 9.06 5 6 5 C5.67 13.58 5.34 22.16 5 31 C3.35 31.33 1.7 31.66 0 32 C0 21.44 0 10.88 0 0 Z " fill="#FFFFFF" transform="translate(221,406)"/>
<path d="M0 0 C1.32 0 2.64 0 4 0 C4.09894543 5.33848672 4.17150414 10.67643869 4.21972656 16.015625 C4.23983061 17.8314748 4.26711835 19.64725995 4.30175781 21.46289062 C4.35033039 24.07438105 4.37298027 26.68501498 4.390625 29.296875 C4.41127014 30.10743347 4.43191528 30.91799194 4.45318604 31.75311279 C4.45461721 35.35556281 4.32011572 37.5478562 2.20996094 40.52832031 C-0.89540394 42.59627651 -3.35880839 42.28009166 -7 42 C-7.33 40.68 -7.66 39.36 -8 38 C-6.02 38 -4.04 38 -2 38 C-0.41769192 34.83538385 -0.75842187 31.40920633 -0.68359375 27.9296875 C-0.66281265 27.13345978 -0.64203156 26.33723206 -0.62062073 25.51687622 C-0.55515851 22.96967315 -0.49625585 20.42236575 -0.4375 17.875 C-0.3943116 16.14972873 -0.35069721 14.42446807 -0.30664062 12.69921875 C-0.19948055 8.46625315 -0.09820377 4.23318247 0 0 Z " fill="#FFFFFF" transform="translate(257,346)"/>
<path d="M0 0 C2.475 0.495 2.475 0.495 5 1 C7.67469452 0.9120852 7.67469452 0.9120852 10.3125 0.5625 C11.19550781 0.46066406 12.07851562 0.35882813 12.98828125 0.25390625 C13.65214844 0.17011719 14.31601563 0.08632813 15 0 C14.67 1.65 14.34 3.3 14 5 C12.700625 4.979375 11.40125 4.95875 10.0625 4.9375 C8.70834367 4.91600546 7.35243917 4.92851801 6 5 C4.22509454 6.77490546 4.76500027 9.37784902 4.68359375 11.78515625 C4.64169922 12.95498047 4.59980469 14.12480469 4.55664062 15.33007812 C4.51732422 16.56177734 4.47800781 17.79347656 4.4375 19.0625 C4.37272461 20.91584961 4.37272461 20.91584961 4.30664062 22.80664062 C4.20015802 25.87097335 4.09814576 28.93539073 4 32 C2.68 32 1.36 32 0 32 C0 21.44 0 10.88 0 0 Z " fill="#FFFFFF" transform="translate(62,406)"/>
<path d="M0 0 C1.32 0 2.64 0 4 0 C4 13.86 4 27.72 4 42 C2.68 42 1.36 42 0 42 C0 28.14 0 14.28 0 0 Z " fill="#FFFFFF" transform="translate(231,334)"/>
<path d="M0 0 C1.98 0.495 1.98 0.495 4 1 C3.67 2.65 3.34 4.3 3 6 C1.68 5.67 0.36 5.34 -1 5 C-0.67 3.35 -0.34 1.7 0 0 Z " fill="#FFFFFF" transform="translate(20,335)"/>
<path d="M0 0 C1.98 0.495 1.98 0.495 4 1 C3.67 2.65 3.34 4.3 3 6 C1.68 5.67 0.36 5.34 -1 5 C-0.67 3.35 -0.34 1.7 0 0 Z " fill="#FFFFFF" transform="translate(13,335)"/>
<path d="M0 0 C0.99 0.33 1.98 0.66 3 1 C3 2.65 3 4.3 3 6 C1.35 6 -0.3 6 -2 6 C-2 4.35 -2 2.7 -2 1 C-1.34 0.67 -0.68 0.34 0 0 Z " fill="#FFFFFF" transform="translate(60,333)"/>
</svg>
