<svg width="40" height="40" viewBox="0 0 40 40" fill="none" xmlns="http://www.w3.org/2000/svg">
<rect x="0.5" y="0.5" width="39" height="39" rx="19.5" stroke="white"/>
<g clip-path="url(#clip0_1648_40387)">
<mask id="mask0_1648_40387" style="mask-type:luminance" maskUnits="userSpaceOnUse" x="10" y="10" width="20" height="20">
<path d="M30 10H10V30H30V10Z" fill="white"/>
</mask>
<g mask="url(#mask0_1648_40387)">
<path d="M28.3057 25.275C28.3057 25.575 28.2391 25.8833 28.0974 26.1833C27.9557 26.4833 27.7724 26.7667 27.5307 27.0333C27.1224 27.4833 26.6724 27.8083 26.1641 28.0167C25.6641 28.225 25.1224 28.3333 24.5391 28.3333C23.6891 28.3333 22.7807 28.1333 21.8224 27.725C20.8641 27.3167 19.9057 26.7667 18.9557 26.075C17.9974 25.375 17.0891 24.6 16.2224 23.7417C15.3641 22.875 14.5891 21.9667 13.8974 21.0167C13.2141 20.0667 12.6641 19.1167 12.2641 18.175C11.8641 17.225 11.6641 16.3167 11.6641 15.45C11.6641 14.8833 11.7641 14.3417 11.9641 13.8417C12.1641 13.3333 12.4807 12.8667 12.9224 12.45C13.4557 11.925 14.0391 11.6667 14.6557 11.6667C14.8891 11.6667 15.1224 11.7167 15.3307 11.8167C15.5474 11.9167 15.7391 12.0667 15.8891 12.2833L17.8224 15.0083C17.9724 15.2167 18.0807 15.4083 18.1557 15.5917C18.2307 15.7667 18.2724 15.9417 18.2724 16.1C18.2724 16.3 18.2141 16.5 18.0974 16.6917C17.9891 16.8833 17.8307 17.0833 17.6307 17.2833L16.9974 17.9417C16.9057 18.0333 16.8641 18.1417 16.8641 18.275C16.8641 18.3417 16.8724 18.4 16.8891 18.4667C16.9141 18.5333 16.9391 18.5833 16.9557 18.6333C17.1057 18.9083 17.3641 19.2667 17.7307 19.7C18.1057 20.1333 18.5057 20.575 18.9391 21.0167C19.3891 21.4583 19.8224 21.8667 20.2641 22.2417C20.6974 22.6083 21.0557 22.8583 21.3391 23.0083C21.3807 23.025 21.4307 23.05 21.4891 23.075C21.5557 23.1 21.6224 23.1083 21.6974 23.1083C21.8391 23.1083 21.9474 23.0583 22.0391 22.9667L22.6724 22.3417C22.8807 22.1333 23.0807 21.975 23.2724 21.875C23.4641 21.7583 23.6557 21.7 23.8641 21.7C24.0224 21.7 24.1891 21.7333 24.3724 21.8083C24.5557 21.8833 24.7474 21.9917 24.9557 22.1333L27.7141 24.0917C27.9307 24.2417 28.0807 24.4167 28.1724 24.625C28.2557 24.8333 28.3057 25.0417 28.3057 25.275Z" stroke="white" stroke-width="1.5" stroke-miterlimit="10"/>
</g>
</g>
<defs>
<clipPath id="clip0_1648_40387">
<rect width="20" height="20" fill="white" transform="translate(10 10)"/>
</clipPath>
</defs>
</svg>
