<svg width="1440" height="76" viewBox="0 0 1440 76" fill="none" xmlns="http://www.w3.org/2000/svg">
<path d="M-365.999 74.5996C-365.762 73.7902 -366.247 72.7655 -368.31 69.6351C-376.885 56.6671 -389.593 42.6397 -402.241 32.1869C-406.747 28.4482 -407.459 27.8807 -410.653 25.5256C-419.867 18.6953 -430.764 12.3479 -444.327 5.92905C-452.608 2.00588 -458.358 -0.117728 -460.442 0.00504135C-461.43 0.0662633 -462.321 0.703073 -462.487 1.451C-462.595 2.00271 -462.546 2.1986 -462.078 2.82513C-461.139 4.118 -459.168 5.42609 -450.542 10.5367C-427.554 24.1529 -421.184 28.2014 -409.806 36.4526C-400.396 43.2915 -389.568 52.6962 -382.064 60.5947C-380.042 62.7297 -378.411 64.5197 -371.938 71.8517C-369.704 74.3536 -368.727 75.1961 -367.709 75.4441C-366.799 75.6527 -366.237 75.3692 -365.999 74.5996Z" fill="#BB133E"/>
<path d="M-144.684 30.0811C-144.879 30.8083 -145.732 31.3944 -148.791 32.9366C-161.482 39.3139 -177.865 44.7492 -192.533 47.4436C-197.765 48.4153 -198.581 48.551 -202.153 49.0111C-212.471 50.3676 -223.867 50.6325 -237.358 49.8162C-245.598 49.3206 -251.038 48.5125 -252.593 47.529C-253.329 47.0601 -253.722 46.1874 -253.5 45.5382C-253.326 45.0652 -253.197 44.9345 -252.542 44.6495C-251.212 44.0493 -249.076 43.8777 -240.015 43.6013C-215.87 42.8675 -209.051 42.451 -196.394 40.918C-185.919 39.6388 -173.149 36.9788 -163.654 34.0673C-161.093 33.2775 -158.995 32.5879 -150.562 29.6751C-147.665 28.6918 -146.516 28.4566 -145.612 28.6986C-144.811 28.9252 -144.509 29.384 -144.684 30.0811Z" fill="#F39200"/>
<path d="M57.9727 61.3037C57.3901 61.9134 56.2603 62.0058 52.5176 61.7841C36.9995 60.8417 18.4978 56.8507 3.12091 51.1228C-2.36957 49.0904 -3.21701 48.7578 -6.85379 47.1688C-17.3757 42.6049 -28.3214 36.3412 -40.6617 27.8048C-48.2001 22.5943 -52.9138 18.6772 -53.8495 16.811C-54.2908 15.9241 -54.1849 14.834 -53.62 14.3166C-53.1963 13.9471 -53.0021 13.8917 -52.2253 13.984C-50.6364 14.1503 -48.5179 15.2035 -39.779 20.1184C-16.493 33.2186 -9.80203 36.7108 3.03262 42.4386C13.6605 47.1688 27.219 51.8434 37.8116 54.3933C40.6715 55.0769 43.0372 55.5943 52.6235 57.5344C55.9072 58.218 57.1254 58.643 57.8492 59.4005C58.4847 60.0842 58.52 60.7124 57.9727 61.3037Z" fill="#BB133E"/>
<path d="M264.254 30.0811C264.059 30.8083 263.205 31.3944 260.147 32.9366C247.456 39.3139 231.073 44.7492 216.404 47.4436C211.173 48.4153 210.357 48.551 206.785 49.0111C196.467 50.3676 185.071 50.6325 171.58 49.8162C163.34 49.3206 157.9 48.5125 156.345 47.529C155.608 47.0601 155.216 46.1874 155.438 45.5382C155.611 45.0652 155.741 44.9345 156.396 44.6495C157.726 44.0493 159.862 43.8777 168.923 43.6013C193.068 42.8675 199.887 42.451 212.544 40.918C223.019 39.6388 235.788 36.9788 245.284 34.0673C247.845 33.2775 249.943 32.5879 258.376 29.6751C261.273 28.6918 262.422 28.4566 263.325 28.6986C264.127 28.9252 264.429 29.384 264.254 30.0811Z" fill="#F39200"/>
<path d="M355.199 14.5349C355.782 13.9252 356.911 13.8328 360.654 14.0545C376.172 14.9968 394.674 18.9879 410.051 24.7157C415.541 26.7482 416.389 27.0808 420.026 28.6698C430.548 33.2336 441.493 39.4974 453.834 48.0337C461.372 53.2443 466.086 57.1614 467.021 59.0276C467.463 59.9145 467.357 61.0046 466.792 61.522C466.368 61.8915 466.174 61.9469 465.397 61.8545C463.808 61.6882 461.69 60.6351 452.951 55.7202C429.665 42.62 422.974 39.1278 410.139 33.3999C399.511 28.6698 385.953 23.9951 375.36 21.4453C372.5 20.7617 370.135 20.2443 360.548 18.3042C357.265 17.6206 356.046 17.1956 355.323 16.438C354.687 15.7544 354.652 15.1262 355.199 14.5349Z" fill="#CD5140"/>
<path d="M675.671 30.0811C675.476 30.8083 674.622 31.3944 671.564 32.9366C658.873 39.3139 642.49 44.7492 627.821 47.4436C622.589 48.4153 621.774 48.551 618.202 49.0111C607.884 50.3676 596.488 50.6325 582.996 49.8162C574.757 49.3206 569.317 48.5125 567.762 47.529C567.025 47.0601 566.633 46.1874 566.854 45.5382C567.028 45.0652 567.158 44.9345 567.813 44.6495C569.143 44.0493 571.279 43.8777 580.34 43.6013C604.485 42.8675 611.304 42.451 623.961 40.918C634.435 39.6388 647.205 36.9788 656.7 34.0673C659.262 33.2775 661.36 32.5879 669.792 29.6751C672.689 28.6918 673.839 28.4566 674.742 28.6986C675.544 28.9252 675.846 29.384 675.671 30.0811Z" fill="#F39200"/>
<path d="M878.327 61.3037C877.745 61.9134 876.615 62.0058 872.872 61.7841C857.354 60.8417 838.852 56.8507 823.475 51.1228C817.985 49.0904 817.138 48.7578 813.501 47.1688C802.979 42.6049 792.033 36.3412 779.693 27.8048C772.155 22.5943 767.441 18.6772 766.505 16.811C766.064 15.9241 766.17 14.834 766.735 14.3166C767.158 13.9471 767.353 13.8917 768.129 13.984C769.718 14.1503 771.837 15.2035 780.576 20.1184C803.862 33.2186 810.552 36.7108 823.387 42.4386C834.015 47.1688 847.574 51.8434 858.166 54.3933C861.026 55.0769 863.392 55.5943 872.978 57.5344C876.262 58.218 877.48 58.643 878.204 59.4005C878.839 60.0842 878.875 60.7124 878.327 61.3037Z" fill="#BB133E"/>
<path d="M1084.61 30.0811C1084.41 30.8083 1083.56 31.3944 1080.5 32.9366C1067.81 39.3139 1051.43 44.7492 1036.76 47.4436C1031.53 48.4153 1030.71 48.551 1027.14 49.0111C1016.82 50.3676 1005.43 50.6325 991.934 49.8162C983.694 49.3206 978.254 48.5125 976.699 47.529C975.963 47.0601 975.571 46.1874 975.792 45.5382C975.966 45.0652 976.096 44.9345 976.751 44.6495C978.081 44.0493 980.217 43.8777 989.277 43.6013C1013.42 42.8675 1020.24 42.451 1032.9 40.918C1043.37 39.6388 1056.14 36.9788 1065.64 34.0673C1068.2 33.2775 1070.3 32.5879 1078.73 29.6751C1081.63 28.6918 1082.78 28.4566 1083.68 28.6986C1084.48 28.9252 1084.78 29.384 1084.61 30.0811Z" fill="#F39200"/>
<path d="M1287.27 61.3037C1286.68 61.9134 1285.55 62.0058 1281.81 61.7841C1266.29 60.8417 1247.79 56.8507 1232.41 51.1228C1226.92 49.0904 1226.08 48.7578 1222.44 47.1688C1211.92 42.6049 1200.97 36.3412 1188.63 27.8048C1181.09 22.5943 1176.38 18.6772 1175.44 16.811C1175 15.9241 1175.11 14.834 1175.67 14.3166C1176.1 13.9471 1176.29 13.8917 1177.07 13.984C1178.66 14.1503 1180.77 15.2035 1189.51 20.1184C1212.8 33.2186 1219.49 36.7108 1232.32 42.4386C1242.95 47.1688 1256.51 51.8434 1267.1 54.3933C1269.96 55.0769 1272.33 55.5943 1281.92 57.5344C1285.2 58.218 1286.42 58.643 1287.14 59.4005C1287.78 60.0842 1287.81 60.7124 1287.27 61.3037Z" fill="#BB133E"/>
<path d="M1493.55 30.0811C1493.35 30.8083 1492.5 31.3944 1489.44 32.9366C1476.75 39.3139 1460.37 44.7492 1445.7 47.4436C1440.46 48.4153 1439.65 48.551 1436.08 49.0111C1425.76 50.3676 1414.36 50.6325 1400.87 49.8162C1392.63 49.3206 1387.19 48.5125 1385.64 47.529C1384.9 47.0601 1384.51 46.1874 1384.73 45.5382C1384.9 45.0652 1385.03 44.9345 1385.69 44.6495C1387.02 44.0493 1389.15 43.8777 1398.22 43.6013C1422.36 42.8675 1429.18 42.451 1441.84 40.918C1452.31 39.6388 1465.08 36.9788 1474.58 34.0673C1477.14 33.2775 1479.24 32.5879 1487.67 29.6751C1490.56 28.6918 1491.71 28.4566 1492.62 28.6986C1493.42 28.9252 1493.72 29.384 1493.55 30.0811Z" fill="#F39200"/>
<path d="M1584.67 45.7575C1584.86 45.0303 1585.72 44.4442 1588.78 42.9019C1601.47 36.5247 1617.85 31.0894 1632.52 28.3949C1637.75 27.4232 1638.57 27.2875 1642.14 26.8274C1652.46 25.4709 1663.85 25.2061 1677.34 26.0224C1685.58 26.5179 1691.02 27.3261 1692.58 28.3096C1693.31 28.7785 1693.71 29.6512 1693.49 30.3004C1693.31 30.7734 1693.18 30.904 1692.53 31.1891C1691.2 31.7893 1689.06 31.9608 1680 32.2373C1655.85 32.9711 1649.04 33.3876 1636.38 34.9206C1625.9 36.1998 1613.13 38.8598 1603.64 41.7713C1601.08 42.561 1598.98 43.2507 1590.55 46.1635C1587.65 47.1468 1586.5 47.382 1585.6 47.1399C1584.8 46.9134 1584.49 46.4546 1584.67 45.7575Z" fill="#F39200"/>
<path d="M1902.48 30.0811C1902.29 30.8083 1901.44 31.3944 1898.38 32.9366C1885.69 39.3139 1869.3 44.7492 1854.63 47.4436C1849.4 48.4153 1848.59 48.551 1845.02 49.0111C1834.7 50.3676 1823.3 50.6325 1809.81 49.8162C1801.57 49.3206 1796.13 48.5125 1794.57 47.529C1793.84 47.0601 1793.45 46.1874 1793.67 45.5382C1793.84 45.0652 1793.97 44.9345 1794.63 44.6495C1795.96 44.0493 1798.09 43.8777 1807.15 43.6013C1831.3 42.8675 1838.12 42.451 1850.77 40.918C1861.25 39.6388 1874.02 36.9788 1883.51 34.0673C1886.08 33.2775 1888.17 32.5879 1896.61 29.6751C1899.5 28.6918 1900.65 28.4566 1901.56 28.6986C1902.36 28.9252 1902.66 29.384 1902.48 30.0811Z" fill="#F39200"/>
</svg>
