<svg width="20" height="20" viewBox="0 0 20 20" fill="none" xmlns="http://www.w3.org/2000/svg">
<path d="M9.90078 12.4917C9.74245 12.4917 9.58412 12.4333 9.45912 12.3083L7.32578 10.175C7.08411 9.93333 7.08411 9.53333 7.32578 9.29166C7.56745 9.05 7.96745 9.05 8.20911 9.29166L9.90078 10.9833L11.5924 9.29166C11.8341 9.05 12.2341 9.05 12.4758 9.29166C12.7174 9.53333 12.7174 9.93333 12.4758 10.175L10.3424 12.3083C10.2174 12.4333 10.0591 12.4917 9.90078 12.4917Z" fill="white"/>
<path d="M9.89844 12.4333C9.55677 12.4333 9.27344 12.15 9.27344 11.8083V3.33331C9.27344 2.99165 9.55677 2.70831 9.89844 2.70831C10.2401 2.70831 10.5234 2.99165 10.5234 3.33331V11.8083C10.5234 12.15 10.2401 12.4333 9.89844 12.4333Z" fill="white"/>
<path d="M9.9987 17.4417C5.70703 17.4417 2.70703 14.4417 2.70703 10.15C2.70703 9.80836 2.99036 9.52502 3.33203 9.52502C3.6737 9.52502 3.95703 9.80836 3.95703 10.15C3.95703 13.7084 6.44036 16.1917 9.9987 16.1917C13.557 16.1917 16.0404 13.7084 16.0404 10.15C16.0404 9.80836 16.3237 9.52502 16.6654 9.52502C17.007 9.52502 17.2904 9.80836 17.2904 10.15C17.2904 14.4417 14.2904 17.4417 9.9987 17.4417Z" fill="white"/>
</svg>
