<svg width="28" height="29" viewBox="0 0 28 29" fill="none" xmlns="http://www.w3.org/2000/svg">
<ellipse cx="15.2239" cy="16.5715" rx="11.9999" ry="11.9114" transform="rotate(-90 15.2239 16.5715)" fill="#BB133E"/>
<path d="M0.0270469 14.1044C-0.234417 11.3799 1.44736 6.98752 3.01708 4.76736C8.52556 -3.02199 19.1615 -0.447765 23.9977 6.6081C27.2333 11.3292 26.2556 18.6396 21.8416 22.2892C16.1818 26.9699 7.19303 27.2657 2.95918 20.5865C1.87504 18.8763 0.21941 16.1048 0.0270469 14.1044ZM19.2475 2.8374C16.1034 1.43336 12.8724 0.0875513 9.36972 1.02201C6.31993 1.83438 3.49892 4.7204 2.23455 7.5698C1.58276 9.03957 0.554644 12.2139 0.715258 13.7663C0.764749 14.2397 0.984192 14.7008 1.12706 15.1469C1.24472 15.1657 1.19897 14.9797 1.19803 14.8999C1.18683 13.8387 1.06543 12.8976 1.1971 11.8063C1.43615 9.82752 3.27761 6.1019 4.5896 4.5908C7.25093 1.52728 12.004 1.48689 15.7093 2.06729C16.8653 2.24855 18.0643 2.6073 19.0803 3.18582C19.2222 3.23935 19.2773 2.88154 19.2475 2.83927V2.8374ZM5.34971 20.8213C7.51052 23.0762 8.78703 23.7495 11.9479 24.0736C15.6122 24.4492 18.4444 23.9693 21.2131 21.4449C23.6933 19.1824 24.8615 16.2147 24.9941 12.8619C25.0305 11.9509 24.5991 11.0024 24.233 10.1731C22.3029 5.79479 19.0738 2.84961 14.1779 2.41008C11.1972 2.14242 7.02028 2.51057 5.04716 5.0491C4.24409 6.08217 3.33457 7.9633 2.79296 9.18608C0.640554 14.0462 1.86663 17.1877 5.35064 20.8222L5.34971 20.8213ZM3.43635 19.6501C4.02651 21.1396 5.31703 22.3596 6.66076 23.1983C8.95418 24.6295 11.7444 25.24 14.4225 24.7873C14.4384 24.6643 14.2638 24.7216 14.1788 24.7178C13.048 24.6718 12.0497 24.7526 10.9096 24.5563C7.78786 24.02 5.33103 22.107 3.43635 19.6511V19.6501Z" fill="#1A1A1A"/>
<g clip-path="url(#clip0_1630_39642)">
<path d="M13.8046 9.49266C13.7736 9.52148 13.7637 9.58287 13.7378 9.60517C13.6977 9.63981 13.5594 9.67926 13.4777 9.74134C12.17 10.7354 11.3583 12.3139 10.25 13.5065C10.0049 13.7702 9.72946 14.0371 9.47172 14.2902C9.30352 14.4552 8.62122 15.0177 8.57696 15.1882C8.55959 15.2547 8.57423 15.3165 8.55891 15.3758C8.54359 15.4352 8.4789 15.4894 8.46528 15.5899C8.42476 15.8896 8.61645 16.1905 8.93207 16.1891C9.18061 16.1881 9.7206 15.9706 9.96745 15.8697C11.1938 15.3697 12.584 14.4261 13.477 13.442C13.6364 13.2667 14.0691 12.6521 14.2366 12.5879C14.3122 12.5588 14.3449 12.5588 14.4178 12.5968C14.5448 12.6634 14.7814 13.0733 14.9053 13.2105C15.6884 14.0789 17.0428 14.9817 18.0819 15.511C18.2712 15.6074 18.7663 15.8824 18.9512 15.8711C19.4241 15.842 19.8469 15.4506 19.485 14.9972C19.15 14.5773 18.529 14.0758 18.1327 13.6605C17.3547 12.8452 16.6043 11.9863 15.8886 11.1147C15.4807 10.6181 15.0708 9.99619 14.6506 9.53451C14.4021 9.26114 14.0807 9.23473 13.8042 9.49198L13.8046 9.49266Z" fill="white"/>
</g>
<defs>
<clipPath id="clip0_1630_39642">
<rect width="6.87512" height="11.1614" fill="white" transform="matrix(0 -1 -1 -1.19249e-08 19.6211 16.1891)"/>
</clipPath>
</defs>
</svg>
