<svg width="31" height="31" viewBox="0 0 31 31" fill="none" xmlns="http://www.w3.org/2000/svg">
<path d="M16.6058 30.6969C13.3981 31.0071 8.22674 29.0123 5.61284 27.1505C-3.55792 20.6169 -0.527169 8.00167 7.78003 2.26555C13.3384 -1.57218 21.9453 -0.412557 26.2421 4.82294C31.7529 11.5359 32.1012 22.1974 24.2374 27.2192C22.2239 28.5051 18.961 30.4688 16.6058 30.6969ZM3.34061 7.89977C1.68757 11.629 0.103083 15.4612 1.20326 19.6157C2.1597 23.233 5.55755 26.579 8.91228 28.0786C10.6427 28.8517 14.38 30.0712 16.2078 29.8807C16.765 29.822 17.3079 29.5617 17.8331 29.3922C17.8553 29.2527 17.6363 29.3069 17.5423 29.308C16.2929 29.3213 15.185 29.4653 13.9001 29.3092C11.5704 29.0256 7.18405 26.8415 5.40496 25.2853C1.79814 22.1288 1.75059 16.4912 2.43392 12.0964C2.64733 10.7252 3.06971 9.30307 3.75082 8.09803C3.81385 7.92968 3.39257 7.86433 3.34282 7.89977L3.34061 7.89977ZM24.5138 24.3838C27.1687 21.8209 27.9615 20.3068 28.3429 16.5577C28.7852 12.2116 28.2202 8.85229 25.248 5.56834C22.5844 2.62662 19.0903 1.24105 15.143 1.08377C14.0704 1.04058 12.9537 1.55228 11.9773 1.98644C6.82249 4.2758 3.35498 8.10578 2.83751 13.9128C2.52238 17.4482 2.95582 22.4023 5.94455 24.7426C7.16083 25.6951 9.37557 26.7739 10.8152 27.4163C16.5373 29.9693 20.2359 28.515 24.515 24.3827L24.5138 24.3838ZM23.135 26.6532C24.8887 25.9532 26.325 24.4225 27.3124 22.8287C28.9975 20.1085 29.7162 16.7991 29.1833 13.6226C29.0384 13.6038 29.1059 13.8109 29.1014 13.9117C29.0473 15.2529 29.1424 16.4369 28.9113 17.7893C28.2799 21.4919 26.0276 24.4059 23.1361 26.6532L23.135 26.6532Z" fill="#1A1A1A"/>
<g clip-path="url(#clip0_5867_390)">
<path d="M11.1757 14.3532C11.2096 14.3899 11.2819 14.4016 11.3082 14.4323C11.349 14.48 11.3954 14.6439 11.4685 14.7408C12.6388 16.292 14.4972 17.2547 15.9014 18.5692C16.2119 18.8599 16.5261 19.1866 16.8241 19.4923C17.0184 19.6918 17.6806 20.5011 17.8813 20.5536C17.9597 20.5742 18.0324 20.5568 18.1022 20.575C18.1721 20.5932 18.2359 20.6699 18.3542 20.6861C18.7072 20.7341 19.0613 20.5068 19.0597 20.1324C19.0585 19.8376 18.8025 19.1971 18.6838 18.9044C18.095 17.4497 16.984 15.8009 15.8254 14.7417C15.6191 14.5527 14.8954 14.0394 14.8199 13.8407C14.7856 13.7511 14.7856 13.7123 14.8304 13.6259C14.9087 13.4752 15.3913 13.1946 15.5528 13.0476C16.5753 12.1188 17.6382 10.5123 18.2613 9.27983C18.3748 9.0553 18.6987 8.46813 18.6854 8.24885C18.651 7.68792 18.1903 7.18636 17.6564 7.61564C17.1621 8.01301 16.5717 8.7496 16.0827 9.21966C15.1228 10.1424 14.1116 11.0325 13.0854 11.8813C12.5007 12.3651 11.7685 12.8513 11.225 13.3496C10.9031 13.6444 10.872 14.0257 11.1749 14.3536L11.1757 14.3532Z" fill="#1A1A1A"/>
</g>
<defs>
<clipPath id="clip0_5867_390">
<rect width="8.0944" height="13.2384" fill="white" transform="matrix(-1 -8.74228e-08 -8.74228e-08 1 19.0597 7.45449)"/>
</clipPath>
</defs>
</svg>
