<svg width="31" height="31" viewBox="0 0 31 31" fill="none" xmlns="http://www.w3.org/2000/svg">
<path d="M13.6688 0.0320801C16.8764 -0.27804 22.0478 1.7167 24.6617 3.57853C33.8325 10.1121 30.8017 22.7273 22.4945 28.4635C16.9361 32.3012 8.32929 31.1416 4.0325 25.9061C-1.47836 19.1931 -1.82666 8.53159 6.03715 3.50986C8.05065 2.22397 11.3136 0.26024 13.6688 0.0320801ZM26.934 22.8292C28.587 19.1 30.1715 15.2678 29.0713 11.1133C28.1149 7.49601 24.717 4.15003 21.3623 2.65038C19.6319 1.8773 15.8946 0.657859 14.0668 0.848361C13.5095 0.907062 12.9666 1.16734 12.4414 1.3368C12.4193 1.47635 12.6382 1.42208 12.7322 1.42098C13.9817 1.40769 15.0896 1.2637 16.3744 1.41987C18.7042 1.70341 23.0905 3.88754 24.8696 5.44368C28.4764 8.60026 28.524 14.2378 27.8406 18.6327C27.6272 20.0038 27.2049 21.426 26.5237 22.631C26.4607 22.7993 26.882 22.8647 26.9318 22.8292H26.934ZM5.76072 6.34524C3.10591 8.90817 2.31312 10.4222 1.93165 14.1714C1.48936 18.5175 2.05438 21.8767 5.02653 25.1607C7.69019 28.1024 11.1842 29.488 15.1316 29.6452C16.2042 29.6884 17.3209 29.1767 18.2973 28.7426C23.4521 26.4532 26.9196 22.6232 27.4371 16.8162C27.7522 13.2809 27.3188 8.32669 24.33 5.98639C23.1137 5.03388 20.899 3.9551 19.4594 3.31271C13.7373 0.759755 10.0387 2.214 5.75962 6.34635L5.76072 6.34524ZM7.13954 4.07583C5.38589 4.77581 3.94957 6.30648 2.96217 7.90028C1.27707 10.6205 0.558356 13.9299 1.09131 17.1064C1.23616 17.1252 1.16871 16.9181 1.17313 16.8173C1.22731 15.4761 1.13222 14.2921 1.36331 12.9397C1.99467 9.23712 4.247 6.32309 7.13844 4.07583H7.13954Z" fill="#1A1A1A"/>
<g clip-path="url(#clip0_5867_8061)">
<path d="M19.0989 16.3759C19.0649 16.3391 18.9926 16.3274 18.9664 16.2967C18.9256 16.2491 18.8792 16.0851 18.8061 15.9882C17.6358 14.4371 15.7773 13.4743 14.3732 12.1599C14.0627 11.8691 13.7485 11.5424 13.4505 11.2367C13.2562 11.0372 12.5939 10.2279 12.3932 10.1754C12.3149 10.1548 12.2422 10.1722 12.1723 10.154C12.1025 10.1358 12.0387 10.0591 11.9203 10.043C11.5674 9.99491 11.2132 10.2223 11.2148 10.5966C11.2161 10.8914 11.4721 11.5319 11.5908 11.8247C12.1796 13.2793 13.2905 14.9281 14.4491 15.9874C14.6555 16.1764 15.3792 16.6896 15.4547 16.8883C15.489 16.978 15.489 17.0167 15.4442 17.1032C15.3658 17.2538 14.8833 17.5344 14.7217 17.6814C13.6992 18.6103 12.6363 20.2167 12.0132 21.4492C11.8997 21.6737 11.5759 22.2609 11.5892 22.4802C11.6235 23.0411 12.0843 23.5427 12.6182 23.1134C13.1125 22.716 13.7029 21.9794 14.1919 21.5094C15.1518 20.5866 16.163 19.6966 17.1891 18.8477C17.7739 18.3639 18.506 17.8777 19.0496 17.3794C19.3714 17.0846 19.4025 16.7034 19.0997 16.3755L19.0989 16.3759Z" fill="#1A1A1A"/>
</g>
<defs>
<clipPath id="clip0_5867_8061">
<rect width="8.0944" height="13.2384" fill="white" transform="matrix(1 0 0 -1 11.2148 23.2745)"/>
</clipPath>
</defs>
</svg>
