<svg width="40" height="40" viewBox="0 0 40 40" fill="none" xmlns="http://www.w3.org/2000/svg">
<rect width="40" height="40" rx="20" fill="#BB133E"/>
<path d="M24.168 27.7083H15.8346C12.793 27.7083 11.043 25.9583 11.043 22.9166V17.0833C11.043 14.0416 12.793 12.2916 15.8346 12.2916H24.168C27.2096 12.2916 28.9596 14.0416 28.9596 17.0833V22.9166C28.9596 25.9583 27.2096 27.7083 24.168 27.7083ZM15.8346 13.5416C13.4513 13.5416 12.293 14.7 12.293 17.0833V22.9166C12.293 25.3 13.4513 26.4583 15.8346 26.4583H24.168C26.5513 26.4583 27.7096 25.3 27.7096 22.9166V17.0833C27.7096 14.7 26.5513 13.5416 24.168 13.5416H15.8346Z" fill="white"/>
<path d="M20.001 20.725C19.301 20.725 18.5926 20.5083 18.051 20.0666L15.4426 17.9833C15.176 17.7666 15.126 17.375 15.3426 17.1083C15.5593 16.8416 15.951 16.7916 16.2176 17.0083L18.826 19.0916C19.4593 19.6 20.5343 19.6 21.1676 19.0916L23.776 17.0083C24.0426 16.7916 24.4426 16.8333 24.651 17.1083C24.8676 17.375 24.826 17.775 24.551 17.9833L21.9426 20.0666C21.4093 20.5083 20.701 20.725 20.001 20.725Z" fill="white"/>
</svg>
