<svg width="40" height="40" viewBox="0 0 40 40" fill="none" xmlns="http://www.w3.org/2000/svg">
<rect width="40" height="40" rx="20" fill="#BB133E"/>
<path d="M24.543 28.9583C23.6013 28.9583 22.6096 28.7333 21.5846 28.3C20.5846 27.875 19.5763 27.2916 18.593 26.5833C17.618 25.8666 16.6763 25.0666 15.7846 24.1916C14.9013 23.3 14.1013 22.3583 13.393 21.3916C12.6763 20.3916 12.1013 19.3916 11.693 18.425C11.2596 17.3916 11.043 16.3916 11.043 15.45C11.043 14.8 11.1596 14.1833 11.3846 13.6083C11.618 13.0166 11.993 12.4666 12.5013 11.9916C13.143 11.3583 13.8763 11.0416 14.6596 11.0416C14.9846 11.0416 15.318 11.1166 15.6013 11.25C15.9263 11.4 16.2013 11.625 16.4013 11.925L18.3346 14.65C18.5096 14.8916 18.643 15.125 18.7346 15.3583C18.843 15.6083 18.9013 15.8583 18.9013 16.1C18.9013 16.4166 18.8096 16.725 18.6346 17.0166C18.5096 17.2416 18.318 17.4833 18.0763 17.725L17.5096 18.3166C17.518 18.3416 17.5263 18.3583 17.5346 18.375C17.6346 18.55 17.8346 18.85 18.218 19.3C18.6263 19.7666 19.0096 20.1916 19.393 20.5833C19.8846 21.0666 20.293 21.45 20.6763 21.7666C21.1513 22.1666 21.4596 22.3666 21.643 22.4583L21.6263 22.5L22.2346 21.9C22.493 21.6416 22.743 21.45 22.9846 21.325C23.443 21.0416 24.0263 20.9916 24.6096 21.2333C24.8263 21.325 25.0596 21.45 25.3096 21.625L28.0763 23.5916C28.3846 23.8 28.6096 24.0666 28.743 24.3833C28.868 24.7 28.9263 24.9916 28.9263 25.2833C28.9263 25.6833 28.8346 26.0833 28.6596 26.4583C28.4846 26.8333 28.268 27.1583 27.993 27.4583C27.518 27.9833 27.0013 28.3583 26.4013 28.6C25.8263 28.8333 25.2013 28.9583 24.543 28.9583ZM14.6596 12.2916C14.2013 12.2916 13.7763 12.4916 13.368 12.8916C12.9846 13.25 12.718 13.6416 12.5513 14.0666C12.3763 14.5 12.293 14.9583 12.293 15.45C12.293 16.225 12.4763 17.0666 12.843 17.9333C13.218 18.8166 13.743 19.7333 14.4096 20.65C15.0763 21.5666 15.8346 22.4583 16.668 23.3C17.5013 24.125 18.4013 24.8916 19.3263 25.5666C20.2263 26.225 21.1513 26.7583 22.068 27.1416C23.493 27.75 24.8263 27.8916 25.9263 27.4333C26.3513 27.2583 26.7263 26.9916 27.068 26.6083C27.2596 26.4 27.4096 26.175 27.5346 25.9083C27.6346 25.7 27.6846 25.4833 27.6846 25.2666C27.6846 25.1333 27.6596 25 27.593 24.85C27.568 24.8 27.518 24.7083 27.3596 24.6L24.593 22.6333C24.4263 22.5166 24.2763 22.4333 24.1346 22.375C23.9513 22.3 23.8763 22.225 23.593 22.4C23.4263 22.4833 23.2763 22.6083 23.1096 22.775L22.4763 23.4C22.1513 23.7166 21.6513 23.7916 21.268 23.65L21.043 23.55C20.7013 23.3666 20.3013 23.0833 19.8596 22.7083C19.4596 22.3666 19.0263 21.9666 18.5013 21.45C18.093 21.0333 17.6846 20.5916 17.2596 20.1C16.868 19.6416 16.5846 19.25 16.4096 18.925L16.3096 18.675C16.2596 18.4833 16.243 18.375 16.243 18.2583C16.243 17.9583 16.3513 17.6916 16.5596 17.4833L17.1846 16.8333C17.3513 16.6666 17.4763 16.5083 17.5596 16.3666C17.6263 16.2583 17.6513 16.1666 17.6513 16.0833C17.6513 16.0166 17.6263 15.9166 17.5846 15.8166C17.5263 15.6833 17.4346 15.5333 17.318 15.375L15.3846 12.6416C15.3013 12.525 15.2013 12.4416 15.0763 12.3833C14.943 12.325 14.8013 12.2916 14.6596 12.2916ZM21.6263 22.5083L21.493 23.075L21.718 22.4916C21.6763 22.4833 21.643 22.4916 21.6263 22.5083Z" fill="white"/>
</svg>
